<svg width="77" height="77" viewBox="0 0 77 77" fill="none" xmlns="http://www.w3.org/2000/svg">
<circle cx="38.5" cy="38.5" r="38.5" fill="#4F4F4F"/>
<path fill-rule="evenodd" clip-rule="evenodd" d="M38.3504 41.4985C45.2126 41.4985 50.7753 35.9359 50.7753 29.0736C50.7753 22.2116 45.2126 16.6487 38.3504 16.6487C31.4881 16.6487 25.9254 22.2118 25.9254 29.0736C25.9254 35.9358 31.4881 41.4985 38.3504 41.4985ZM17.2204 57.4493C22.4098 63.6152 29.6075 67.375 38.4793 67.375C47.5181 67.375 54.7161 63.6153 59.9052 57.4493C60.2399 56.8476 60.2399 56.0957 59.9052 55.6445C54.7164 49.3283 47.5187 45.7188 38.4793 45.7188C29.6075 45.7188 22.4095 49.3279 17.2204 55.6445C16.7182 56.0957 16.7182 56.8476 17.2204 57.4493Z" fill="#FFFDF9"/>
</svg>
