<svg width="34" height="32" viewBox="0 0 34 32" fill="none" xmlns="http://www.w3.org/2000/svg">
<g clip-path="url(#clip0_663_4200)">
<rect width="33.1947" height="32" rx="10" fill="#F8F8F8"/>
<path d="M12.4507 16.0013C12.4503 15.7676 12.5347 15.5412 12.6893 15.3613L17.876 9.36125C18.0521 9.15704 18.3051 9.02861 18.5794 9.00423C18.8537 8.97985 19.1268 9.06151 19.3386 9.23125C19.5505 9.40099 19.6837 9.6449 19.709 9.90933C19.7343 10.1738 19.6496 10.437 19.4735 10.6413L14.8262 16.0013L19.3075 21.3613C19.3937 21.4635 19.458 21.5812 19.4969 21.7076C19.5357 21.8339 19.5482 21.9664 19.5338 22.0974C19.5193 22.2285 19.4781 22.3554 19.4126 22.4711C19.3471 22.5867 19.2585 22.6887 19.1519 22.7713C19.0453 22.8628 18.9201 22.9322 18.7844 22.975C18.6486 23.0178 18.5051 23.0331 18.363 23.0199C18.2208 23.0068 18.083 22.9655 17.9581 22.8986C17.8333 22.8317 17.7241 22.7407 17.6374 22.6313L12.6271 16.6313C12.4969 16.4462 12.4348 16.2244 12.4507 16.0013Z" fill="#242424"/>
</g>
<defs>
<clipPath id="clip0_663_4200">
<rect width="33.1947" height="32" fill="white"/>
</clipPath>
</defs>
</svg>
