<svg width="20" height="20" viewBox="0 0 20 20" fill="none" xmlns="http://www.w3.org/2000/svg">
<path d="M16.6667 17.7778C16.6667 19.005 15.6717 20 14.4444 20H2.22222C0.995 20 0 19.005 0 17.7778V2.22222C0 0.995 0.995 0 2.22222 0H14.4444C15.6717 0 16.6667 0.995 16.6667 2.22222V17.7778Z" fill="#CCD6DD"/>
<path d="M14.4444 13.3333C14.4444 13.6406 14.1961 13.8889 13.8888 13.8889H2.77772C2.47106 13.8889 2.22217 13.6406 2.22217 13.3333C2.22217 13.0261 2.47106 12.7778 2.77772 12.7778H13.8888C14.1961 12.7778 14.4444 13.0261 14.4444 13.3333ZM5.5555 15.5556C5.5555 15.8628 5.30661 16.1111 4.99995 16.1111H2.77772C2.47106 16.1111 2.22217 15.8628 2.22217 15.5556C2.22217 15.2483 2.47106 15 2.77772 15H4.99995C5.30661 15 5.5555 15.2483 5.5555 15.5556ZM14.4444 4.44444C14.4444 4.75111 14.1961 5 13.8888 5H2.77772C2.47106 5 2.22217 4.75111 2.22217 4.44444C2.22217 4.13777 2.47106 3.88889 2.77772 3.88889H13.8888C14.1961 3.88889 14.4444 4.13777 14.4444 4.44444ZM14.4444 6.66666C14.4444 6.97389 14.1961 7.22222 13.8888 7.22222H2.77772C2.47106 7.22222 2.22217 6.97389 2.22217 6.66666C2.22217 6.35944 2.47106 6.11111 2.77772 6.11111H13.8888C14.1961 6.11111 14.4444 6.35944 14.4444 6.66666ZM14.4444 8.88889C14.4444 9.19611 14.1961 9.44444 13.8888 9.44444H2.77772C2.47106 9.44444 2.22217 9.19611 2.22217 8.88889C2.22217 8.58166 2.47106 8.33333 2.77772 8.33333H13.8888C14.1961 8.33333 14.4444 8.58166 14.4444 8.88889ZM14.4444 11.1111C14.4444 11.4183 14.1961 11.6667 13.8888 11.6667H2.77772C2.47106 11.6667 2.22217 11.4183 2.22217 11.1111C2.22217 10.8039 2.47106 10.5556 2.77772 10.5556H13.8888C14.1961 10.5556 14.4444 10.8039 14.4444 11.1111Z" fill="#99AAB5"/>
<path d="M16.6667 3.48444C16.2073 3.18722 15.6462 3.16278 15.2662 3.47167L14.8262 3.83056L14.0017 4.50333L13.9462 4.54778L12.6262 5.62444L6.02729 11.0056C5.78451 11.2039 5.58673 11.6828 5.37562 12.1578C5.16562 12.63 4.83729 13.7422 4.57396 14.5972C4.49174 14.7361 3.98229 15.6228 4.26785 15.96C4.55674 16.3017 5.56007 15.9656 5.69451 15.9178C6.59785 15.8211 7.76729 15.7106 8.27673 15.5956C8.79007 15.4783 9.30673 15.3761 9.54951 15.1778C9.55396 15.1744 9.55507 15.1678 9.55896 15.165L16.1467 9.795L16.5867 9.43611L16.6667 9.37056V3.48444Z" fill="#66757F"/>
<path d="M9.52502 12.5144C9.52502 12.5144 8.81724 11.4694 8.34891 11.0961C7.97557 10.6278 6.9328 9.92056 6.9328 9.92056C6.68391 9.67278 6.27113 9.65389 6.0278 9.89667C5.78502 10.14 5.58724 10.6556 5.37613 11.1694C5.11391 11.8061 4.66724 13.4772 4.39391 14.365C4.3478 14.5161 4.68113 14.115 4.67335 14.2483C4.6678 14.3522 4.68835 14.4672 4.71446 14.5711L4.63335 14.6594L4.74891 14.6967C4.7628 14.7422 4.77668 14.7822 4.78668 14.8133L4.87502 14.7322C4.97891 14.7583 5.09391 14.7789 5.19724 14.7733C5.33057 14.7656 4.92891 15.0994 5.08057 15.0528C5.96835 14.7789 7.64002 14.3328 8.27613 14.0706C8.78946 13.8589 9.30613 13.6617 9.54891 13.4183C9.7928 13.1767 9.77446 12.7639 9.52502 12.5144Z" fill="#D99E82"/>
<path d="M13.5067 2.41722C13.0201 2.90333 13.0201 3.69111 13.5067 4.17722L15.2662 5.93722C15.7528 6.42277 16.5406 6.42277 17.0262 5.93722L18.7867 4.17722C19.2723 3.69111 19.2723 2.90333 18.7867 2.41722L17.0262 0.657216C16.5406 0.171105 15.7528 0.171105 15.2662 0.657216L13.5067 2.41722Z" fill="#EA596E"/>
<path d="M6.02722 9.89724L7.78833 11.6583L9.54667 13.4172L16.1472 6.81779L12.6267 3.29779L6.02722 9.89724Z" fill="#FFCC4D"/>
<path d="M5.72111 14.8567C5.72111 14.8567 4.57666 15.4861 4.26777 15.1767C3.95833 14.8667 4.59055 13.7261 4.59055 13.7261C4.59055 13.7261 5.67444 13.7461 5.72111 14.8567Z" fill="#292F33"/>
<path d="M12.6267 3.29723L14.8267 1.09723L18.3467 4.61778L16.1467 6.81778L12.6267 3.29723Z" fill="#CCD6DD"/>
<path d="M13.9461 1.97668L14.3861 1.53668L17.9061 5.05613L17.4661 5.49613L13.9461 1.97668ZM13.0667 2.85668L13.5061 2.41724L17.0261 5.93668L16.5861 6.37668L13.0667 2.85668Z" fill="#99AAB5"/>
</svg>
