<svg width="43" height="43" viewBox="0 0 43 43" fill="none" xmlns="http://www.w3.org/2000/svg">
<circle cx="21.5" cy="21.5" r="21" fill="#FEFCF8" stroke="#CC3737"/>
<path d="M22 13L15 18L19.5 20L22 18V13Z" fill="white" fill-opacity="0.68"/>
<path d="M15.2784 13.0926L22 10.535L28.7216 13.0926L32.3108 19.592L31.0628 26.9914L25.574 31.8065H18.426L12.9372 26.9914L11.6892 19.592L15.2784 13.0926Z" fill="#CC3737" stroke="white"/>
<path d="M20.4188 14.1295L16.4237 16.983C15.7942 17.4327 15.8918 18.3964 16.5988 18.7106L18.9442 19.753C19.2856 19.9047 19.6832 19.8534 19.975 19.62L21.6247 18.3002C21.8619 18.1105 22 17.8232 22 17.5194V14.9432C22 14.1298 21.0806 13.6567 20.4188 14.1295Z" fill="white" fill-opacity="0.68"/>
</svg>
