<svg width="19" height="19" viewBox="0 0 19 19" fill="none" xmlns="http://www.w3.org/2000/svg">
<path d="M8.07495 17.3969H11.7265V19H8.07495V17.3969Z" fill="#94989B"/>
<path d="M14.5469 16.5656C14.5469 16.9812 14.1906 17.3672 13.7453 17.3672H5.67034C5.22502 17.3672 4.86877 16.9812 4.86877 16.5656V10.925C4.86877 10.5094 5.22502 10.1234 5.67034 10.1234H13.7453C14.1906 10.1234 14.5469 10.5094 14.5469 10.925V16.5656Z" fill="#3E4347"/>
<path d="M5.25469 10.5094C8.15677 10.5094 10.5094 8.15677 10.5094 5.25469C10.5094 2.3526 8.15677 0 5.25469 0C2.3526 0 0 2.3526 0 5.25469C0 8.15677 2.3526 10.5094 5.25469 10.5094Z" fill="#3E4347"/>
<path d="M3.38442 3.8C4.05666 3.8 4.60161 3.25505 4.60161 2.58281C4.60161 1.91058 4.05666 1.36563 3.38442 1.36563C2.71219 1.36563 2.16724 1.91058 2.16724 2.58281C2.16724 3.25505 2.71219 3.8 3.38442 3.8Z" fill="#D0D0D0"/>
<path d="M7.12502 3.8C7.79726 3.8 8.34221 3.25505 8.34221 2.58281C8.34221 1.91058 7.79726 1.36563 7.12502 1.36563C6.45279 1.36563 5.90784 1.91058 5.90784 2.58281C5.90784 3.25505 6.45279 3.8 7.12502 3.8Z" fill="#D0D0D0"/>
<path d="M8.31252 7.24375C8.98476 7.24375 9.52971 6.6988 9.52971 6.02656C9.52971 5.35433 8.98476 4.80937 8.31252 4.80937C7.64029 4.80937 7.09534 5.35433 7.09534 6.02656C7.09534 6.6988 7.64029 7.24375 8.31252 7.24375Z" fill="#D0D0D0"/>
<path d="M5.25479 9.64844C5.92702 9.64844 6.47197 9.10348 6.47197 8.43125C6.47197 7.75902 5.92702 7.21406 5.25479 7.21406C4.58255 7.21406 4.0376 7.75902 4.0376 8.43125C4.0376 9.10348 4.58255 9.64844 5.25479 9.64844Z" fill="#D0D0D0"/>
<path d="M2.19692 7.24375C2.86916 7.24375 3.41411 6.6988 3.41411 6.02656C3.41411 5.35433 2.86916 4.80937 2.19692 4.80937C1.52469 4.80937 0.979736 5.35433 0.979736 6.02656C0.979736 6.6988 1.52469 7.24375 2.19692 7.24375Z" fill="#D0D0D0"/>
<path d="M4.80933 4.86875C4.97329 4.86875 5.1062 4.73583 5.1062 4.57187C5.1062 4.40792 4.97329 4.275 4.80933 4.275C4.64537 4.275 4.51245 4.40792 4.51245 4.57187C4.51245 4.73583 4.64537 4.86875 4.80933 4.86875Z" fill="#D0D0D0"/>
<path d="M5.72974 4.86875C5.8937 4.86875 6.02661 4.73583 6.02661 4.57187C6.02661 4.40792 5.8937 4.275 5.72974 4.275C5.56578 4.275 5.43286 4.40792 5.43286 4.57187C5.43286 4.73583 5.56578 4.86875 5.72974 4.86875Z" fill="#D0D0D0"/>
<path d="M6.02661 5.72969C6.19057 5.72969 6.32349 5.59677 6.32349 5.43281C6.32349 5.26885 6.19057 5.13594 6.02661 5.13594C5.86265 5.13594 5.72974 5.26885 5.72974 5.43281C5.72974 5.59677 5.86265 5.72969 6.02661 5.72969Z" fill="#D0D0D0"/>
<path d="M5.25476 6.32344C5.41872 6.32344 5.55164 6.19052 5.55164 6.02656C5.55164 5.8626 5.41872 5.72969 5.25476 5.72969C5.0908 5.72969 4.95789 5.8626 4.95789 6.02656C4.95789 6.19052 5.0908 6.32344 5.25476 6.32344Z" fill="#D0D0D0"/>
<path d="M4.48279 5.72969C4.64675 5.72969 4.77966 5.59677 4.77966 5.43281C4.77966 5.26885 4.64675 5.13594 4.48279 5.13594C4.31883 5.13594 4.18591 5.26885 4.18591 5.43281C4.18591 5.59677 4.31883 5.72969 4.48279 5.72969Z" fill="#D0D0D0"/>
<path d="M14.5469 10.5094C17.0063 10.5094 19 8.51564 19 6.05625C19 3.59686 17.0063 1.60312 14.5469 1.60312C12.0875 1.60312 10.0938 3.59686 10.0938 6.05625C10.0938 8.51564 12.0875 10.5094 14.5469 10.5094Z" fill="#3E4347"/>
<path d="M12.9734 4.83906C13.5308 4.83906 13.9827 4.38715 13.9827 3.82969C13.9827 3.27223 13.5308 2.82031 12.9734 2.82031C12.4159 2.82031 11.964 3.27223 11.964 3.82969C11.964 4.38715 12.4159 4.83906 12.9734 4.83906Z" fill="#D0D0D0"/>
<path d="M16.1203 4.80938C16.6778 4.80938 17.1297 4.35746 17.1297 3.8C17.1297 3.24254 16.6778 2.79063 16.1203 2.79063C15.5629 2.79063 15.111 3.24254 15.111 3.8C15.111 4.35746 15.5629 4.80938 16.1203 4.80938Z" fill="#D0D0D0"/>
<path d="M17.1594 7.71875C17.7169 7.71875 18.1688 7.26684 18.1688 6.70938C18.1688 6.15191 17.7169 5.7 17.1594 5.7C16.6019 5.7 16.15 6.15191 16.15 6.70938C16.15 7.26684 16.6019 7.71875 17.1594 7.71875Z" fill="#D0D0D0"/>
<path d="M14.5469 9.76719C15.1043 9.76719 15.5562 9.31528 15.5562 8.75781C15.5562 8.20035 15.1043 7.74844 14.5469 7.74844C13.9894 7.74844 13.5375 8.20035 13.5375 8.75781C13.5375 9.31528 13.9894 9.76719 14.5469 9.76719Z" fill="#D0D0D0"/>
<path d="M11.9641 7.71875C12.5215 7.71875 12.9735 7.26684 12.9735 6.70938C12.9735 6.15191 12.5215 5.7 11.9641 5.7C11.4066 5.7 10.9547 6.15191 10.9547 6.70938C10.9547 7.26684 11.4066 7.71875 11.9641 7.71875Z" fill="#D0D0D0"/>
<path d="M14.161 5.75938C14.3086 5.75938 14.4282 5.63975 14.4282 5.49219C14.4282 5.34462 14.3086 5.225 14.161 5.225C14.0134 5.225 13.8938 5.34462 13.8938 5.49219C13.8938 5.63975 14.0134 5.75938 14.161 5.75938Z" fill="#D0D0D0"/>
<path d="M14.9625 5.75938C15.1101 5.75938 15.2297 5.63975 15.2297 5.49219C15.2297 5.34462 15.1101 5.225 14.9625 5.225C14.8149 5.225 14.6953 5.34462 14.6953 5.49219C14.6953 5.63975 14.8149 5.75938 14.9625 5.75938Z" fill="#D0D0D0"/>
<path d="M15.2 6.47188C15.3476 6.47188 15.4672 6.35225 15.4672 6.20469C15.4672 6.05713 15.3476 5.9375 15.2 5.9375C15.0525 5.9375 14.9329 6.05713 14.9329 6.20469C14.9329 6.35225 15.0525 6.47188 15.2 6.47188Z" fill="#D0D0D0"/>
<path d="M14.5469 7.00625C14.6944 7.00625 14.814 6.88663 14.814 6.73906C14.814 6.5915 14.6944 6.47188 14.5469 6.47188C14.3993 6.47188 14.2797 6.5915 14.2797 6.73906C14.2797 6.88663 14.3993 7.00625 14.5469 7.00625Z" fill="#D0D0D0"/>
<path d="M13.9234 6.47188C14.071 6.47188 14.1906 6.35225 14.1906 6.20469C14.1906 6.05713 14.071 5.9375 13.9234 5.9375C13.7759 5.9375 13.6562 6.05713 13.6562 6.20469C13.6562 6.35225 13.7759 6.47188 13.9234 6.47188Z" fill="#D0D0D0"/>
<path d="M2.0188 12.1422V18.1984L5.25474 16.5656V13.7453L2.0188 12.1422ZM16.5657 10.5094V13.3297L14.5469 12.9437V10.925L16.5657 10.5094Z" fill="#3E4347"/>
</svg>
