<svg width="36" height="36" viewBox="0 0 36 36" fill="none" xmlns="http://www.w3.org/2000/svg">
<g clip-path="url(#clip0_663_4823)">
<rect width="36" height="36" rx="8" fill="white"/>
<path d="M8.72326 8.46722H13.0845C13.8869 8.46722 14.4488 8.39163 14.4488 9.19409V7.74035C14.4488 6.93789 13.8869 6.28662 13.0845 6.28662H7.26953C5.81579 6.28662 4.66516 7.83121 5.08893 9.92096C5.08893 9.92096 6.39075 16.7353 6.48233 17.1591C6.72438 18.2799 8.0262 19.3702 9.4196 19.3702H14.4771C15.2803 19.3702 14.4488 17.9921 14.4488 17.1896V15.7359C14.4488 16.5384 13.8869 17.1896 13.0845 17.1896H10.177C9.37454 17.1896 8.84465 16.4322 8.72326 15.7359C8.60188 15.0396 7.57191 10.4058 7.57191 10.4058C7.32986 9.01237 7.92007 8.46722 8.72326 8.46722ZM27.4851 8.46722H23.1239C22.3215 8.46722 20.9906 8.39163 20.9906 9.19409V7.74035C20.9906 6.93789 22.3215 6.28662 23.1239 6.28662H28.9389C30.3926 6.28662 31.544 7.83121 31.1195 9.92096C31.1195 9.92096 29.9325 16.7673 29.8322 17.1896C29.5749 18.2799 28.3479 19.3702 26.9247 19.3702H21.7305C20.9281 19.3702 20.9906 17.9921 20.9906 17.1896V15.7359C20.9906 16.5384 22.3215 17.1896 23.1239 17.1896H26.0314C26.8339 17.1896 27.3645 16.4322 27.4851 15.7359C27.6058 15.0396 28.6365 10.4058 28.6365 10.4058C28.8778 9.01237 28.2883 8.46722 27.4851 8.46722ZM20.1416 20.824C20.1416 15.7664 18.1725 20.824 18.1725 20.824C18.1725 20.824 15.9919 15.7664 15.9919 20.824C15.9919 25.8815 13.5998 28.0926 13.5998 28.0926H22.5345C22.5337 28.0926 20.1416 25.8815 20.1416 20.824Z" fill="#171766"/>
<path d="M26.1681 9.61342C26.1681 14.5379 21.2472 22.8366 18.1725 22.8366C15.0972 22.8366 10.177 14.5379 10.177 9.61342C10.177 5.83735 10.9039 5.02035 12.3576 5.02035C13.3563 5.02035 16.737 5.00073 18.1725 5.00073L23.2606 5C25.3809 4.99927 26.1681 5.49718 26.1681 9.61342Z" fill="#5302D6"/>
<path d="M24.6249 28.8194C24.6249 29.6219 24.7899 30.2731 23.9874 30.2731H12.3575C11.5543 30.2731 11.5413 29.6219 11.5413 28.8194V28.0925C11.5413 27.2901 12.3873 26.6388 13.1447 26.6388H23.2605C24.0179 26.6388 24.6249 27.2901 24.6249 28.0925V28.8194Z" fill="#C1694F"/>
<path d="M26.0787 30.0006C26.0787 30.553 26.1987 31.0001 25.1687 31.0001H11.1765C10.2374 31.0001 10.0876 30.553 10.0876 30.0006V29.8189C10.0876 29.2665 10.6241 28.8195 11.1765 28.8195H25.1687C25.7204 28.8195 26.0787 29.2665 26.0787 29.8189V30.0006Z" fill="#C1694F"/>
</g>
<defs>
<clipPath id="clip0_663_4823">
<rect width="36" height="36" fill="white"/>
</clipPath>
</defs>
</svg>
