<svg width="24" height="24" viewBox="0 0 24 24" fill="none" xmlns="http://www.w3.org/2000/svg">
<path d="M15.6438 10.5813C15.6438 10.3127 15.5371 10.0552 15.3472 9.8653C15.1573 9.67542 14.8998 9.56875 14.6313 9.56875C14.3627 9.56875 14.1052 9.67542 13.9153 9.8653C13.7254 10.0552 13.6188 10.3127 13.6188 10.5813C13.6188 10.8498 13.7254 11.1073 13.9153 11.2972C14.1052 11.4871 14.3627 11.5938 14.6313 11.5938C14.8998 11.5938 15.1573 11.4871 15.3472 11.2972C15.5371 11.1073 15.6438 10.8498 15.6438 10.5813ZM10.5813 10.5813C10.5813 10.3127 10.4746 10.0552 10.2847 9.8653C10.0948 9.67542 9.83728 9.56875 9.56875 9.56875C9.30022 9.56875 9.04269 9.67542 8.8528 9.8653C8.66292 10.0552 8.55625 10.3127 8.55625 10.5813C8.55625 10.8498 8.66292 11.1073 8.8528 11.2972C9.04269 11.4871 9.30022 11.5938 9.56875 11.5938C9.83728 11.5938 10.0948 11.4871 10.2847 11.2972C10.4746 11.1073 10.5813 10.8498 10.5813 10.5813ZM10.5549 15.1912C10.4954 15.1608 10.4305 15.1425 10.3639 15.1373C10.2973 15.1321 10.2303 15.1401 10.1668 15.161C10.1033 15.1818 10.0446 15.215 9.99401 15.2586C9.94341 15.3022 9.90195 15.3555 9.87202 15.4152C9.84209 15.4749 9.82427 15.54 9.81961 15.6066C9.81494 15.6733 9.82351 15.7402 9.84483 15.8035C9.86614 15.8668 9.89978 15.9253 9.94381 15.9756C9.98783 16.0258 10.0414 16.0669 10.1013 16.0963C10.6926 16.392 11.4064 16.5297 12.1 16.5297C12.7936 16.5297 13.5074 16.392 14.0987 16.0963C14.1586 16.0669 14.2122 16.0258 14.2562 15.9756C14.3002 15.9253 14.3339 15.8668 14.3552 15.8035C14.3765 15.7402 14.3851 15.6733 14.3804 15.6066C14.3757 15.54 14.3579 15.4749 14.328 15.4152C14.298 15.3555 14.2566 15.3022 14.206 15.2586C14.1554 15.215 14.0967 15.1818 14.0332 15.161C13.9697 15.1401 13.9027 15.1321 13.8361 15.1373C13.7695 15.1425 13.7046 15.1608 13.6451 15.1912C13.2239 15.4018 12.6721 15.5172 12.1 15.5172C11.5279 15.5172 10.9761 15.4018 10.5549 15.1912ZM20.2 12.1C20.2 9.95175 19.3466 7.89148 17.8276 6.37244C16.3085 4.85339 14.2483 4 12.1 4C9.95175 4 7.89148 4.85339 6.37244 6.37244C4.85339 7.89148 4 9.95175 4 12.1C4 14.2483 4.85339 16.3085 6.37244 17.8276C7.89148 19.3466 9.95175 20.2 12.1 20.2C14.2483 20.2 16.3085 19.3466 17.8276 17.8276C19.3466 16.3085 20.2 14.2483 20.2 12.1ZM5.0125 12.1C5.0125 11.1693 5.19582 10.2476 5.552 9.38773C5.90818 8.52784 6.43025 7.74652 7.08838 7.08838C7.74652 6.43025 8.52784 5.90818 9.38773 5.552C10.2476 5.19582 11.1693 5.0125 12.1 5.0125C13.0307 5.0125 13.9524 5.19582 14.8123 5.552C15.6722 5.90818 16.4535 6.43025 17.1116 7.08838C17.7698 7.74652 18.2918 8.52784 18.648 9.38773C19.0042 10.2476 19.1875 11.1693 19.1875 12.1C19.1875 13.9797 18.4408 15.7825 17.1116 17.1116C15.7825 18.4408 13.9797 19.1875 12.1 19.1875C10.2203 19.1875 8.41754 18.4408 7.08838 17.1116C5.75922 15.7825 5.0125 13.9797 5.0125 12.1Z" fill="#475467"/>
</svg>
