<svg width="54" height="80" viewBox="0 0 54 80" fill="none" xmlns="http://www.w3.org/2000/svg">
<path d="M52.5 44.5C52.5 59.4891 41.0079 71.5 27 71.5C12.9921 71.5 1.5 59.4891 1.5 44.5C1.5 29.5109 12.9921 17.5 27 17.5C41.0079 17.5 52.5 29.5109 52.5 44.5Z" fill="#252A40" stroke="#FFAA00" stroke-width="3"/>
<path d="M35.5003 3.2271C35.3039 3.07657 35.0654 2.97975 34.812 2.9477C34.5586 2.91566 34.3005 2.94966 34.0672 3.04585L29.7248 4.819L27.2018 0.642239C27.0813 0.447237 26.9065 0.285069 26.6955 0.172252C26.4844 0.0594353 26.2446 0 26.0004 0C25.7562 0 25.5164 0.0594353 25.3053 0.172252C25.0943 0.285069 24.9196 0.447237 24.799 0.642239L22.276 4.819L17.9336 3.04585C17.6998 2.94981 17.4414 2.91575 17.1875 2.94754C16.9337 2.97932 16.6947 3.07568 16.4973 3.22571C16.3 3.37574 16.1524 3.57347 16.071 3.79654C15.9897 4.01961 15.978 4.25913 16.0371 4.48801L18.2168 13.0228C18.2585 13.188 18.3363 13.3438 18.4455 13.4806C18.5546 13.6174 18.6929 13.7324 18.8519 13.8187C19.0672 13.9371 19.3133 13.9997 19.5642 14C19.6861 13.9998 19.8074 13.9839 19.9246 13.9527C23.8977 12.944 28.0945 12.944 32.0676 13.9527C32.4304 14.0403 32.8162 13.9921 33.1403 13.8187C33.3003 13.7335 33.4393 13.6188 33.5486 13.4818C33.6579 13.3449 33.7351 13.1886 33.7754 13.0228L35.9637 4.48801C36.0222 4.25906 36.0098 4.01966 35.9279 3.79684C35.846 3.57403 35.6979 3.37668 35.5003 3.2271Z" fill="#FFAA00"/>
<ellipse cx="26" cy="7.5" rx="2" ry="2.5" fill="white"/>
<ellipse cx="36" cy="2.5" rx="2" ry="1.5" fill="#FFAA00"/>
<ellipse cx="16" cy="2.5" rx="2" ry="1.5" fill="#FFAA00"/>
<ellipse cx="21.5" cy="8.5" rx="0.5" ry="1.5" fill="white"/>
<ellipse cx="31.5" cy="8.5" rx="0.5" ry="1.5" fill="white"/>
<rect x="27" y="63.1053" width="11.5661" height="11.5661" rx="5.78306" transform="rotate(45 27 63.1053)" fill="#FFAA00"/>
<path d="M27.8835 68.1818V74H26.8295V69.2074H26.7955L25.4347 70.0767V69.1108L26.8807 68.1818H27.8835Z" fill="white"/>
</svg>
