<svg width="36" height="36" viewBox="0 0 36 36" fill="none" xmlns="http://www.w3.org/2000/svg">
<g id="food">
<g id="&#240;&#159;&#166;&#134; emoji &#34;playing card black joker&#34;">
<path id="Vector" d="M29 28.4286C29 29.7697 27.9126 30.8571 26.5714 30.8571H14.4286C13.0874 30.8571 12 29.7697 12 28.4286V11.4286C12 10.0874 13.0874 9 14.4286 9H26.5714C27.9126 9 29 10.0874 29 11.4286V28.4286Z" fill="#E6E7E8"/>
<path id="Vector_2" d="M16.2502 13.25C14.7208 13.25 13.4676 14.3854 13.2576 15.8565C13.7014 15.3768 14.331 15.0714 15.0359 15.0714C16.3771 15.0714 17.4645 16.1588 17.4645 17.5C17.4645 18.7143 18.3734 18.8345 17.8937 19.2783C19.3648 19.0683 19.2859 17.8151 19.2859 16.2857C19.2859 14.6094 17.9265 13.25 16.2502 13.25Z" fill="#DD2E44"/>
<path id="Vector_3" d="M23.5356 17.5C23.5356 16.1588 24.623 15.0714 25.9641 15.0714C26.669 15.0714 27.2986 15.3768 27.7425 15.8565C27.5324 14.3854 26.2798 13.25 24.7498 13.25C23.0729 13.25 21.7141 14.6094 21.7141 16.2857C21.7141 17.8151 21.6346 19.0683 23.1063 19.2783C22.6267 18.8345 23.5356 18.7143 23.5356 17.5Z" fill="#55ACEE"/>
<path id="Vector_4" d="M18.0713 16.2857C18.0713 13.2676 20.4999 10.8214 20.4999 10.8214C20.4999 10.8214 22.9284 13.2676 22.9284 16.2857C22.9284 19.3038 21.841 21.75 20.4999 21.75C19.1587 21.75 18.0713 19.3038 18.0713 16.2857Z" fill="#FFAC33"/>
<path id="Vector_5" d="M16.6794 21.7931C17.1591 22.2369 17.4645 22.8665 17.4645 23.5714C17.4645 24.9126 16.3771 26 15.0359 26C14.331 26 13.7014 25.6946 13.2576 25.2149C13.4676 26.6867 14.7208 27.8214 16.2502 27.8214C17.9265 27.8214 19.2859 26.4626 19.2859 24.7857C19.2859 23.2557 18.1505 22.0032 16.6794 21.7931ZM25.9645 26C24.6233 26 23.5359 24.9126 23.5359 23.5714C23.5359 22.8665 23.8413 22.2369 24.3209 21.7931C22.8492 22.0032 21.7145 23.2557 21.7145 24.7857C21.7145 26.4626 23.0732 27.8214 24.7502 27.8214C26.2802 27.8214 27.5327 26.6867 27.7428 25.2149C27.299 25.6946 26.6694 26 25.9645 26Z" fill="#553788"/>
<path id="Vector_6" d="M18.0713 23.5714C18.0713 26.5895 19.8927 29.0357 20.4999 29.0357C21.107 29.0357 22.9284 26.5895 22.9284 23.5714C22.9284 23.0408 22.895 22.5278 22.8319 22.042C22.538 19.7689 21.6049 18.1071 20.4999 18.1071C19.3949 18.1071 18.4617 19.7689 18.1678 22.042C18.1047 22.5278 18.0713 23.0408 18.0713 23.5714Z" fill="#9266CC"/>
<path id="Vector_7" d="M17.4644 19.3214C17.4644 16.9742 19.2858 16.8929 20.5001 16.8929C21.7144 16.8929 23.5358 16.9742 23.5358 19.3214C23.5358 21.668 22.177 23.5714 20.5001 23.5714C18.8237 23.5714 17.4644 21.668 17.4644 19.3214Z" fill="#EDBB9F"/>
<path id="Vector_8" d="M19.2859 19.9286C19.6212 19.9286 19.893 19.6568 19.893 19.3214C19.893 18.9861 19.6212 18.7143 19.2859 18.7143C18.9505 18.7143 18.6787 18.9861 18.6787 19.3214C18.6787 19.6568 18.9505 19.9286 19.2859 19.9286Z" fill="#662113"/>
<path id="Vector_9" d="M21.7143 19.9286C22.0496 19.9286 22.3215 19.6568 22.3215 19.3214C22.3215 18.9861 22.0496 18.7143 21.7143 18.7143C21.379 18.7143 21.1072 18.9861 21.1072 19.3214C21.1072 19.6568 21.379 19.9286 21.7143 19.9286Z" fill="#662113"/>
<path id="Vector_10" d="M20.5002 22.3571C21.1705 22.3571 21.7145 21.8131 21.7145 21.1429H19.2859C19.2859 21.8131 19.8299 22.3571 20.5002 22.3571Z" fill="#662113"/>
<path id="Vector_11" d="M13.2143 16.2857C13.5496 16.2857 13.8215 16.0139 13.8215 15.6786C13.8215 15.3433 13.5496 15.0714 13.2143 15.0714C12.879 15.0714 12.6072 15.3433 12.6072 15.6786C12.6072 16.0139 12.879 16.2857 13.2143 16.2857Z" fill="#A0041E"/>
<path id="Vector_12" d="M27.7859 16.2857C28.1212 16.2857 28.393 16.0139 28.393 15.6786C28.393 15.3433 28.1212 15.0714 27.7859 15.0714C27.4505 15.0714 27.1787 15.3433 27.1787 15.6786C27.1787 16.0139 27.4505 16.2857 27.7859 16.2857Z" fill="#226699"/>
<path id="Vector_13" d="M20.5002 11.4286C20.8355 11.4286 21.1074 11.1568 21.1074 10.8214C21.1074 10.4861 20.8355 10.2143 20.5002 10.2143C20.1649 10.2143 19.8931 10.4861 19.8931 10.8214C19.8931 11.1568 20.1649 11.4286 20.5002 11.4286Z" fill="#DD2E44"/>
</g>
</g>
</svg>
