<svg width="36" height="36" viewBox="0 0 36 36" fill="none" xmlns="http://www.w3.org/2000/svg">
<g id="top30">
<g id="&#240;&#159;&#166;&#134; emoji &#34;video game&#34;">
<path id="Vector" d="M13.2707 14.8263L13.2683 14.8251C13.2683 14.8251 12 22.5033 12 23.6102C12 24.7381 12.8305 25.652 13.8551 25.652C14.2756 25.652 14.659 25.4925 14.97 25.2328L21.2563 19.7058L13.2707 14.8263ZM32.8667 14.8263L32.8692 14.8251C32.8692 14.8251 34.1374 22.5033 34.1374 23.6102C34.1374 24.7381 33.307 25.652 32.2824 25.652C31.8619 25.652 31.4785 25.4925 31.1674 25.2328L24.8811 19.7058L32.8667 14.8263Z" fill="#31373D"/>
<g id="Group">
<g id="Group_2">
<path id="Vector_2" d="M28.0156 20.5122C30.9185 20.5122 33.2717 18.159 33.2717 15.2561C33.2717 12.3532 30.9185 10 28.0156 10C25.1128 10 22.7595 12.3532 22.7595 15.2561C22.7595 18.159 25.1128 20.5122 28.0156 20.5122Z" fill="#14171A"/>
<path id="Vector_3" d="M18.1218 20.5122C21.0247 20.5122 23.3779 18.159 23.3779 15.2561C23.3779 12.3532 21.0247 10 18.1218 10C15.219 10 12.8657 12.3532 12.8657 15.2561C12.8657 18.159 15.219 20.5122 18.1218 20.5122Z" fill="#14171A"/>
<path id="Vector_4" d="M18.1218 10H28.0157V20.4318H18.1218V10Z" fill="#14171A"/>
</g>
<path id="Vector_5" d="M20.0388 23.1402C21.7464 23.1402 23.1307 21.756 23.1307 20.0484C23.1307 18.3409 21.7464 16.9566 20.0388 16.9566C18.3313 16.9566 16.947 18.3409 16.947 20.0484C16.947 21.756 18.3313 23.1402 20.0388 23.1402Z" fill="#14171A"/>
<path id="Vector_6" d="M26.0987 23.1402C27.8062 23.1402 29.1905 21.756 29.1905 20.0484C29.1905 18.3409 27.8062 16.9566 26.0987 16.9566C24.3911 16.9566 23.0068 18.3409 23.0068 20.0484C23.0068 21.756 24.3911 23.1402 26.0987 23.1402Z" fill="#14171A"/>
</g>
<path id="Vector_7" d="M26.0987 21.9035C27.1233 21.9035 27.9538 21.073 27.9538 20.0484C27.9538 19.0239 27.1233 18.1933 26.0987 18.1933C25.0742 18.1933 24.2437 19.0239 24.2437 20.0484C24.2437 21.073 25.0742 21.9035 26.0987 21.9035Z" fill="#67757F"/>
<path id="Vector_8" d="M20.0387 21.9035C21.0632 21.9035 21.8938 21.073 21.8938 20.0484C21.8938 19.0239 21.0632 18.1933 20.0387 18.1933C19.0141 18.1933 18.1836 19.0239 18.1836 20.0484C18.1836 21.073 19.0141 21.9035 20.0387 21.9035Z" fill="#67757F"/>
<path id="Vector_9" d="M27.8672 13.5154C28.4147 13.5154 28.8585 13.0716 28.8585 12.5242C28.8585 11.9767 28.4147 11.5329 27.8672 11.5329C27.3198 11.5329 26.876 11.9767 26.876 12.5242C26.876 13.0716 27.3198 13.5154 27.8672 13.5154Z" fill="#FFCC4D"/>
<path id="Vector_10" d="M27.8672 17.5187C28.4147 17.5187 28.8585 17.0749 28.8585 16.5275C28.8585 15.98 28.4147 15.5362 27.8672 15.5362C27.3198 15.5362 26.876 15.98 26.876 16.5275C26.876 17.0749 27.3198 17.5187 27.8672 17.5187Z" fill="#77B255"/>
<path id="Vector_11" d="M25.8657 15.5171C26.4132 15.5171 26.857 15.0733 26.857 14.5258C26.857 13.9784 26.4132 13.5346 25.8657 13.5346C25.3183 13.5346 24.8745 13.9784 24.8745 14.5258C24.8745 15.0733 25.3183 15.5171 25.8657 15.5171Z" fill="#50A5E6"/>
<path id="Vector_12" d="M29.8689 15.5171C30.4164 15.5171 30.8602 15.0733 30.8602 14.5258C30.8602 13.9784 30.4164 13.5346 29.8689 13.5346C29.3215 13.5346 28.8777 13.9784 28.8777 14.5258C28.8777 15.0733 29.3215 15.5171 29.8689 15.5171Z" fill="#DD2E44"/>
<path id="Vector_13" d="M18.8472 13.3781V12.0375C18.8472 11.865 18.7074 11.7252 18.5349 11.7252H17.5715C17.399 11.7252 17.2592 11.865 17.2592 12.0375V13.3781L18.0532 14.1727L18.8472 13.3781ZM17.2586 15.6228V16.9634C17.2586 17.1359 17.3983 17.2757 17.5709 17.2757H18.5343C18.7068 17.2757 18.8465 17.1359 18.8465 16.9634V15.6228L18.0526 14.8282L17.2586 15.6228ZM20.5167 13.7058H19.1761L18.3815 14.5004L19.1761 15.295H20.5167C20.6893 15.295 20.829 15.1547 20.829 14.9828V14.0187C20.829 13.8462 20.6893 13.7058 20.5167 13.7058ZM16.9309 13.7058H15.5896C15.4171 13.7058 15.2773 13.8462 15.2773 14.0181V14.9815C15.2773 15.1541 15.4171 15.2938 15.5896 15.2938H16.9302L17.7248 14.4992L16.9309 13.7058Z" fill="#8899A6"/>
</g>
</g>
</svg>
