<svg width="22" height="14" viewBox="0 0 22 14" fill="none" xmlns="http://www.w3.org/2000/svg">
<path d="M21.9268 11.421L20.3161 3.33112C19.9501 1.46423 18.3394 0.0366057 16.3993 0H5.60067C3.62396 0 1.97671 1.42762 1.64725 3.33112L0.0366056 11.421C-3.54553e-08 11.5674 0 11.7138 0 11.8602C0 12.995 0.915141 13.9102 2.01331 13.9102C2.74542 13.9102 3.36772 13.5441 3.73378 12.9584L6.36938 9.66389C6.80865 10.0666 7.35774 10.3228 7.98003 10.3228C9.29784 10.3228 10.3594 9.26123 10.3594 7.90682H11.6406C11.6406 9.22463 12.7022 10.3228 14.02 10.3228C14.6423 10.3228 15.1913 10.1032 15.6306 9.7005L18.2662 12.995C18.6323 13.5807 19.2546 13.9468 19.9867 13.9468C21.0849 13.9468 22 13.0316 22 11.8968C21.9634 11.7138 21.9634 11.5674 21.9268 11.421Z" fill="#333333"/>
<path d="M6.91843 4.46589C7.17467 4.72213 7.46751 4.64892 7.57733 4.28286V3.14809C7.46751 2.78203 7.17467 2.70882 6.91843 2.96506L6.66219 3.2213C6.40595 3.47754 6.40595 3.91681 6.66219 4.17305L6.91843 4.46589ZM5.05154 1.75707C4.68548 1.86689 4.61227 2.15974 4.86851 2.41597L5.12475 2.67221C5.38099 2.92845 5.82026 2.92845 6.0765 2.67221L6.33274 2.41597C6.58897 2.15974 6.51576 1.86689 6.14971 1.75707H5.05154ZM4.31942 3.00167C4.06318 2.74543 3.77034 2.81864 3.66052 3.18469V4.31947C3.77034 4.68552 4.06318 4.75874 4.31942 4.5025L4.57566 4.24626C4.8319 3.99002 4.8319 3.55075 4.57566 3.29451L4.31942 3.00167ZM6.18631 5.74709C6.55237 5.63727 6.62558 5.34443 6.36934 5.08819L6.1131 4.83195C5.85686 4.57571 5.41759 4.57571 5.16135 4.83195L4.90511 5.08819C4.64888 5.34443 4.72209 5.63727 5.08814 5.74709H6.18631Z" fill="#94989B"/>
<path d="M17.3877 3.73378C17.0216 3.73378 16.7288 4.02662 16.7288 4.39268C16.7288 4.75874 17.0216 5.05158 17.3877 5.05158C17.7537 5.05158 18.0466 4.75874 18.0466 4.39268C18.0466 4.02662 17.7537 3.73378 17.3877 3.73378ZM15.4476 4.42929C15.0815 4.42929 14.7887 4.72213 14.7887 5.08819C14.7887 5.45424 15.0815 5.74709 15.4476 5.74709C15.8136 5.74709 16.1065 5.45424 16.1065 5.08819C16.1431 4.72213 15.8136 4.42929 15.4476 4.42929ZM17.3145 3.07488C17.6805 3.07488 17.9734 2.78203 17.9734 2.41597C17.9734 2.04992 17.6805 1.75707 17.3145 1.75707C16.9484 1.75707 16.6556 2.04992 16.6556 2.41597C16.6556 2.74543 16.9484 3.07488 17.3145 3.07488ZM15.411 3.73378C15.777 3.73378 16.0699 3.44093 16.0699 3.07488C16.0699 2.70882 15.777 2.41597 15.411 2.41597C15.0449 2.41597 14.7521 2.70882 14.7521 3.07488C14.7521 3.44093 15.0449 3.73378 15.411 3.73378Z" fill="#F2B200"/>
<path d="M14.02 9.48087C14.8893 9.48087 15.594 8.75975 15.594 7.87022C15.594 6.98068 14.8893 6.25957 14.02 6.25957C13.1506 6.25957 12.4459 6.98068 12.4459 7.87022C12.4459 8.75975 13.1506 9.48087 14.02 9.48087Z" fill="#94989B"/>
<path d="M7.98005 6.25957C7.10151 6.25957 6.40601 6.99168 6.40601 7.87022C6.40601 8.74875 7.10151 9.48087 7.98005 9.48087C8.85858 9.48087 9.55409 8.74875 9.55409 7.87022C9.5907 6.99168 8.85858 6.25957 7.98005 6.25957Z" fill="#94989B"/>
</svg>
