<svg width="18" height="18" viewBox="0 0 18 18" fill="none" xmlns="http://www.w3.org/2000/svg">
<path d="M12.1664 0.442416C12.1664 0.221208 11.9452 0 11.724 0H5.97257C5.75136 0 5.53015 0.221208 5.53015 0.442416V4.64537H12.1664V0.442416Z" fill="#212528"/>
<path d="M5.53015 4.64537V5.08779C5.53015 5.309 5.75136 5.5302 5.97257 5.5302H11.724C11.9452 5.5302 12.1664 5.309 12.1664 5.08779V4.64537H5.53015Z" fill="#DDDDDD"/>
<path d="M7.96345 5.75141C7.96345 6.19383 7.52103 6.19383 7.07861 6.19383H10.6179C10.1755 6.19383 9.73311 6.19383 9.73311 5.75141V5.5302H7.96345V5.75141Z" fill="#BFBEBE"/>
<path d="M5.97266 0.442413H11.7241V4.20295H5.97266V0.442413Z" fill="#3E4347"/>
<path d="M8.84827 5.18733C8.90936 5.18733 8.95888 5.13781 8.95888 5.07673C8.95888 5.01564 8.90936 4.96613 8.84827 4.96613C8.78719 4.96613 8.73767 5.01564 8.73767 5.07673C8.73767 5.13781 8.78719 5.18733 8.84827 5.18733Z" fill="#94989B"/>
<path d="M7.07861 6.19383H10.6179V6.63625H7.07861V6.19383Z" fill="#94989B"/>
<path d="M6.63625 10.9498C6.63625 10.7286 6.41504 10.5074 6.19383 10.5074H0.442416C0.221208 10.5074 0 10.7286 0 10.9498V15.1528H6.63625V10.9498Z" fill="#212528"/>
<path d="M0 15.1528V15.5952C0 15.8164 0.221208 16.0376 0.442416 16.0376H6.19383C6.41504 16.0376 6.63625 15.8164 6.63625 15.5952V15.1528H0Z" fill="#DDDDDD"/>
<path d="M2.43329 16.2588C2.43329 16.7012 1.99088 16.7012 1.54846 16.7012H5.08779C4.64538 16.7012 4.20296 16.7012 4.20296 16.2588V16.0376H2.43329V16.2588Z" fill="#BFBEBE"/>
<path d="M0.442383 10.9498H6.1938V14.7103H0.442383V10.9498Z" fill="#3E4347"/>
<path d="M3.31812 15.6947C3.37921 15.6947 3.42873 15.6452 3.42873 15.5841C3.42873 15.523 3.37921 15.4735 3.31812 15.4735C3.25704 15.4735 3.20752 15.523 3.20752 15.5841C3.20752 15.6452 3.25704 15.6947 3.31812 15.6947Z" fill="#94989B"/>
<path d="M1.54846 16.7012H5.08779V17.1436H1.54846V16.7012Z" fill="#94989B"/>
<path d="M17.1437 10.9498C17.1437 10.7286 16.9225 10.5074 16.7013 10.5074H10.9499C10.7287 10.5074 10.5074 10.7286 10.5074 10.9498V15.1528H17.1437V10.9498Z" fill="#212528"/>
<path d="M10.5074 15.1528V15.5952C10.5074 15.8164 10.7287 16.0376 10.9499 16.0376H16.7013C16.9225 16.0376 17.1437 15.8164 17.1437 15.5952V15.1528H10.5074Z" fill="#DDDDDD"/>
<path d="M12.9406 16.2588C12.9406 16.7012 12.4982 16.7012 12.0558 16.7012H15.5951C15.1527 16.7012 14.7103 16.7012 14.7103 16.2588V16.0376H12.9406V16.2588Z" fill="#BFBEBE"/>
<path d="M10.9498 10.9498H16.7012V14.7103H10.9498V10.9498Z" fill="#3E4347"/>
<path d="M13.8254 15.6947C13.8865 15.6947 13.9361 15.6452 13.9361 15.5841C13.9361 15.523 13.8865 15.4735 13.8254 15.4735C13.7644 15.4735 13.7148 15.523 13.7148 15.5841C13.7148 15.6452 13.7644 15.6947 13.8254 15.6947Z" fill="#94989B"/>
<path d="M12.0558 16.7012H15.5951V17.1436H12.0558V16.7012Z" fill="#94989B"/>
<path d="M6.91272 12.9407L8.19849 14.2679V13.3223H8.94507V14.2679L10.2308 12.9407L8.94507 11.6134V12.5591H8.19849V11.6134L6.91272 12.9407Z" fill="#F2B200"/>
<path d="M10.9236 7.63879L10.8942 9.48647L11.5629 8.81779L12.0908 9.3457L11.4221 10.0144L13.2698 9.98505L13.2991 8.13737L12.6305 8.80605L12.1026 8.27814L12.7712 7.60946L10.9236 7.63879Z" fill="#F2B200"/>
<path d="M3.92386 9.94595L5.77154 9.97528L5.10286 9.3066L5.63077 8.77869L6.29945 9.44737L6.27013 7.59969L4.42244 7.57036L5.09113 8.23904L4.56322 8.76695L3.89453 8.09827L3.92386 9.94595Z" fill="#F2B200"/>
</svg>
