<svg width="18" height="18" viewBox="0 0 18 18" fill="none" xmlns="http://www.w3.org/2000/svg">
<path d="M17.1437 15.2941C17.1437 16.3229 14.5718 16.2657 14.5718 16.2657L7.39918 14.4654C6.88481 14.3511 6.48474 13.8082 6.48474 13.2366V7.12132L17.1437 7.72142V15.2941Z" fill="#5F6262"/>
<path d="M16.6293 3.23494L16.2292 3.17778L14.2289 4.14938L13.9431 16.7515C15.6005 15.3513 17.1437 15.3227 17.1437 15.3227V4.34941C17.1437 3.89219 16.9436 3.49212 16.6293 3.23494Z" fill="#343434"/>
<path d="M14.3431 15.6085C14.3431 16.6372 13.6001 17.2945 12.7143 17.0945L1.51234 14.3511C0.855084 14.1797 0.312134 13.351 0.312134 12.4937V3.26351L14.3431 4.17795V15.6085Z" fill="#5F6262"/>
<path d="M14.5432 8.72159C14.5432 9.75034 13.686 10.5219 12.8001 10.3504L1.56959 8.49298C0.912335 8.37867 0.369385 7.57854 0.369385 6.72125L0.740877 2.94917L14.6004 4.06365L14.5432 8.72159Z" fill="#343434"/>
<path d="M0.740827 2.69199C-0.316497 3.40639 -0.316497 7.80715 1.22662 7.80715L12.4571 9.5503C13.343 9.69319 14.086 8.9502 14.086 7.92145C14.086 7.92145 13.7431 4.57802 14.3717 4.14938L14.8861 3.92077L0.740827 2.69199Z" fill="#5F6262"/>
<path d="M8.28493 7.00701L5.25584 6.60694L4.71289 8.72159L5.25584 10.2933L8.28493 10.8362V7.00701Z" fill="#65562D"/>
<path d="M5.25584 6.60694L4.71289 8.72159L7.74198 9.17881L8.28493 7.00701L5.25584 6.60694Z" fill="#F8ECC5"/>
<path d="M5.25584 10.2933L8.28493 10.8362L7.74198 9.17881L4.71289 8.72159L5.25584 10.2933Z" fill="#BFAE6E"/>
<path d="M15.6291 2.89202L5.3702 1.97758L1.48382 2.4348L1.31236 2.46337C1.11233 2.49195 0.912291 2.57768 0.769409 2.69199L14.4003 4.17795L15.8291 3.54927C17.0008 2.97775 17.1436 4.0065 17.1436 4.0065C16.9722 3.09205 16.1435 2.94917 15.6291 2.89202Z" fill="#919193"/>
<path d="M4.7701 2.32049C4.7701 1.09171 5.74169 1.03456 5.9703 0.948831C6.17034 0.891679 6.31322 0.691645 6.25606 0.520187C6.19891 0.348729 5.99888 0.320152 5.79884 0.320152C5.14159 0.320152 3.99854 0.605916 3.99854 2.32049C4.02711 2.52053 4.7701 2.52053 4.7701 2.32049Z" fill="#BFAE6E"/>
<path d="M4.62717 2.23477C4.59859 2.06331 4.59859 1.89185 4.65574 1.72039C4.68432 1.54893 4.77005 1.37748 4.88436 1.26317C4.99866 1.12029 5.17012 1.03456 5.313 0.977407C5.48446 0.920254 5.65592 0.891678 5.82737 0.891678C5.65592 0.948831 5.51303 1.00598 5.37015 1.06314C5.22727 1.14886 5.08439 1.23459 4.99866 1.3489C4.77005 1.57751 4.68432 1.89185 4.62717 2.23477Z" fill="#65562D"/>
<path d="M11.9141 1.37748C11.8856 1.86327 11.4569 2.23477 10.9711 2.17761L5.68449 1.74897C5.19869 1.72039 4.8272 1.29175 4.88435 0.805949C4.91293 0.320152 5.34157 -0.0513407 5.82737 0.00581199L11.0854 0.434457C11.5998 0.463033 11.9713 0.891678 11.9141 1.37748Z" fill="#5F6262"/>
<path d="M11.9141 1.37748C11.8856 1.69182 11.4855 1.89185 10.9997 1.8347L5.71307 1.40605C5.22727 1.37748 4.85578 1.09171 4.88436 0.777373C4.91293 0.463034 5.313 0.262999 5.7988 0.291576L11.0568 0.72022C11.5712 0.805949 11.9427 1.06314 11.9141 1.37748Z" fill="#343434"/>
<path d="M11.9998 3.14921C11.9998 2.40622 11.4569 1.949 11.1425 1.80612C10.6567 1.60609 11.0568 0.748796 11.514 0.977407C12.0856 1.23459 12.8571 2.03473 12.8571 3.14921C12.8857 3.40639 11.9998 3.40639 11.9998 3.14921Z" fill="#BFAE6E"/>
<path d="M12.1142 3.14921C12.057 2.80629 11.9713 2.49195 11.7713 2.23477C11.5998 1.97758 11.3712 1.72039 11.0854 1.54893C11.2569 1.57751 11.3998 1.66324 11.5427 1.77755C11.6856 1.89185 11.7999 2.00616 11.8856 2.14904C12.0856 2.46338 12.1714 2.80629 12.1142 3.14921Z" fill="#65562D"/>
</svg>
