<svg width="34" height="32" viewBox="0 0 34 32" fill="none" xmlns="http://www.w3.org/2000/svg">
<g id="liked" clip-path="url(#clip0_663_4877)">
<g id="Rectangle 41">
<rect x="0.162598" width="33.1947" height="32" rx="16" fill="#F8F8F8"/>
<rect x="0.662598" y="0.5" width="32.1947" height="31" rx="15.5" stroke="white" stroke-opacity="0.05"/>
</g>
<path id="Vector" d="M25.6441 12.2789C25.3544 11.6372 24.9366 11.0558 24.4143 10.5671C23.8915 10.0769 23.2751 9.6874 22.5987 9.41969C21.8973 9.141 21.145 8.99834 20.3855 9.00001C19.3199 9.00001 18.2803 9.27911 17.3769 9.80629C17.1607 9.9324 16.9554 10.0709 16.7609 10.2218C16.5664 10.0709 16.361 9.9324 16.1449 9.80629C15.2415 9.27911 14.2018 9.00001 13.1363 9.00001C12.369 9.00001 11.6255 9.1406 10.9231 9.41969C10.2444 9.68845 9.63274 10.0751 9.10753 10.5671C8.58447 11.0552 8.16664 11.6368 7.87771 12.2789C7.57728 12.9466 7.42383 13.6558 7.42383 14.3855C7.42383 15.074 7.5708 15.7914 7.86258 16.5211C8.10682 17.131 8.45696 17.7636 8.90436 18.4025C9.61328 19.4134 10.5881 20.4678 11.7984 21.5366C13.8042 23.3084 15.7904 24.5323 15.8747 24.5819L16.387 24.8961C16.6139 25.0346 16.9057 25.0346 17.1326 24.8961L17.6449 24.5819C17.7292 24.5302 19.7133 23.3084 21.7212 21.5366C22.9316 20.4678 23.9063 19.4134 24.6153 18.4025C25.0627 17.7636 25.415 17.131 25.657 16.5211C25.9488 15.7914 26.0958 15.074 26.0958 14.3855C26.098 13.6558 25.9445 12.9466 25.6441 12.2789Z" fill="#FF678B"/>
</g>
<defs>
<clipPath id="clip0_663_4877">
<rect width="33.1947" height="32" fill="white" transform="translate(0.162598)"/>
</clipPath>
</defs>
</svg>
