<svg width="14" height="15" viewBox="0 0 14 15" fill="none" xmlns="http://www.w3.org/2000/svg">
<g id="map-pin">
<path id="Vector" d="M11.2069 6.44827C11.2069 9.16081 8.75742 11.6012 7.29926 12.8136C6.67842 13.3298 5.80437 13.3298 5.18354 12.8136C3.72537 11.6012 1.27588 9.16081 1.27588 6.44827C1.27588 5.13134 1.79903 3.86834 2.73025 2.93712C3.66146 2.00591 4.92446 1.48276 6.2414 1.48276C7.55833 1.48276 8.82133 2.00591 9.75255 2.93712C10.6838 3.86834 11.2069 5.13134 11.2069 6.44827Z" fill="#716E90"/>
<path id="Vector_2" d="M6.24135 8.10345C7.15548 8.10345 7.89653 7.36241 7.89653 6.44828C7.89653 5.53415 7.15548 4.79311 6.24135 4.79311C5.32723 4.79311 4.58618 5.53415 4.58618 6.44828C4.58618 7.36241 5.32723 8.10345 6.24135 8.10345Z" fill="white"/>
</g>
</svg>
