<svg width="12" height="19" viewBox="0 0 12 19" fill="none" xmlns="http://www.w3.org/2000/svg">
<path d="M0.300049 8.10739H11.1V8.41921H0.300049V8.10739Z" fill="#3E4347"/>
<path d="M9.8999 7.01601V11.5998C9.8999 14.8739 7.8899 16.246 5.6999 16.246C3.5099 16.246 1.4999 14.8739 1.4999 11.5998V7.01601H0.899902V11.5374C0.899902 15.2793 3.2099 16.8384 5.6999 16.8384C8.1899 16.8384 10.4999 15.2793 10.4999 11.5374V7.01601H9.8999ZM5.0999 16.8384H6.2999V18.0857H5.0999V16.8384Z" fill="#94989B"/>
<path d="M2.3999 7.17192V11.2256C2.3999 13.1589 3.8399 14.6557 5.6999 14.6557C7.5599 14.6557 8.9999 13.1589 8.9999 11.2256V7.17192H2.3999ZM4.7999 15.5911H6.5999V17.1502H4.7999V15.5911Z" fill="#3E4347"/>
<path d="M5.6999 0C3.8399 0 2.3999 1.18493 2.3999 3.11823V7.17192H8.9999V3.11823C8.9999 1.18493 7.5599 0 5.6999 0Z" fill="#94989B"/>
<path d="M5.69992 0.249466C3.98992 0.249466 2.66992 1.40321 2.66992 3.27415V7.17193H8.72992V3.27415C8.72992 1.40321 7.40992 0.249466 5.69992 0.249466Z" fill="#D0D0D0"/>
<path d="M9.9 18.7094H1.5C1.5 18.7094 3.39 17.7739 5.7 17.7739C8.01 17.7739 9.9 18.7094 9.9 18.7094Z" fill="#3E4347"/>
<path d="M2.1001 7.17192H9.3001V9.35468H2.1001V7.17192Z" fill="#B0B8B8"/>
<path d="M1.8 7.01601H9.6V7.63965H1.8V7.01601ZM1.8 7.95147H9.6V8.57512H1.8V7.95147ZM1.8 8.88694H9.6V9.51059H1.8V8.88694ZM0 7.32783H0.6V9.19877H0V7.32783ZM10.8 7.32783H11.4V9.19877H10.8V7.32783Z" fill="#3E4347"/>
<path d="M3.69013 6.39236C3.69013 6.61064 3.51013 6.76655 3.30013 6.76655C3.09013 6.76655 2.91013 6.61064 2.91013 6.42355C2.91013 6.23645 3.09013 6.08054 3.30013 6.04936C3.51013 6.04936 3.69013 6.20527 3.69013 6.39236ZM5.31013 6.39236C5.31013 6.61064 5.13013 6.79773 4.92013 6.79773C4.71013 6.79773 4.53013 6.61064 4.50013 6.39236C4.50013 6.17409 4.68013 5.98699 4.89013 5.98699C5.10013 5.98699 5.31013 6.14291 5.31013 6.39236ZM6.90013 6.39236C6.90013 6.61064 6.72013 6.79773 6.48013 6.79773C6.27013 6.79773 6.09013 6.61064 6.09013 6.39236C6.09013 6.17409 6.27013 5.98699 6.51013 5.98699C6.72013 5.98699 6.90013 6.17409 6.90013 6.39236ZM8.52013 6.42355C8.52013 6.61064 8.34013 6.76655 8.13013 6.76655C7.92013 6.76655 7.74013 6.61064 7.74013 6.39236C7.74013 6.17409 7.92013 6.01818 8.13013 6.04936C8.34013 6.08054 8.52013 6.23645 8.52013 6.42355ZM3.66013 4.42788C3.66013 4.64616 3.48013 4.83325 3.27013 4.86443C3.06013 4.89561 2.88013 4.80207 2.88013 4.61497C2.88013 4.42788 3.06013 4.2096 3.27013 4.14724C3.48013 4.08488 3.66013 4.2096 3.66013 4.42788ZM5.28013 4.24079C5.28013 4.45906 5.10013 4.64616 4.86013 4.67734C4.62013 4.67734 4.44013 4.52143 4.44013 4.30315C4.44013 4.08488 4.62013 3.89778 4.86013 3.8666C5.10013 3.83542 5.28013 3.99133 5.28013 4.24079ZM6.93013 4.30315C6.93013 4.52143 6.75013 4.67734 6.51013 4.67734C6.27013 4.67734 6.09013 4.49025 6.09013 4.24079C6.09013 4.02251 6.27013 3.83542 6.51013 3.8666C6.75013 3.8666 6.93013 4.08488 6.93013 4.30315ZM8.52013 4.61497C8.52013 4.80207 8.34013 4.9268 8.13013 4.86443C7.92013 4.83325 7.74013 4.61497 7.74013 4.42788C7.74013 4.2096 7.92013 4.08488 8.13013 4.14724C8.34013 4.2096 8.52013 4.42788 8.52013 4.61497ZM4.47013 5.33217C4.47013 5.55044 4.29013 5.73754 4.08013 5.73754C3.87013 5.73754 3.69013 5.61281 3.66013 5.39453C3.63013 5.17625 3.84013 4.98916 4.05013 4.95798C4.29013 4.95798 4.47013 5.11389 4.47013 5.33217ZM6.12013 5.30098C6.12013 5.51926 5.94013 5.70635 5.70013 5.70635C5.49013 5.70635 5.28013 5.51926 5.28013 5.30098C5.28013 5.08271 5.46013 4.89561 5.70013 4.89561C5.94013 4.89561 6.12013 5.08271 6.12013 5.30098ZM7.71013 5.42571C7.71013 5.64399 7.53013 5.76872 7.29013 5.76872C7.08013 5.76872 6.90013 5.58162 6.90013 5.36335C6.90013 5.14507 7.08013 4.98916 7.32013 5.02034C7.56013 5.02034 7.74013 5.20744 7.71013 5.42571ZM4.44013 3.24295C4.44013 3.46123 4.26013 3.64832 4.05013 3.71069C3.84013 3.74187 3.66013 3.61714 3.66013 3.43005C3.66013 3.21177 3.84013 2.9935 4.05013 2.93113C4.26013 2.86877 4.44013 3.02468 4.44013 3.24295ZM6.12013 3.14941C6.12013 3.36768 5.94013 3.55478 5.70013 3.55478C5.46013 3.55478 5.28013 3.39887 5.28013 3.14941C5.28013 2.93113 5.46013 2.74404 5.70013 2.74404C5.94013 2.74404 6.12013 2.93113 6.12013 3.14941ZM7.74013 3.43005C7.74013 3.64832 7.56013 3.74187 7.35013 3.71069C7.14013 3.67951 6.96013 3.46123 6.96013 3.24295C6.96013 3.02468 7.14013 2.86877 7.38013 2.93113C7.59013 2.9935 7.77013 3.21177 7.74013 3.43005ZM3.63013 2.43222C3.63013 2.65049 3.45013 2.86877 3.24013 2.96231C3.03013 3.05586 2.88013 2.9935 2.88013 2.77522C2.88013 2.58813 3.03013 2.33867 3.24013 2.21394C3.45013 2.12039 3.63013 2.21394 3.63013 2.43222ZM5.28013 2.08921C5.28013 2.30749 5.10013 2.49458 4.86013 2.52576C4.62013 2.55694 4.44013 2.40103 4.44013 2.21394C4.44013 1.99566 4.62013 1.77739 4.86013 1.74621C5.07013 1.68384 5.28013 1.87093 5.28013 2.08921ZM6.96013 2.18276C6.96013 2.40103 6.78013 2.52576 6.54013 2.49458C6.30013 2.49458 6.12013 2.30749 6.12013 2.08921C6.12013 1.87093 6.30013 1.68384 6.54013 1.74621C6.78013 1.74621 6.96013 1.96448 6.96013 2.18276ZM8.52013 2.77522C8.52013 2.96231 8.37013 3.02468 8.16013 2.96231C7.95013 2.86877 7.77013 2.65049 7.77013 2.43222C7.77013 2.21394 7.95013 2.12039 8.16013 2.24512C8.34013 2.33867 8.52013 2.58813 8.52013 2.77522ZM4.41013 1.15374C4.41013 1.37202 4.23013 1.59029 4.02013 1.65266C3.81013 1.71502 3.63013 1.62148 3.63013 1.43438C3.63013 1.21611 3.81013 0.966649 4.02013 0.904284C4.23013 0.810737 4.41013 0.935466 4.41013 1.15374ZM6.12013 0.997831C6.12013 1.21611 5.94013 1.37202 5.70013 1.37202C5.46013 1.37202 5.28013 1.21611 5.28013 0.997831C5.28013 0.779555 5.46013 0.561279 5.70013 0.561279C5.94013 0.592462 6.12013 0.779555 6.12013 0.997831ZM7.77013 1.43438C7.77013 1.65266 7.59013 1.71502 7.38013 1.65266C7.17013 1.59029 6.96013 1.37202 6.99013 1.15374C6.99013 0.935466 7.17013 0.810737 7.41013 0.904284C7.62013 0.966649 7.77013 1.21611 7.77013 1.43438Z" fill="#94989B"/>
</svg>
