<svg width="36" height="36" viewBox="0 0 36 36" fill="none" xmlns="http://www.w3.org/2000/svg">
<g id="nature">
<g id="&#240;&#159;&#166;&#134; emoji &#34;badminton racquet&#34;">
<path id="Vector" d="M24.5142 24.805C24.7098 25.0006 24.7098 25.318 24.5142 25.514C24.3181 25.7096 24.0008 25.7096 23.8052 25.514L16.8945 18.6028C16.6989 18.4072 16.6989 18.0898 16.8945 17.8943C17.09 17.6987 17.4069 17.6987 17.6029 17.8943L24.5142 24.805Z" fill="#55ACEE"/>
<path id="Vector_2" d="M27.1636 27.0774C27.4636 27.3774 27.4636 27.8637 27.1636 28.1632C26.8641 28.4631 26.3778 28.4631 26.0779 28.1632L23.1825 25.2678C22.8825 24.9678 22.8825 24.4815 23.1825 24.1821C23.482 23.8821 23.9683 23.8821 24.2683 24.1821L27.1636 27.0774Z" fill="#292F33"/>
<g id="Group">
<path id="Vector_3" d="M10.2126 12.6216L10.5746 12.2597L16.7297 18.4113L16.3678 18.7732L10.2126 12.6216ZM10.938 11.1729L11.2999 10.811L17.8155 17.3266L17.4531 17.6885L10.938 11.1729Z" fill="#99AAB5"/>
<path id="Vector_4" d="M9.48975 14.7926L13.8333 10.4491L14.1952 10.811L9.85166 15.1546L9.48975 14.7926ZM9.85166 16.6022L15.282 11.1729L15.6439 11.5349L10.2136 16.9647L9.85166 16.6022ZM10.9379 17.6885L16.7291 11.8973L17.0911 12.2592L11.2999 18.0504L10.9379 17.6885ZM12.3856 18.4129L17.453 13.345L17.8149 13.7069L12.747 18.7748L12.3856 18.4129ZM13.8333 19.1362L18.1768 14.7926L18.5387 15.1546L14.1952 19.4986L13.8333 19.1362Z" fill="#99AAB5"/>
<path id="Vector_5" d="M9.48975 14.0688L9.85166 13.7069L15.282 19.1362L14.9201 19.4981L9.48975 14.0688ZM12.748 10.811L13.1094 10.4491L18.5392 15.8784L18.1773 16.2408L12.748 10.811Z" fill="#99AAB5"/>
</g>
<path id="Vector_6" d="M10.2232 11.2231C8.44634 13.0005 8.62654 16.0617 10.6255 18.0607C12.625 20.0602 15.6857 20.2399 17.4626 18.463C19.2399 16.6857 19.0602 13.6255 17.0602 11.626C15.0612 9.62648 12.0005 9.44629 10.2232 11.2231ZM16.7991 17.7991C15.4001 19.1981 12.9419 19.0092 11.3089 17.3768C9.67646 15.7443 9.48808 13.2866 10.8871 11.8871C12.2867 10.4875 14.7443 10.6769 16.3768 12.3094C18.0093 13.9419 18.1987 16.4 16.7991 17.7991Z" fill="#55ACEE"/>
<g id="Group_2">
<path id="Vector_7" d="M17.8149 17.3266C18.015 17.5268 18.0145 17.8508 17.8149 18.0504L17.0905 18.7748C16.8909 18.9744 16.5668 18.9749 16.3667 18.7748C16.1665 18.5746 16.1665 18.2506 16.3667 18.0504L17.0905 17.3266C17.2907 17.1264 17.6147 17.1264 17.8149 17.3266Z" fill="#226699"/>
<path id="Vector_8" d="M18.1766 18.4123C18.3768 18.6125 18.3768 18.9365 18.1766 19.1367C17.9764 19.3368 17.6524 19.3368 17.4528 19.1367L17.0908 18.7748C16.8907 18.5746 16.8912 18.2506 17.0908 18.0504C17.291 17.8503 17.6145 17.8503 17.8152 18.0504L18.1766 18.4123Z" fill="#226699"/>
</g>
<path id="Vector_9" d="M24.0917 24.0065C24.3917 24.306 24.0293 24.4304 23.7298 24.7303C23.4298 25.0298 23.3055 25.3917 23.006 25.0922C22.706 24.7923 22.706 24.306 23.006 24.0065C23.3055 23.7065 23.7923 23.7065 24.0917 24.0065Z" fill="#226699"/>
<path id="Vector_10" d="M20.1246 11.5886C19.7248 11.9884 19.7248 12.6365 20.1246 13.0363L20.4865 13.3982L20.8484 13.0363L21.5722 12.3125L21.9352 11.9505L21.5722 11.5886C21.1735 11.1888 20.5249 11.1888 20.1246 11.5886Z" fill="#BE1931"/>
<path id="Vector_11" d="M20.488 13.3977L21.9367 11.95L22.2987 12.3119L20.85 13.7601L20.488 13.3977Z" fill="#99AAB5"/>
<path id="Vector_12" d="M20.8489 13.7601L22.2976 12.3125C23.0516 12.5623 26.9687 14.9073 26.8336 15.043C26.4456 15.4315 25.8548 15.1459 25.8548 15.1459C25.8548 15.1459 26.2869 15.5585 25.9147 15.9301C25.5426 16.3018 25.131 15.8697 25.131 15.8697C25.131 15.8697 25.627 16.249 25.2073 16.6703C24.7844 17.0932 24.4077 16.594 24.4077 16.594C24.4077 16.594 24.7808 17.0962 24.4578 17.4198C24.1338 17.7428 23.6828 17.3179 23.6828 17.3179C23.6828 17.3179 23.8968 17.8288 23.5077 18.2168C23.3224 18.4031 21.1483 14.4645 20.8489 13.7601Z" fill="#E1E8ED"/>
<path id="Vector_13" d="M22.4813 13.9644C22.7771 13.6148 25.2619 15.8723 24.8258 16.3084C24.3891 16.7441 22.1255 14.3842 22.4813 13.9644ZM23.3541 17.7771C23.7022 17.5503 21.7815 14.7998 21.5445 14.999C21.5286 15.0123 21.5214 15.0358 21.5173 15.0635C21.9693 15.8958 22.5442 16.9033 22.963 17.5549C23.135 17.73 23.2783 17.8262 23.3541 17.7771ZM23.4933 13.0506C23.2931 13.2871 26.0446 15.2078 26.2714 14.8602C26.3303 14.7691 26.1844 14.5833 25.9356 14.3637C25.3136 13.9634 24.4736 13.4591 23.7421 13.0476C23.6192 13.0143 23.5281 13.0097 23.4933 13.0506ZM21.9632 14.5142C22.1813 14.2946 24.339 16.8633 24.0119 17.1213C23.6853 17.3773 21.7006 14.7788 21.9632 14.5142ZM23.008 13.4694C22.7889 13.6875 25.3577 15.8446 25.6146 15.518C25.8716 15.1909 23.2732 13.2063 23.008 13.4694Z" fill="#CCD6DD"/>
</g>
</g>
</svg>
