<svg width="19" height="19" viewBox="0 0 19 19" fill="none" xmlns="http://www.w3.org/2000/svg">
<g clip-path="url(#clip0_616_2046)">
<path d="M13.1665 1.44237C13.1665 1.22116 12.9453 0.999954 12.7241 0.999954H6.97269C6.75148 0.999954 6.53027 1.22116 6.53027 1.44237V5.64533H13.1665V1.44237Z" fill="#212528"/>
<path d="M6.53027 5.64532V6.08774C6.53027 6.30895 6.75148 6.53016 6.97269 6.53016H12.7241C12.9453 6.53016 13.1665 6.30895 13.1665 6.08774V5.64532H6.53027Z" fill="#DDDDDD"/>
<path d="M8.96369 6.75136C8.96369 7.19378 8.52127 7.19378 8.07886 7.19378H11.6182C11.1758 7.19378 10.7334 7.19378 10.7334 6.75136V6.53015H8.96369V6.75136Z" fill="#BFBEBE"/>
<path d="M6.97266 1.44237H12.7241V5.20291H6.97266V1.44237Z" fill="#3E4347"/>
<path d="M9.84864 6.18729C9.90973 6.18729 9.95925 6.13777 9.95925 6.07668C9.95925 6.0156 9.90973 5.96608 9.84864 5.96608C9.78756 5.96608 9.73804 6.0156 9.73804 6.07668C9.73804 6.13777 9.78756 6.18729 9.84864 6.18729Z" fill="#94989B"/>
<path d="M8.07886 7.19379H11.6182V7.6362H8.07886V7.19379Z" fill="#94989B"/>
<path d="M7.63625 11.9498C7.63625 11.7285 7.41504 11.5073 7.19383 11.5073H1.44242C1.22121 11.5073 1 11.7285 1 11.9498V16.1527H7.63625V11.9498Z" fill="#212528"/>
<path d="M1 16.1527V16.5951C1 16.8163 1.22121 17.0375 1.44242 17.0375H7.19383C7.41504 17.0375 7.63625 16.8163 7.63625 16.5951V16.1527H1Z" fill="#DDDDDD"/>
<path d="M3.43317 17.2587C3.43317 17.7012 2.99076 17.7012 2.54834 17.7012H6.08767C5.64525 17.7012 5.20284 17.7012 5.20284 17.2587V17.0375H3.43317V17.2587Z" fill="#BFBEBE"/>
<path d="M1.44238 11.9498H7.1938V15.7103H1.44238V11.9498Z" fill="#3E4347"/>
<path d="M4.31788 16.6947C4.37896 16.6947 4.42848 16.6452 4.42848 16.5841C4.42848 16.523 4.37896 16.4735 4.31788 16.4735C4.25679 16.4735 4.20728 16.523 4.20728 16.5841C4.20728 16.6452 4.25679 16.6947 4.31788 16.6947Z" fill="#94989B"/>
<path d="M2.54834 17.7012H6.08767V18.1436H2.54834V17.7012Z" fill="#94989B"/>
<path d="M18.1436 11.9498C18.1436 11.7285 17.9224 11.5073 17.7012 11.5073H11.9497C11.7285 11.5073 11.5073 11.7285 11.5073 11.9498V16.1527H18.1436V11.9498Z" fill="#212528"/>
<path d="M11.5073 16.1527V16.5951C11.5073 16.8163 11.7285 17.0375 11.9497 17.0375H17.7012C17.9224 17.0375 18.1436 16.8163 18.1436 16.5951V16.1527H11.5073Z" fill="#DDDDDD"/>
<path d="M13.9405 17.2587C13.9405 17.7012 13.4981 17.7012 13.0557 17.7012H16.595C16.1526 17.7012 15.7102 17.7012 15.7102 17.2587V17.0375H13.9405V17.2587Z" fill="#BFBEBE"/>
<path d="M11.9497 11.9498H17.7011V15.7103H11.9497V11.9498Z" fill="#3E4347"/>
<path d="M14.8254 16.6947C14.8865 16.6947 14.9361 16.6452 14.9361 16.5841C14.9361 16.523 14.8865 16.4735 14.8254 16.4735C14.7644 16.4735 14.7148 16.523 14.7148 16.5841C14.7148 16.6452 14.7644 16.6947 14.8254 16.6947Z" fill="#94989B"/>
<path d="M13.0557 17.7012H16.595V18.1436H13.0557V17.7012Z" fill="#94989B"/>
<path d="M7.91284 13.9406L9.19861 15.2679V14.3222H9.94519V15.2679L11.231 13.9406L9.94519 12.6134V13.5591H9.19861V12.6134L7.91284 13.9406Z" fill="#F2B200"/>
<path d="M11.9236 8.63875L11.8942 10.4864L12.5629 9.81775L13.0908 10.3457L12.4221 11.0143L14.2698 10.985L14.2991 9.13733L13.6305 9.80602L13.1026 9.27811L13.7712 8.60942L11.9236 8.63875Z" fill="#F2B200"/>
<path d="M4.92386 10.9459L6.77154 10.9752L6.10286 10.3065L6.63077 9.77864L7.29945 10.4473L7.27013 8.59964L5.42244 8.57031L6.09113 9.239L5.56322 9.76691L4.89453 9.09822L4.92386 10.9459Z" fill="#F2B200"/>
</g>
<defs>
<clipPath id="clip0_616_2046">
<rect width="17.7335" height="17.7335" fill="white" transform="translate(0.547363 0.417679)"/>
</clipPath>
</defs>
</svg>
