<svg width="304" height="187" viewBox="0 0 304 187" fill="none" xmlns="http://www.w3.org/2000/svg">
<path d="M215.065 1.80576L204.734 18.2037C204.598 18.4177 204.367 18.5377 204.126 18.5377C203.995 18.5377 203.864 18.5012 203.749 18.4281C203.413 18.2193 203.313 17.7757 203.523 17.4417L213.853 1.04379C214.063 0.709782 214.504 0.605403 214.844 0.81938C215.18 1.02814 215.28 1.47175 215.07 1.80576H215.065ZM220.345 0.81938C220.01 0.605403 219.564 0.709782 219.354 1.04379L209.024 17.4417C208.814 17.7757 208.914 18.2141 209.249 18.4281C209.37 18.5012 209.501 18.5377 209.627 18.5377C209.868 18.5377 210.099 18.4177 210.235 18.2037L220.565 1.80576C220.775 1.47175 220.676 1.03336 220.34 0.81938H220.345ZM225.856 0.81938C225.521 0.605403 225.075 0.709782 224.865 1.04379L214.535 17.4417C214.325 17.7757 214.425 18.2141 214.761 18.4281C214.881 18.5012 215.012 18.5377 215.138 18.5377C215.379 18.5377 215.61 18.4177 215.746 18.2037L226.077 1.80576C226.286 1.47175 226.187 1.03336 225.851 0.81938H225.856ZM231.368 0.81938C231.032 0.605403 230.586 0.709782 230.377 1.04379L220.046 17.4417C219.837 17.7757 219.936 18.2141 220.272 18.4281C220.392 18.5012 220.523 18.5377 220.649 18.5377C220.891 18.5377 221.121 18.4177 221.258 18.2037L231.588 1.80576C231.798 1.47175 231.698 1.03336 231.362 0.81938H231.368ZM236.874 0.81938C236.538 0.605403 236.092 0.709782 235.883 1.04379L225.552 17.4417C225.342 17.7757 225.442 18.2141 225.778 18.4281C225.898 18.5012 226.029 18.5377 226.155 18.5377C226.397 18.5377 226.627 18.4177 226.764 18.2037L237.094 1.80576C237.304 1.47175 237.204 1.03336 236.868 0.81938H236.874ZM242.385 0.81938C242.049 0.605403 241.604 0.709782 241.394 1.04379L231.063 17.4417C230.854 17.7757 230.953 18.2141 231.289 18.4281C231.41 18.5012 231.541 18.5377 231.667 18.5377C231.908 18.5377 232.138 18.4177 232.275 18.2037L242.605 1.80576C242.815 1.47175 242.715 1.03336 242.38 0.81938H242.385ZM247.896 0.81938C247.561 0.605403 247.115 0.709782 246.905 1.04379L236.575 17.4417C236.365 17.7757 236.465 18.2141 236.8 18.4281C236.921 18.5012 237.052 18.5377 237.178 18.5377C237.419 18.5377 237.65 18.4177 237.786 18.2037L248.116 1.80576C248.326 1.47175 248.226 1.03336 247.891 0.81938H247.896ZM253.407 0.81938C253.072 0.605403 252.626 0.709782 252.416 1.04379L242.086 17.4417C241.876 17.7757 241.976 18.2141 242.311 18.4281C242.432 18.5012 242.563 18.5377 242.689 18.5377C242.93 18.5377 243.161 18.4177 243.297 18.2037L253.628 1.80576C253.837 1.47175 253.738 1.03336 253.402 0.81938H253.407ZM258.919 0.81938C258.583 0.605403 258.137 0.709782 257.928 1.04379L247.597 17.4417C247.387 17.7757 247.487 18.2141 247.823 18.4281C247.943 18.5012 248.074 18.5377 248.2 18.5377C248.441 18.5377 248.672 18.4177 248.809 18.2037L259.139 1.80576C259.349 1.47175 259.249 1.03336 258.913 0.81938H258.919ZM264.43 0.81938C264.094 0.605403 263.648 0.709782 263.439 1.04379L253.108 17.4417C252.899 17.7757 252.998 18.2141 253.334 18.4281C253.455 18.5012 253.586 18.5377 253.711 18.5377C253.953 18.5377 254.183 18.4177 254.32 18.2037L264.65 1.80576C264.86 1.47175 264.76 1.03336 264.425 0.81938H264.43Z" fill="#037BD1"/>
<path d="M88.5263 0.213984C88.6627 0.339238 88.7309 0.52712 88.7309 0.715002C88.7309 0.814162 88.7099 0.902884 88.6784 0.991606C88.6417 1.08033 88.5893 1.15339 88.5263 1.22124C88.39 1.35693 88.2117 1.42478 88.0124 1.42478C87.9233 1.42478 87.8342 1.4039 87.745 1.37259C87.6559 1.33606 87.5772 1.28387 87.5143 1.22124C87.4409 1.14817 87.3884 1.08033 87.3517 0.991606C87.315 0.902884 87.2993 0.814162 87.2993 0.715002C87.2993 0.52712 87.378 0.349676 87.5143 0.213984C87.5772 0.140919 87.6559 0.0887291 87.745 0.0521965C88.0125 -0.0574014 88.3271 0.00522596 88.5263 0.213984ZM95.2332 0.213984C95.1702 0.140919 95.0916 0.0887291 94.9972 0.0521965C94.735 -0.0574014 94.4151 0.00522596 94.2159 0.213984C94.1425 0.276611 94.09 0.354895 94.0533 0.438398C94.0166 0.52712 94.0009 0.62628 94.0009 0.715002C94.0009 0.902884 94.0795 1.08033 94.2159 1.22124C94.2788 1.28387 94.3575 1.33606 94.4518 1.37259C94.5305 1.40912 94.6301 1.42478 94.7193 1.42478C94.8189 1.42478 94.9081 1.4039 94.9972 1.37259C95.0863 1.33606 95.1598 1.28387 95.2332 1.22124C95.2961 1.14817 95.3485 1.06989 95.3852 0.991606C95.422 0.902884 95.4377 0.814162 95.4377 0.715002C95.4377 0.62628 95.422 0.52712 95.3852 0.438398C95.3485 0.360114 95.2961 0.276611 95.2332 0.213984ZM101.159 0.0521965C101.07 0.0887291 100.991 0.140919 100.928 0.213984C100.855 0.276611 100.813 0.354895 100.776 0.438398C100.729 0.52712 100.723 0.62628 100.723 0.715002C100.723 0.913322 100.797 1.09077 100.928 1.22124C100.991 1.28387 101.07 1.33606 101.159 1.37259C101.237 1.40912 101.337 1.42478 101.426 1.42478C101.526 1.42478 101.615 1.4039 101.704 1.37259C101.793 1.33606 101.867 1.28387 101.935 1.22124C102.071 1.08033 102.139 0.902884 102.139 0.715002C102.139 0.52712 102.066 0.339238 101.935 0.213984C101.735 0.0104449 101.416 -0.0521824 101.153 0.0521965H101.159ZM108.647 0.213984C108.584 0.140919 108.505 0.0887291 108.411 0.0521965C108.149 -0.0574014 107.829 0.00522596 107.63 0.213984C107.556 0.276611 107.514 0.354895 107.477 0.443617C107.43 0.52712 107.415 0.621061 107.415 0.709783C107.415 0.808943 107.43 0.897665 107.467 0.986387C107.504 1.06467 107.556 1.14817 107.63 1.21602C107.766 1.35171 107.944 1.41956 108.133 1.41956C108.322 1.41956 108.51 1.34649 108.647 1.21602C108.783 1.08033 108.851 0.902884 108.851 0.709783C108.851 0.621061 108.836 0.521901 108.799 0.443617C108.762 0.354895 108.71 0.276611 108.647 0.213984ZM114.572 0.0521965C114.483 0.0887291 114.405 0.140919 114.342 0.213984C114.268 0.276611 114.216 0.354895 114.179 0.443617C114.142 0.52712 114.127 0.621061 114.127 0.709783C114.127 0.908103 114.205 1.08555 114.342 1.21602C114.405 1.27865 114.483 1.33084 114.572 1.36737C114.651 1.4039 114.751 1.41956 114.84 1.41956C114.939 1.41956 115.029 1.39868 115.118 1.36737C115.207 1.33084 115.28 1.27865 115.348 1.21602C115.411 1.14296 115.464 1.07511 115.5 0.986387C115.537 0.897665 115.553 0.808943 115.553 0.709783C115.553 0.521901 115.48 0.344457 115.348 0.208765C115.144 0.00522598 114.829 -0.0574014 114.567 0.0469775L114.572 0.0521965ZM121.043 1.22124C121.106 1.28387 121.185 1.33606 121.279 1.37259C121.358 1.40912 121.457 1.42478 121.547 1.42478C121.646 1.42478 121.735 1.4039 121.825 1.37259C121.914 1.33606 121.987 1.28387 122.06 1.22124C122.123 1.14817 122.176 1.06989 122.213 0.991606C122.249 0.902884 122.275 0.814162 122.275 0.715002C122.275 0.52712 122.197 0.349676 122.06 0.203546C121.793 -0.0574014 121.316 -0.0574014 121.048 0.203546C120.912 0.344457 120.833 0.52712 120.833 0.715002C120.833 0.814162 120.849 0.902884 120.886 0.991606C120.923 1.06989 120.975 1.15339 121.048 1.22124H121.043ZM87.745 6.72723C87.6559 6.76376 87.5772 6.81595 87.5143 6.88901C87.378 7.02471 87.2993 7.20215 87.2993 7.39003C87.2993 7.48919 87.3203 7.57791 87.3517 7.66664C87.3884 7.75536 87.4409 7.82842 87.5143 7.89627C87.5772 7.9589 87.6559 8.01109 87.745 8.04762C87.8342 8.08415 87.9233 8.09981 88.0124 8.09981C88.2117 8.09981 88.39 8.02674 88.5263 7.89627C88.5893 7.8232 88.6417 7.75536 88.6784 7.66664C88.7151 7.57791 88.7309 7.48919 88.7309 7.39003C88.7309 7.20215 88.6574 7.01427 88.5263 6.88901C88.3271 6.68547 88.0125 6.62285 87.745 6.72723ZM94.4518 6.72723C94.3627 6.76376 94.2788 6.81595 94.2159 6.88901C94.0795 7.01427 94.0009 7.20215 94.0009 7.39003C94.0009 7.57791 94.0795 7.75536 94.2159 7.89627C94.3522 8.03196 94.5305 8.09981 94.7193 8.09981C94.8189 8.09981 94.9081 8.08415 94.9972 8.04762C95.0863 8.01109 95.1598 7.9589 95.2332 7.89627C95.2961 7.8232 95.3485 7.74492 95.3852 7.66664C95.422 7.57791 95.4377 7.48919 95.4377 7.39003C95.4377 7.20215 95.3643 7.02471 95.2332 6.88901C95.0339 6.68547 94.714 6.62285 94.4518 6.72723ZM101.159 6.72723C101.07 6.76376 100.991 6.81595 100.928 6.88901C100.855 6.95164 100.813 7.02993 100.776 7.11865C100.729 7.19693 100.723 7.29609 100.723 7.38481C100.723 7.58313 100.797 7.76058 100.928 7.89105C100.991 7.95368 101.07 8.00587 101.159 8.0424C101.237 8.07893 101.337 8.09459 101.426 8.09459C101.625 8.09459 101.804 8.02152 101.94 7.89105C102.003 7.81799 102.055 7.7397 102.092 7.66142C102.129 7.5727 102.145 7.48397 102.145 7.38481C102.145 7.19693 102.071 7.01949 101.94 6.88379C101.741 6.68026 101.421 6.61763 101.159 6.72201V6.72723ZM107.63 6.88901C107.493 7.02471 107.415 7.20215 107.415 7.39003C107.415 7.57791 107.493 7.7658 107.63 7.89627C107.766 8.03196 107.944 8.09981 108.133 8.09981C108.322 8.09981 108.51 8.02674 108.647 7.89627C108.783 7.76058 108.851 7.58313 108.851 7.39003C108.851 7.19693 108.778 7.01427 108.647 6.88901C108.379 6.62285 107.892 6.62285 107.635 6.88901H107.63ZM115.348 6.88901C115.149 6.68547 114.829 6.62285 114.567 6.72723C114.478 6.76376 114.399 6.81595 114.336 6.88901C114.2 7.01427 114.121 7.20215 114.121 7.39003C114.121 7.48919 114.142 7.57791 114.174 7.66664C114.211 7.74492 114.263 7.82842 114.336 7.89627C114.399 7.9589 114.478 8.01109 114.567 8.04762C114.646 8.08415 114.745 8.09981 114.835 8.09981C114.934 8.09981 115.023 8.08415 115.112 8.04762C115.202 8.01109 115.275 7.9589 115.343 7.89627C115.48 7.75536 115.548 7.5727 115.548 7.39003C115.548 7.30131 115.527 7.20215 115.495 7.11343C115.459 7.02993 115.406 6.95164 115.343 6.88901H115.348ZM121.274 6.72723C121.185 6.76376 121.101 6.81595 121.038 6.88901C120.902 7.02471 120.823 7.20215 120.823 7.39003C120.823 7.48919 120.839 7.57791 120.875 7.66664C120.912 7.75536 120.965 7.82842 121.038 7.89627C121.101 7.9589 121.18 8.01109 121.274 8.04762C121.353 8.08415 121.452 8.09981 121.541 8.09981C121.641 8.09981 121.73 8.08415 121.819 8.04762C121.908 8.01109 121.982 7.9589 122.055 7.89627C122.118 7.8232 122.171 7.75536 122.207 7.66664C122.244 7.57791 122.27 7.48919 122.27 7.39003C122.27 7.20215 122.192 7.02471 122.055 6.88901C121.851 6.68547 121.536 6.62285 121.274 6.72723ZM88.5211 13.564C88.3218 13.3605 88.0072 13.2979 87.7398 13.4023C87.6506 13.4388 87.572 13.491 87.509 13.564C87.4356 13.6267 87.3832 13.705 87.3465 13.7937C87.3098 13.8772 87.2941 13.9711 87.2941 14.0598C87.2941 14.2477 87.3727 14.4252 87.509 14.5661C87.6454 14.7018 87.8237 14.7696 88.0124 14.7696C88.2117 14.7696 88.39 14.6966 88.5263 14.5661C88.6627 14.4304 88.7309 14.2529 88.7309 14.0598C88.7309 13.9711 88.7099 13.872 88.6784 13.7937C88.6417 13.705 88.5893 13.6267 88.5263 13.564H88.5211ZM94.4466 13.4023C94.3575 13.4388 94.2736 13.491 94.2106 13.564C94.0743 13.6893 93.9956 13.8772 93.9956 14.0651C93.9956 14.2529 94.0743 14.4304 94.2106 14.5713C94.347 14.707 94.5253 14.7748 94.714 14.7748C94.8137 14.7748 94.9028 14.754 94.992 14.7226C95.0811 14.6861 95.1545 14.6339 95.2279 14.5713C95.2909 14.4982 95.3433 14.42 95.38 14.3417C95.4167 14.2529 95.4324 14.1642 95.4324 14.0651C95.4324 13.8772 95.359 13.6893 95.2279 13.564C95.0287 13.3605 94.7088 13.2979 94.4466 13.4023ZM101.153 13.4023C101.064 13.4388 100.986 13.491 100.923 13.564C100.849 13.6267 100.807 13.705 100.771 13.7937C100.723 13.8772 100.718 13.9711 100.718 14.0598C100.718 14.2582 100.792 14.4356 100.923 14.5661C100.986 14.6287 101.064 14.6809 101.153 14.7174C101.232 14.754 101.332 14.7696 101.421 14.7696C101.52 14.7696 101.61 14.7487 101.699 14.7174C101.788 14.6809 101.861 14.6287 101.93 14.5661C102.066 14.4252 102.134 14.2477 102.134 14.0598C102.134 13.872 102.061 13.6945 101.93 13.5588C101.73 13.3553 101.41 13.2927 101.148 13.397L101.153 13.4023ZM107.624 13.564C107.488 13.6997 107.409 13.8772 107.409 14.0651C107.409 14.1642 107.425 14.2529 107.462 14.3417C107.498 14.42 107.551 14.5035 107.624 14.5713C107.761 14.707 107.939 14.7748 108.128 14.7748C108.316 14.7748 108.505 14.7018 108.642 14.5713C108.778 14.4356 108.846 14.2582 108.846 14.0651C108.846 13.872 108.773 13.6893 108.642 13.564C108.374 13.2979 107.897 13.2979 107.63 13.564H107.624ZM114.562 13.4023C114.473 13.4388 114.394 13.491 114.331 13.564C114.258 13.6267 114.205 13.705 114.169 13.7937C114.132 13.8772 114.116 13.9711 114.116 14.0598C114.116 14.2582 114.195 14.4356 114.331 14.5661C114.394 14.6287 114.473 14.6809 114.562 14.7174C114.64 14.754 114.74 14.7696 114.829 14.7696C114.929 14.7696 115.018 14.7487 115.107 14.7174C115.196 14.6809 115.27 14.6287 115.338 14.5661C115.401 14.493 115.453 14.4147 115.49 14.3364C115.527 14.2477 115.542 14.159 115.542 14.0598C115.542 13.872 115.469 13.6945 115.338 13.5588C115.139 13.3553 114.819 13.2927 114.557 13.397L114.562 13.4023ZM121.033 13.564C120.896 13.6997 120.818 13.8772 120.818 14.0651C120.818 14.1642 120.833 14.2529 120.87 14.3417C120.907 14.42 120.959 14.5035 121.033 14.5713C121.096 14.6339 121.174 14.6861 121.269 14.7226C121.347 14.7592 121.447 14.7748 121.536 14.7748C121.636 14.7748 121.725 14.754 121.814 14.7226C121.903 14.6861 121.977 14.6339 122.05 14.5713C122.113 14.4982 122.165 14.42 122.202 14.3417C122.239 14.2529 122.265 14.1642 122.265 14.0651C122.265 13.8772 122.186 13.6997 122.05 13.564C121.783 13.2979 121.305 13.2979 121.038 13.564H121.033ZM88.5106 20.2391C88.3114 20.0355 87.9967 19.9729 87.7293 20.0773C87.6401 20.1138 87.5615 20.166 87.4986 20.2391C87.4251 20.3017 87.3727 20.38 87.336 20.4687C87.2993 20.547 87.2836 20.6462 87.2836 20.7349C87.2836 20.9332 87.3622 21.1106 87.4986 21.2463C87.6349 21.382 87.8132 21.4499 88.002 21.4499C88.2012 21.4499 88.3795 21.3768 88.5159 21.2463C88.6522 21.1106 88.7204 20.9332 88.7204 20.7349C88.7204 20.6462 88.6994 20.547 88.6679 20.4687C88.6312 20.38 88.5788 20.2965 88.5159 20.2391H88.5106ZM94.9815 20.0773C94.714 19.9677 94.3994 20.0303 94.2001 20.2391C94.0638 20.3643 93.9851 20.5522 93.9851 20.7401C93.9851 20.928 94.0638 21.1159 94.2001 21.2515C94.2631 21.3142 94.3417 21.3664 94.4361 21.4029C94.5148 21.4394 94.6144 21.4551 94.7036 21.4551C94.8032 21.4551 94.8923 21.4394 94.9815 21.4029C95.0706 21.3664 95.144 21.3142 95.2174 21.2515C95.3538 21.1159 95.4219 20.9384 95.4219 20.7401C95.4219 20.5418 95.3485 20.3643 95.2174 20.2391C95.1545 20.166 95.0759 20.1138 94.9815 20.0773ZM101.919 20.2391C101.72 20.0355 101.4 19.9729 101.138 20.0773C101.049 20.1138 100.97 20.166 100.907 20.2391C100.834 20.3017 100.792 20.38 100.755 20.4687C100.718 20.547 100.702 20.6462 100.702 20.7349C100.702 20.9332 100.776 21.1106 100.907 21.2463C100.97 21.309 101.049 21.3611 101.138 21.3977C101.227 21.4342 101.316 21.4499 101.405 21.4499C101.505 21.4499 101.594 21.4342 101.683 21.3977C101.772 21.3611 101.846 21.309 101.914 21.2463C102.05 21.1106 102.118 20.9228 102.118 20.7349C102.118 20.6462 102.103 20.547 102.066 20.4687C102.029 20.38 101.977 20.2965 101.914 20.2391H101.919ZM107.614 20.2286C107.477 20.3695 107.399 20.5522 107.399 20.7401C107.399 20.928 107.477 21.1054 107.614 21.2515C107.677 21.3142 107.755 21.3664 107.85 21.4029C107.928 21.4394 108.028 21.4551 108.117 21.4551C108.217 21.4551 108.306 21.4394 108.395 21.4029C108.484 21.3664 108.558 21.3142 108.631 21.2515C108.767 21.1159 108.836 20.9384 108.836 20.7401C108.836 20.5418 108.762 20.3643 108.631 20.2286C108.364 19.9677 107.886 19.9677 107.619 20.2286H107.614ZM115.333 20.2391C115.133 20.0355 114.814 19.9729 114.551 20.0773C114.462 20.1138 114.384 20.166 114.321 20.2391C114.184 20.3643 114.106 20.5522 114.106 20.7401C114.106 20.8393 114.127 20.928 114.158 21.0167C114.195 21.095 114.247 21.1785 114.321 21.2463C114.384 21.309 114.462 21.3611 114.551 21.3977C114.63 21.4342 114.73 21.4499 114.819 21.4499C114.918 21.4499 115.008 21.4342 115.097 21.3977C115.186 21.3611 115.259 21.309 115.327 21.2463C115.464 21.1054 115.532 20.9228 115.532 20.7349C115.532 20.6462 115.511 20.547 115.48 20.4583C115.443 20.38 115.39 20.2965 115.327 20.2339L115.333 20.2391ZM121.027 20.2286C120.891 20.3695 120.812 20.5522 120.812 20.7401C120.812 20.8393 120.828 20.928 120.865 21.0167C120.902 21.095 120.954 21.1785 121.027 21.2463C121.09 21.309 121.169 21.3611 121.263 21.3977C121.342 21.4342 121.442 21.4499 121.531 21.4499C121.63 21.4499 121.72 21.4342 121.809 21.3977C121.898 21.3611 121.971 21.309 122.045 21.2463C122.108 21.1733 122.16 21.095 122.197 21.0167C122.234 20.928 122.26 20.8393 122.26 20.7401C122.26 20.5522 122.181 20.3748 122.045 20.2286C121.777 19.9677 121.3 19.9677 121.033 20.2286H121.027ZM88.5054 26.9141C88.3061 26.7106 87.9915 26.6479 87.724 26.7523C87.6349 26.7888 87.5562 26.841 87.4933 26.9141C87.357 27.0498 87.2783 27.2272 87.2783 27.4151C87.2783 27.603 87.357 27.7909 87.4933 27.9214C87.5562 27.984 87.6349 28.0362 87.724 28.0727C87.8132 28.1092 87.9023 28.1249 87.9915 28.1249C88.1907 28.1249 88.369 28.0518 88.5054 27.9214C88.5683 27.8483 88.6207 27.77 88.6574 27.6917C88.6942 27.603 88.7099 27.5143 88.7099 27.4151C88.7099 27.3264 88.6889 27.2272 88.6574 27.149C88.6207 27.0602 88.5683 26.982 88.5054 26.9193V26.9141ZM94.9762 26.7523C94.7088 26.6427 94.3942 26.7053 94.1949 26.9141C94.0586 27.0394 93.9799 27.2272 93.9799 27.4151C93.9799 27.603 94.0586 27.7804 94.1949 27.9214C94.2578 27.984 94.3365 28.0362 94.4309 28.0727C94.5095 28.1092 94.6092 28.1249 94.6983 28.1249C94.7979 28.1249 94.8871 28.104 94.9762 28.0727C95.0654 28.0362 95.1388 27.984 95.2122 27.9214C95.3485 27.7857 95.4167 27.6082 95.4167 27.4151C95.4167 27.222 95.3433 27.0394 95.2122 26.9141C95.1493 26.841 95.0706 26.7888 94.9762 26.7523ZM101.138 26.7523C101.049 26.7888 100.97 26.841 100.907 26.9141C100.834 26.9767 100.792 27.055 100.755 27.1437C100.708 27.2272 100.702 27.3212 100.702 27.4099C100.702 27.6082 100.776 27.7857 100.907 27.9161C100.97 27.9788 101.049 28.031 101.138 28.0675C101.227 28.104 101.316 28.1197 101.405 28.1197C101.505 28.1197 101.594 28.0988 101.683 28.0675C101.772 28.031 101.846 27.9788 101.914 27.9161C102.05 27.7752 102.118 27.5978 102.118 27.4099C102.118 27.222 102.045 27.0446 101.914 26.9089C101.715 26.7053 101.395 26.6427 101.132 26.7471L101.138 26.7523ZM108.39 26.7523C108.128 26.6427 107.808 26.7053 107.609 26.9141C107.472 27.0498 107.394 27.2272 107.394 27.4151C107.394 27.603 107.472 27.7804 107.609 27.9214C107.745 28.0571 107.923 28.1249 108.112 28.1249C108.301 28.1249 108.49 28.0518 108.626 27.9214C108.762 27.7857 108.83 27.6082 108.83 27.4151C108.83 27.222 108.757 27.0394 108.626 26.9141C108.563 26.841 108.484 26.7888 108.39 26.7523ZM114.551 26.7523C114.462 26.7888 114.384 26.841 114.321 26.9141C114.247 26.9767 114.195 27.055 114.158 27.1437C114.121 27.2272 114.106 27.3212 114.106 27.4099C114.106 27.6082 114.184 27.7857 114.321 27.9161C114.384 27.9788 114.462 28.031 114.551 28.0675C114.63 28.104 114.73 28.1197 114.819 28.1197C114.918 28.1197 115.008 28.0988 115.097 28.0675C115.186 28.031 115.259 27.9788 115.327 27.9161C115.39 27.8431 115.443 27.7648 115.48 27.6865C115.516 27.5978 115.532 27.5091 115.532 27.4099C115.532 27.222 115.459 27.0446 115.327 26.9089C115.128 26.7053 114.808 26.6427 114.546 26.7471L114.551 26.7523ZM121.258 26.7523C121.169 26.7888 121.085 26.841 121.022 26.9141C120.886 27.0498 120.807 27.2272 120.807 27.4151C120.807 27.5143 120.823 27.603 120.86 27.6917C120.896 27.77 120.949 27.8535 121.022 27.9214C121.085 27.984 121.164 28.0362 121.258 28.0727C121.337 28.1092 121.436 28.1249 121.526 28.1249C121.625 28.1249 121.714 28.104 121.804 28.0727C121.893 28.0362 121.966 27.984 122.04 27.9214C122.102 27.8483 122.155 27.77 122.192 27.6917C122.228 27.603 122.255 27.5143 122.255 27.4151C122.255 27.2272 122.176 27.0498 122.04 26.9141C121.84 26.7106 121.52 26.6479 121.258 26.7523Z" fill="#CFE2C4"/>
<path d="M50.3147 93.8366C50.1836 93.8366 50.0525 93.8001 49.9372 93.727C49.6016 93.5183 49.5019 93.0747 49.7117 92.7407L60.042 76.3427C60.2517 76.0087 60.6922 75.9043 61.0331 76.1183C61.3687 76.3271 61.4683 76.7707 61.2586 77.1047L50.9282 93.5026C50.7919 93.7166 50.5612 93.8366 50.32 93.8366H50.3147ZM56.4342 93.5026L66.7645 77.1047C66.9743 76.7707 66.8747 76.3323 66.5391 76.1183C66.2035 75.9043 65.7577 76.0087 65.548 76.3427L55.2177 92.7407C55.0079 93.0747 55.1076 93.5131 55.4432 93.727C55.5638 93.8001 55.6949 93.8366 55.8207 93.8366C56.0619 93.8366 56.2927 93.7166 56.429 93.5026H56.4342ZM61.9455 93.5026L72.2758 77.1047C72.4855 76.7707 72.3859 76.3323 72.0503 76.1183C71.7147 75.9043 71.269 76.0087 71.0592 76.3427L60.7289 92.7407C60.5192 93.0747 60.6188 93.5131 60.9544 93.727C61.075 93.8001 61.2061 93.8366 61.332 93.8366C61.5732 93.8366 61.8039 93.7166 61.9402 93.5026H61.9455ZM67.4567 93.5026L77.787 77.1047C77.9968 76.7707 77.8971 76.3323 77.5615 76.1183C77.2259 75.9043 76.7802 76.0087 76.5705 76.3427L66.2402 92.7407C66.0304 93.0747 66.13 93.5131 66.4656 93.727C66.5863 93.8001 66.7174 93.8366 66.8432 93.8366C67.0844 93.8366 67.3151 93.7166 67.4515 93.5026H67.4567ZM72.968 93.5026L83.2983 77.1047C83.508 76.7707 83.4084 76.3323 83.0728 76.1183C82.7372 75.9043 82.2915 76.0087 82.0817 76.3427L71.7514 92.7407C71.5417 93.0747 71.6413 93.5131 71.9769 93.727C72.0975 93.8001 72.2286 93.8366 72.3544 93.8366C72.5957 93.8366 72.8264 93.7166 72.9627 93.5026H72.968ZM78.4792 93.5026L88.8095 77.1047C89.0193 76.7707 88.9196 76.3323 88.584 76.1183C88.2484 75.9043 87.8027 76.0087 87.5929 76.3427L77.2626 92.7407C77.0529 93.0747 77.1525 93.5131 77.4881 93.727C77.6087 93.8001 77.7398 93.8366 77.8657 93.8366C78.1069 93.8366 78.3376 93.7166 78.474 93.5026H78.4792ZM83.9904 93.5026L94.3207 77.1047C94.5305 76.7707 94.4309 76.3323 94.0953 76.1183C93.7597 75.9043 93.3139 76.0087 93.1042 76.3427L82.7739 92.7407C82.5641 93.0747 82.6638 93.5131 82.9994 93.727C83.12 93.8001 83.2511 93.8366 83.3769 93.8366C83.6181 93.8366 83.8489 93.7166 83.9852 93.5026H83.9904ZM89.5017 93.5026L99.832 77.1047C100.042 76.7707 99.9421 76.3323 99.6065 76.1183C99.2709 75.9043 98.8252 76.0087 98.6154 76.3427L88.2851 92.7407C88.0754 93.0747 88.175 93.5131 88.5106 93.727C88.6312 93.8001 88.7623 93.8366 88.8882 93.8366C89.1294 93.8366 89.3601 93.7166 89.4964 93.5026H89.5017ZM95.0129 93.5026L105.343 77.1047C105.553 76.7707 105.453 76.3323 105.118 76.1183C104.782 75.9043 104.336 76.0087 104.127 76.3427L93.7964 92.7407C93.5866 93.0747 93.6862 93.5131 94.0218 93.727C94.1425 93.8001 94.2736 93.8366 94.3994 93.8366C94.6406 93.8366 94.8713 93.7166 95.0077 93.5026H95.0129ZM100.524 93.5026L110.854 77.1047C111.064 76.7707 110.965 76.3323 110.629 76.1183C110.293 75.9043 109.848 76.0087 109.638 76.3427L99.3076 92.7407C99.0979 93.0747 99.1975 93.5131 99.5331 93.727C99.6537 93.8001 99.7848 93.8366 99.9106 93.8366C100.152 93.8366 100.383 93.7166 100.519 93.5026H100.524Z" fill="#CFE2C4"/>
<path d="M213.906 148.719C213.942 148.808 213.969 148.896 213.969 148.996C213.969 149.084 213.942 149.184 213.906 149.262C213.869 149.351 213.827 149.429 213.754 149.491C213.617 149.627 213.439 149.705 213.25 149.705C213.061 149.705 212.873 149.622 212.736 149.491C212.673 149.429 212.621 149.351 212.584 149.262C212.548 149.178 212.532 149.084 212.532 148.996C212.532 148.896 212.548 148.808 212.584 148.719C212.621 148.63 212.673 148.557 212.736 148.489C212.999 148.223 213.491 148.223 213.748 148.489C213.822 148.552 213.864 148.63 213.9 148.719H213.906ZM220.46 148.489C220.198 148.223 219.716 148.223 219.448 148.489C219.386 148.562 219.333 148.63 219.296 148.719C219.26 148.808 219.244 148.896 219.244 148.996C219.244 149.084 219.265 149.184 219.296 149.262C219.333 149.351 219.386 149.429 219.448 149.491C219.585 149.627 219.763 149.705 219.957 149.705C220.151 149.705 220.324 149.622 220.46 149.491C220.534 149.429 220.586 149.351 220.623 149.262C220.66 149.178 220.675 149.084 220.675 148.996C220.675 148.896 220.655 148.808 220.623 148.719C220.586 148.63 220.534 148.557 220.46 148.489ZM227.167 148.489C226.968 148.291 226.648 148.228 226.386 148.338C226.297 148.375 226.223 148.427 226.155 148.489C226.092 148.562 226.04 148.63 226.003 148.719C225.966 148.808 225.951 148.896 225.951 148.996C225.951 149.084 225.966 149.184 226.003 149.262C226.04 149.351 226.082 149.429 226.155 149.491C226.292 149.627 226.47 149.705 226.669 149.705C226.868 149.705 227.036 149.622 227.173 149.491C227.246 149.429 227.298 149.351 227.335 149.262C227.372 149.178 227.388 149.084 227.388 148.996C227.388 148.896 227.372 148.808 227.335 148.719C227.288 148.63 227.246 148.557 227.173 148.489H227.167ZM233.093 148.338C233.004 148.375 232.92 148.427 232.862 148.489C232.799 148.552 232.747 148.63 232.71 148.719C232.673 148.808 232.658 148.896 232.658 148.996C232.658 149.084 232.679 149.184 232.71 149.262C232.747 149.351 232.799 149.429 232.862 149.491C232.936 149.565 233.004 149.617 233.093 149.653C233.182 149.69 233.271 149.705 233.371 149.705C233.56 149.705 233.738 149.622 233.874 149.491C234.01 149.356 234.079 149.178 234.079 148.99C234.079 148.803 234.005 148.615 233.874 148.484C233.675 148.286 233.355 148.223 233.093 148.333V148.338ZM240.581 148.489C240.518 148.427 240.439 148.375 240.35 148.338C240.182 148.265 239.983 148.265 239.805 148.338C239.716 148.375 239.637 148.427 239.574 148.489C239.511 148.552 239.459 148.63 239.422 148.719C239.385 148.808 239.37 148.896 239.37 148.996C239.37 149.184 239.443 149.361 239.574 149.497C239.648 149.57 239.716 149.622 239.805 149.658C239.894 149.695 239.983 149.711 240.083 149.711C240.272 149.711 240.45 149.627 240.586 149.497C240.723 149.361 240.801 149.184 240.801 148.996C240.801 148.896 240.775 148.808 240.738 148.719C240.702 148.63 240.66 148.547 240.586 148.489H240.581ZM246.784 149.711C246.874 149.711 246.973 149.69 247.052 149.658C247.141 149.622 247.22 149.57 247.283 149.497C247.419 149.361 247.498 149.184 247.498 148.996C247.498 148.896 247.477 148.808 247.445 148.719C247.408 148.63 247.356 148.557 247.283 148.489C247.02 148.223 246.538 148.223 246.271 148.489C246.134 148.625 246.066 148.808 246.066 148.996C246.066 149.184 246.139 149.361 246.271 149.497C246.407 149.632 246.585 149.711 246.779 149.711H246.784ZM212.742 155.164C212.679 155.238 212.626 155.305 212.59 155.394C212.553 155.483 212.537 155.572 212.537 155.671C212.537 155.859 212.611 156.036 212.742 156.172C212.878 156.307 213.056 156.386 213.256 156.386C213.455 156.386 213.623 156.307 213.759 156.172C213.832 156.109 213.874 156.031 213.911 155.942C213.948 155.864 213.974 155.765 213.974 155.676C213.974 155.488 213.895 155.3 213.759 155.164C213.497 154.898 213.004 154.904 212.747 155.164H212.742ZM220.46 155.164C220.198 154.898 219.716 154.898 219.448 155.164C219.386 155.238 219.333 155.305 219.296 155.394C219.26 155.483 219.244 155.572 219.244 155.671C219.244 155.859 219.317 156.036 219.448 156.172C219.585 156.307 219.763 156.386 219.957 156.386C220.151 156.386 220.324 156.307 220.46 156.172C220.597 156.036 220.675 155.859 220.675 155.671C220.675 155.572 220.655 155.483 220.623 155.394C220.586 155.305 220.534 155.232 220.46 155.164ZM227.167 155.164C226.968 154.966 226.648 154.904 226.386 155.013C226.297 155.05 226.223 155.102 226.155 155.164C226.092 155.238 226.04 155.305 226.003 155.394C225.966 155.483 225.951 155.572 225.951 155.671C225.951 155.759 225.966 155.859 226.003 155.937C226.04 156.026 226.092 156.109 226.155 156.167C226.229 156.24 226.297 156.292 226.386 156.328C226.475 156.365 226.564 156.38 226.664 156.38C226.853 156.38 227.031 156.302 227.167 156.167C227.241 156.104 227.293 156.026 227.33 155.937C227.367 155.859 227.382 155.759 227.382 155.671C227.382 155.572 227.367 155.483 227.33 155.394C227.283 155.305 227.241 155.232 227.167 155.164ZM233.874 155.164C233.811 155.102 233.733 155.05 233.643 155.013C233.47 154.94 233.266 154.94 233.098 155.013C233.009 155.05 232.925 155.102 232.867 155.164C232.804 155.238 232.752 155.305 232.715 155.394C232.679 155.483 232.663 155.582 232.663 155.671C232.663 155.859 232.736 156.036 232.867 156.172C233.004 156.313 233.182 156.386 233.376 156.386C233.465 156.386 233.565 156.37 233.643 156.333C233.733 156.297 233.811 156.245 233.874 156.172C233.948 156.109 234 156.031 234.037 155.947C234.073 155.859 234.084 155.759 234.084 155.671C234.084 155.572 234.068 155.483 234.037 155.394C233.99 155.305 233.948 155.232 233.874 155.164ZM240.581 155.164C240.382 154.966 240.072 154.904 239.8 155.013C239.711 155.05 239.632 155.102 239.569 155.164C239.506 155.238 239.454 155.305 239.417 155.394C239.38 155.483 239.364 155.572 239.364 155.671C239.364 155.859 239.438 156.036 239.569 156.172C239.642 156.245 239.711 156.297 239.8 156.333C239.889 156.37 239.978 156.386 240.078 156.386C240.266 156.386 240.445 156.307 240.581 156.172C240.717 156.036 240.796 155.859 240.796 155.671C240.796 155.572 240.77 155.483 240.733 155.394C240.696 155.305 240.654 155.232 240.581 155.164ZM247.288 155.164C247.225 155.102 247.146 155.05 247.057 155.013C246.795 154.904 246.475 154.966 246.276 155.164C246.139 155.3 246.071 155.488 246.071 155.676C246.071 155.864 246.145 156.041 246.276 156.177C246.349 156.25 246.417 156.302 246.506 156.339C246.596 156.375 246.685 156.391 246.784 156.391C246.874 156.391 246.973 156.375 247.052 156.339C247.141 156.302 247.22 156.25 247.283 156.177C247.419 156.041 247.498 155.864 247.498 155.676C247.498 155.577 247.477 155.488 247.445 155.399C247.408 155.311 247.356 155.238 247.283 155.17L247.288 155.164ZM213.754 161.839C213.691 161.777 213.612 161.725 213.523 161.688C213.255 161.573 212.941 161.641 212.742 161.839C212.679 161.902 212.626 161.98 212.59 162.069C212.553 162.158 212.537 162.247 212.537 162.346C212.537 162.434 212.553 162.534 212.59 162.612C212.626 162.701 212.679 162.779 212.742 162.842C212.878 162.977 213.056 163.055 213.256 163.055C213.455 163.055 213.623 162.972 213.759 162.842C213.895 162.706 213.974 162.528 213.974 162.341C213.974 162.241 213.948 162.153 213.911 162.064C213.874 161.975 213.832 161.892 213.759 161.834L213.754 161.839ZM220.46 161.839C220.198 161.573 219.716 161.573 219.448 161.839C219.386 161.913 219.333 161.98 219.296 162.069C219.26 162.158 219.244 162.247 219.244 162.346C219.244 162.434 219.265 162.534 219.296 162.612C219.333 162.701 219.386 162.779 219.448 162.842C219.585 162.977 219.763 163.055 219.957 163.055C220.151 163.055 220.324 162.972 220.46 162.842C220.534 162.779 220.586 162.701 220.623 162.612C220.66 162.528 220.675 162.434 220.675 162.346C220.675 162.247 220.655 162.158 220.623 162.069C220.586 161.98 220.534 161.907 220.46 161.839ZM227.167 161.839C227.104 161.777 227.026 161.725 226.937 161.688C226.764 161.615 226.57 161.615 226.391 161.688C226.302 161.725 226.229 161.777 226.161 161.839C226.098 161.913 226.045 161.98 226.008 162.069C225.972 162.158 225.956 162.247 225.956 162.346C225.956 162.434 225.972 162.534 226.008 162.612C226.045 162.701 226.098 162.779 226.161 162.842C226.297 162.977 226.475 163.055 226.674 163.055C226.874 163.055 227.041 162.972 227.178 162.842C227.251 162.779 227.304 162.701 227.34 162.612C227.377 162.528 227.393 162.434 227.393 162.346C227.393 162.247 227.377 162.158 227.34 162.069C227.293 161.98 227.251 161.907 227.178 161.839H227.167ZM233.874 161.839C233.675 161.641 233.355 161.573 233.093 161.688C233.004 161.725 232.92 161.777 232.862 161.839C232.799 161.913 232.747 161.98 232.71 162.069C232.673 162.158 232.658 162.247 232.658 162.346C232.658 162.434 232.679 162.534 232.71 162.612C232.747 162.701 232.799 162.779 232.862 162.842C232.936 162.915 233.004 162.967 233.093 163.003C233.182 163.04 233.271 163.055 233.371 163.055C233.56 163.055 233.738 162.972 233.874 162.842C234.01 162.706 234.079 162.528 234.079 162.341C234.079 162.241 234.068 162.153 234.031 162.064C233.984 161.975 233.942 161.902 233.869 161.834L233.874 161.839ZM240.581 161.839C240.518 161.777 240.439 161.725 240.35 161.688C240.088 161.579 239.768 161.641 239.569 161.839C239.506 161.913 239.454 161.98 239.417 162.069C239.38 162.158 239.364 162.247 239.364 162.346C239.364 162.534 239.438 162.711 239.569 162.847C239.705 162.982 239.884 163.061 240.083 163.061C240.282 163.061 240.45 162.977 240.586 162.847C240.723 162.716 240.801 162.534 240.801 162.346C240.801 162.247 240.775 162.158 240.738 162.069C240.702 161.98 240.66 161.907 240.586 161.839H240.581ZM247.288 161.839C247.225 161.777 247.146 161.725 247.057 161.688C246.795 161.573 246.475 161.641 246.276 161.839C246.139 161.975 246.071 162.158 246.071 162.346C246.071 162.534 246.145 162.711 246.276 162.847C246.407 162.982 246.59 163.061 246.784 163.061C246.874 163.061 246.973 163.04 247.052 163.009C247.141 162.972 247.22 162.92 247.283 162.847C247.356 162.784 247.408 162.706 247.445 162.617C247.482 162.534 247.498 162.44 247.498 162.351C247.498 162.252 247.477 162.163 247.445 162.074C247.408 161.986 247.356 161.913 247.283 161.845L247.288 161.839ZM213.754 168.515C213.491 168.248 212.999 168.248 212.742 168.515C212.679 168.588 212.626 168.655 212.59 168.744C212.553 168.833 212.537 168.922 212.537 169.021C212.537 169.109 212.553 169.209 212.59 169.287C212.626 169.376 212.679 169.459 212.742 169.517C212.815 169.59 212.883 169.642 212.972 169.678C213.061 169.715 213.151 169.731 213.25 169.731C213.339 169.731 213.439 169.715 213.518 169.678C213.607 169.642 213.691 169.59 213.748 169.517C213.885 169.381 213.963 169.203 213.963 169.016C213.963 168.916 213.937 168.828 213.9 168.739C213.864 168.65 213.822 168.572 213.748 168.509L213.754 168.515ZM220.46 168.515C220.198 168.248 219.716 168.248 219.448 168.515C219.386 168.588 219.333 168.655 219.296 168.744C219.26 168.833 219.244 168.922 219.244 169.021C219.244 169.209 219.317 169.386 219.448 169.522C219.585 169.657 219.763 169.736 219.957 169.736C220.151 169.736 220.324 169.657 220.46 169.522C220.597 169.386 220.675 169.209 220.675 169.021C220.675 168.922 220.655 168.833 220.623 168.744C220.586 168.655 220.534 168.582 220.46 168.515ZM226.386 168.363C226.297 168.4 226.223 168.452 226.155 168.515C226.019 168.65 225.951 168.838 225.951 169.026C225.951 169.214 226.024 169.391 226.155 169.527C226.297 169.668 226.48 169.741 226.669 169.741C226.858 169.741 227.036 169.668 227.173 169.527C227.309 169.391 227.388 169.214 227.388 169.026C227.388 168.838 227.309 168.65 227.173 168.515C226.973 168.316 226.653 168.254 226.391 168.363H226.386ZM233.874 168.515C233.811 168.452 233.733 168.4 233.643 168.363C233.47 168.29 233.266 168.29 233.098 168.363C233.009 168.4 232.925 168.452 232.867 168.515C232.804 168.588 232.752 168.655 232.715 168.744C232.679 168.833 232.663 168.922 232.663 169.021C232.663 169.209 232.736 169.386 232.867 169.522C233.004 169.657 233.182 169.736 233.376 169.736C233.465 169.736 233.565 169.72 233.643 169.684C233.733 169.647 233.811 169.595 233.874 169.522C234.01 169.386 234.079 169.209 234.079 169.021C234.079 168.922 234.068 168.833 234.031 168.744C233.984 168.655 233.942 168.582 233.869 168.515H233.874ZM240.581 168.515C240.518 168.452 240.439 168.4 240.35 168.363C240.182 168.29 239.983 168.29 239.805 168.363C239.716 168.4 239.637 168.452 239.574 168.515C239.511 168.588 239.459 168.655 239.422 168.744C239.385 168.833 239.37 168.922 239.37 169.021C239.37 169.209 239.443 169.386 239.574 169.522C239.648 169.595 239.716 169.647 239.805 169.684C239.894 169.72 239.983 169.736 240.083 169.736C240.272 169.736 240.45 169.657 240.586 169.522C240.723 169.386 240.801 169.209 240.801 169.021C240.801 168.922 240.775 168.833 240.738 168.744C240.702 168.655 240.66 168.582 240.586 168.515H240.581ZM247.057 168.363C246.795 168.254 246.48 168.316 246.276 168.515C246.139 168.65 246.071 168.838 246.071 169.026C246.071 169.214 246.145 169.391 246.276 169.527C246.412 169.663 246.59 169.741 246.784 169.741C246.874 169.741 246.973 169.725 247.052 169.689C247.141 169.652 247.22 169.6 247.283 169.527C247.356 169.464 247.408 169.386 247.445 169.297C247.482 169.219 247.498 169.12 247.498 169.031C247.498 168.843 247.414 168.655 247.283 168.52C247.22 168.457 247.141 168.405 247.052 168.368L247.057 168.363ZM213.759 175.19C213.497 174.923 213.004 174.929 212.747 175.19C212.684 175.252 212.631 175.33 212.595 175.419C212.558 175.508 212.542 175.597 212.542 175.696C212.542 175.785 212.558 175.884 212.595 175.962C212.631 176.051 212.684 176.129 212.747 176.192C212.883 176.327 213.061 176.406 213.261 176.406C213.46 176.406 213.628 176.322 213.764 176.192C213.838 176.129 213.88 176.051 213.916 175.962C213.953 175.878 213.979 175.785 213.979 175.696C213.979 175.597 213.953 175.508 213.916 175.419C213.88 175.33 213.838 175.247 213.764 175.19H213.759ZM220.466 175.19C220.204 174.923 219.721 174.923 219.454 175.19C219.391 175.263 219.338 175.33 219.302 175.419C219.265 175.508 219.249 175.597 219.249 175.696C219.249 175.785 219.27 175.884 219.302 175.962C219.338 176.051 219.391 176.129 219.454 176.192C219.59 176.327 219.768 176.406 219.962 176.406C220.156 176.406 220.329 176.322 220.466 176.192C220.539 176.129 220.592 176.051 220.628 175.962C220.665 175.878 220.681 175.785 220.681 175.696C220.681 175.597 220.66 175.508 220.628 175.419C220.592 175.33 220.539 175.257 220.466 175.19ZM226.391 175.038C226.302 175.075 226.229 175.127 226.161 175.19C226.024 175.325 225.956 175.508 225.956 175.696C225.956 175.785 225.972 175.884 226.008 175.962C226.045 176.051 226.098 176.129 226.161 176.192C226.234 176.265 226.302 176.317 226.391 176.353C226.48 176.39 226.57 176.406 226.669 176.406C226.858 176.406 227.036 176.322 227.173 176.192C227.246 176.129 227.298 176.051 227.335 175.962C227.372 175.878 227.388 175.785 227.388 175.696C227.388 175.508 227.309 175.32 227.173 175.19C226.973 174.991 226.653 174.929 226.391 175.038ZM233.879 175.19C233.816 175.127 233.738 175.075 233.649 175.038C233.476 174.965 233.271 174.965 233.103 175.038C233.014 175.075 232.93 175.127 232.873 175.19C232.81 175.263 232.757 175.33 232.721 175.419C232.684 175.508 232.668 175.597 232.668 175.696C232.668 175.785 232.689 175.884 232.721 175.962C232.757 176.051 232.81 176.129 232.873 176.192C232.946 176.265 233.014 176.317 233.103 176.353C233.192 176.39 233.282 176.406 233.381 176.406C233.57 176.406 233.748 176.322 233.885 176.192C233.958 176.129 234.01 176.051 234.047 175.962C234.084 175.878 234.094 175.785 234.094 175.696C234.094 175.597 234.084 175.508 234.047 175.419C234 175.33 233.958 175.257 233.885 175.19H233.879ZM240.586 175.19C240.523 175.127 240.445 175.075 240.355 175.038C240.093 174.929 239.773 174.991 239.574 175.19C239.511 175.263 239.459 175.33 239.422 175.419C239.385 175.508 239.37 175.597 239.37 175.696C239.37 175.884 239.443 176.061 239.574 176.197C239.711 176.332 239.889 176.411 240.088 176.411C240.287 176.411 240.455 176.327 240.591 176.197C240.728 176.066 240.806 175.884 240.806 175.696C240.806 175.597 240.78 175.508 240.744 175.419C240.707 175.33 240.665 175.257 240.591 175.19H240.586ZM247.293 175.19C247.23 175.127 247.151 175.075 247.062 175.038C246.8 174.929 246.48 174.991 246.281 175.19C246.145 175.325 246.076 175.508 246.076 175.696C246.076 175.884 246.15 176.061 246.281 176.197C246.412 176.332 246.596 176.411 246.79 176.411C246.879 176.411 246.978 176.39 247.057 176.359C247.146 176.322 247.225 176.27 247.288 176.197C247.361 176.134 247.414 176.056 247.45 175.967C247.487 175.884 247.503 175.79 247.503 175.701C247.503 175.602 247.482 175.513 247.45 175.424C247.414 175.336 247.361 175.252 247.288 175.195L247.293 175.19Z" fill="#4794F2"/>
<path d="M172.82 54.7572C172.82 54.7572 177.351 52.3199 179.433 54.2718C181.515 56.2237 181.515 61.7036 178.206 65.4821C174.902 69.2606 169.391 65.4821 169.391 65.4821L172.82 54.7572Z" fill="#F5BA9A"/>
<path d="M177.613 59.6212C177.577 59.6212 177.535 59.616 177.493 59.6003C177.299 59.5377 177.199 59.329 177.262 59.1359C177.54 58.3269 177.362 57.565 176.785 57.1005C176.197 56.6308 175.353 56.5995 174.624 57.0326C173.796 57.5232 173.219 58.3635 172.805 59.0471C172.7 59.2194 172.474 59.2768 172.301 59.1724C172.128 59.068 172.071 58.8436 172.176 58.6714C172.632 57.9146 173.282 56.9804 174.247 56.4064C175.243 55.8218 176.418 55.874 177.241 56.5368C178.054 57.1892 178.321 58.28 177.949 59.3707C177.896 59.5221 177.755 59.6212 177.603 59.6212H177.613Z" fill="#BC6A5C"/>
<path d="M173.109 63.7807C172.962 63.7807 172.821 63.6868 172.763 63.5406C172.579 63.0501 172.931 62.5647 173.371 62.3455C173.486 62.2881 173.602 62.2411 173.722 62.1994C173.885 62.1368 174.042 62.0793 174.147 61.9906C174.383 61.7923 174.399 61.3957 174.346 61.1191C174.299 60.879 174.205 60.6441 174.111 60.3988C174.048 60.2371 173.985 60.0753 173.932 59.9135C173.733 59.2872 173.382 57.6902 174.457 56.3489C174.582 56.1924 174.813 56.1663 174.97 56.2915C175.128 56.4168 175.154 56.6464 175.028 56.803C174.205 57.8311 174.425 59.0524 174.63 59.6891C174.677 59.8404 174.735 59.9813 174.792 60.1275C174.897 60.3988 175.007 60.6754 175.07 60.9781C175.196 61.6201 175.028 62.2046 174.624 62.5438C174.42 62.7161 174.189 62.8048 173.985 62.8778C173.89 62.9144 173.796 62.9457 173.707 62.9927C173.534 63.0814 173.434 63.2275 173.455 63.2849C173.523 63.4728 173.429 63.6868 173.24 63.7546C173.198 63.7703 173.156 63.7755 173.114 63.7755L173.109 63.7807Z" fill="#BC6A5C"/>
<path d="M170.644 65.8474V81.546C170.644 86.3892 168.673 91.0236 165.18 94.395C158.201 101.133 147.11 101.133 140.131 94.395C136.638 91.0236 134.667 86.3892 134.667 81.546V65.8474H170.644Z" fill="#F5BA9A"/>
<path d="M170.204 65.8474H135.107C138.537 76.2749 144.965 85.3454 152.653 85.3454C160.34 85.3454 166.769 76.2749 170.199 65.8474H170.204Z" fill="#BC6A5C"/>
<path d="M132.821 54.7572C132.821 54.7572 128.29 52.3199 126.208 54.2718C124.127 56.2237 124.127 61.7036 127.435 65.4821C130.744 69.2606 136.25 65.4821 136.25 65.4821L132.821 54.7572Z" fill="#F5BA9A"/>
<path d="M127.703 59.6212C127.551 59.6212 127.409 59.5273 127.357 59.3707C126.984 58.2747 127.257 57.1892 128.065 56.5368C128.893 55.8688 130.068 55.8166 131.059 56.4063C132.024 56.9752 132.674 57.9146 133.13 58.6714C133.235 58.8436 133.177 59.068 133.004 59.1724C132.831 59.2768 132.606 59.2194 132.501 59.0471C132.087 58.3687 131.51 57.5232 130.681 57.0326C129.952 56.6047 129.108 56.6308 128.521 57.1057C127.949 57.5702 127.771 58.3269 128.044 59.1411C128.107 59.3342 128.007 59.5377 127.813 59.6056C127.776 59.6212 127.734 59.6264 127.692 59.6264L127.703 59.6212Z" fill="#BC6A5C"/>
<path d="M132.207 63.7807C132.165 63.7807 132.123 63.7755 132.081 63.7598C131.893 63.692 131.793 63.478 131.866 63.2901C131.887 63.2379 131.782 63.0814 131.615 62.9979C131.526 62.9509 131.431 62.9196 131.337 62.8831C131.132 62.8048 130.896 62.7161 130.697 62.549C130.293 62.2098 130.125 61.6201 130.251 60.9834C130.309 60.6807 130.419 60.3988 130.529 60.1327C130.587 59.9865 130.645 59.8404 130.692 59.6891C130.896 59.0524 131.117 57.8311 130.293 56.803C130.167 56.6464 130.194 56.4168 130.351 56.2915C130.508 56.1663 130.739 56.1924 130.865 56.3489C131.94 57.6902 131.588 59.2924 131.389 59.9135C131.337 60.0753 131.274 60.2371 131.211 60.3988C131.111 60.6494 131.022 60.8842 130.975 61.1191C130.923 61.3957 130.943 61.7923 131.174 61.9906C131.279 62.0793 131.431 62.1368 131.599 62.1994C131.72 62.2463 131.84 62.2881 131.95 62.3455C132.391 62.5647 132.742 63.0501 132.559 63.5406C132.506 63.6868 132.365 63.7807 132.212 63.7807H132.207Z" fill="#BC6A5C"/>
<path d="M152.658 23.193C178.248 23.193 174.577 48.056 172.495 59.2663C170.414 70.4766 162.579 82.7881 152.658 82.7881C142.737 82.7881 134.903 70.4818 132.821 59.2663C130.739 48.056 127.068 23.193 152.658 23.193Z" fill="#F5BA9A"/>
<path d="M153.34 49.2407C153.34 49.2407 150.11 61.4478 150.734 63.5146C151.363 65.5813 154.478 64.6523 154.478 64.6523" stroke="#F08F78" stroke-width="2" stroke-miterlimit="10" stroke-linecap="round"/>
<path d="M172.495 44.7629C171.552 48.4631 172.684 56.5577 172.957 56.9335C176.413 45.4361 183.214 17.2851 152.354 17.2851C121.494 17.2851 127.551 46.0467 132.354 56.3646C132.354 56.3646 134.756 50.7334 133.114 44.7629C138.175 44.4706 143.02 41.1357 145.28 36.6161C146.056 41.0313 148.741 44.8934 152.69 47.054C152.663 44.2097 152.716 41.2662 152.69 38.4271C154.174 42.2682 157.949 45.2796 162.076 45.4466C160.849 42.6075 159.701 39.7162 158.468 36.8771C162.511 40.4834 167.278 43.2598 172.49 44.7629H172.495Z" fill="white"/>
<path d="M146.411 65.1394C147.026 62.5356 145.403 59.9286 142.787 59.3164C140.171 58.7042 137.551 60.3188 136.936 62.9226C136.321 65.5264 137.944 68.1335 140.56 68.7457C143.176 69.3578 145.796 67.7433 146.411 65.1394Z" fill="#F3A487"/>
<path d="M168.13 65.8801C169.164 63.4113 167.992 60.5755 165.511 59.5463C163.03 58.5171 160.181 59.6841 159.147 62.153C158.113 64.6219 159.286 67.4577 161.766 68.4869C164.247 69.5161 167.096 68.349 168.13 65.8801Z" fill="#F3A487"/>
<path d="M167.624 44.9977L157.262 47.0697C157.262 47.0697 160.996 52.6487 167.624 44.9977Z" fill="white"/>
<path d="M137.692 44.9977L148.054 47.0697C148.054 47.0697 144.32 52.6487 137.692 44.9977Z" fill="white"/>
<path d="M132.359 52.6696C132.359 52.6696 135.71 49.0685 140.471 49.2721C146.748 49.5434 149.04 52.6696 152.663 52.6696C156.287 52.6696 158.578 49.5382 164.855 49.2721C169.611 49.0685 172.967 52.6696 172.967 52.6696L173.712 54.3449L171.871 61.2182C171.746 62.7265 165.338 64.0104 161.132 62.476C154.95 60.2214 155.275 57.9773 152.663 57.9773C150.052 57.9773 150.377 60.2162 144.195 62.476C139.989 64.0104 133.581 62.7265 133.455 61.2182L131.431 54.1413L132.365 52.6644L132.359 52.6696Z" fill="#37018F"/>
<path d="M157.357 55.9262C157.357 55.9262 160.744 51.9128 166.135 53.2698C166.135 53.2698 163.355 58.7862 157.357 55.9262Z" fill="white"/>
<path d="M147.96 55.9262C147.96 55.9262 144.572 51.9128 139.182 53.2698C139.182 53.2698 141.961 58.7862 147.96 55.9262Z" fill="white"/>
<path d="M150.377 69.6468C151.898 69.9704 153.534 69.7094 154.871 68.9318C156.213 68.1542 157.241 66.8599 157.703 65.3829" stroke="#BC6A5C" stroke-width="2" stroke-miterlimit="10" stroke-linecap="round"/>
<path d="M224.456 163.363L215.479 115.855C214.462 110.678 211.247 106.19 206.659 103.549L183.282 90.0738C176.58 86.2117 187.76 76.2592 190.723 67.267C193.686 58.2695 184.556 37.0545 175.846 27.2585C167.482 17.8436 163.282 13.277 153.282 12.9325V12.9064C153.072 12.9064 152.863 12.9064 152.658 12.9169C152.448 12.9169 152.244 12.9064 152.034 12.9064V12.9325C142.034 13.277 137.834 17.8436 129.47 27.2585C120.765 37.0545 111.631 58.2695 114.593 67.267C117.556 76.2644 128.736 86.2117 122.034 90.0738L98.6574 103.549C94.069 106.195 90.8546 110.678 89.8373 115.855L79.6276 162.956C77.5143 172.711 84.9815 181.917 95.0024 181.917H208.992C218.845 181.917 226.276 173.003 224.451 163.369L224.456 163.363ZM152.658 30.8701C162.679 31.5329 174.85 47.9725 170.644 65.8474C166.89 81.8122 155.458 95.5067 152.658 98.6798C149.858 95.5015 138.426 81.8122 134.672 65.8474C130.466 47.9673 142.642 31.5329 152.658 30.8701Z" fill="#5302D6"/>
<path d="M237.23 143.558H233.685V125.683C233.685 121.158 237.382 117.473 241.934 117.473C246.486 117.473 250.182 121.153 250.182 125.683V128.605H246.638V125.683C246.638 123.104 244.53 121.006 241.939 121.006C239.349 121.006 237.241 123.104 237.241 125.683V143.558H237.23Z" fill="#FEFFFF"/>
<path d="M252.72 145C254.139 139.075 250.464 133.128 244.512 131.715C238.559 130.303 232.583 133.96 231.164 139.885C229.745 145.809 233.42 151.757 239.372 153.169C245.325 154.582 251.301 150.924 252.72 145Z" fill="#4FF4FF"/>
<path d="M244.11 140.369C244.11 139.168 243.135 138.198 241.929 138.198C240.723 138.198 239.747 139.168 239.747 140.369C239.747 141.251 240.277 142.007 241.037 142.347V144.904C241.037 145.395 241.436 145.791 241.929 145.791C242.422 145.791 242.82 145.395 242.82 144.904V142.347C243.58 142.007 244.11 141.251 244.11 140.369Z" fill="#5302D6"/>
<path d="M219.601 15.8917H191.148C190.044 15.8917 189.15 16.7819 189.15 17.8801V32.8533C189.15 33.9514 190.044 34.8417 191.148 34.8417H219.601C220.704 34.8417 221.598 33.9514 221.598 32.8533V17.8801C221.598 16.7819 220.704 15.8917 219.601 15.8917Z" fill="#FEFFFF"/>
<path d="M205.374 27.9788L192.674 20.3748C192.202 20.0929 192.05 19.4823 192.333 19.0126C192.616 18.5429 193.229 18.3916 193.701 18.6734L205.374 25.6615L217.047 18.6734C217.519 18.3916 218.132 18.5429 218.415 19.0126C218.699 19.4823 218.547 20.0929 218.075 20.3748L205.374 27.9788Z" fill="#ACCEDC"/>
<g style="mix-blend-mode:screen" opacity="0.3">
<path d="M289.831 40.3059L292.206 41.1983L294.639 37.0023L292.673 35.4001C292.867 34.6225 292.977 33.8135 292.977 32.9785C292.977 32.1435 292.867 31.3345 292.673 30.5569L294.639 28.9547L292.206 24.7587L289.831 25.6511C288.656 24.529 287.219 23.6888 285.61 23.2243L285.201 20.7296H280.329L279.92 23.2243C278.315 23.6888 276.873 24.529 275.699 25.6511L273.323 24.7587L270.89 28.9547L272.857 30.5569C272.668 31.3345 272.552 32.1435 272.552 32.9785C272.552 33.8135 272.663 34.6225 272.857 35.4001L270.89 37.0023L273.323 41.1983L275.699 40.3059C276.873 41.428 278.31 42.2682 279.92 42.7327L280.329 45.2274H285.201L285.61 42.7327C287.214 42.2682 288.656 41.428 289.831 40.3059ZM276.286 32.9785C276.286 29.4192 279.186 26.5331 282.762 26.5331C286.338 26.5331 289.238 29.4192 289.238 32.9785C289.238 36.5378 286.338 39.4239 282.762 39.4239C279.186 39.4239 276.286 36.5378 276.286 32.9785ZM302.447 48.0613C302.447 47.5602 302.379 47.0801 302.264 46.6156L303.439 45.6605L301.986 43.1555L300.565 43.6878C299.862 43.0198 299.002 42.5135 298.048 42.2369L297.801 40.7495H294.891L294.645 42.2369C293.685 42.5135 292.825 43.0145 292.128 43.6878L290.707 43.1555L289.254 45.6605L290.429 46.6156C290.313 47.0801 290.245 47.5655 290.245 48.0613C290.245 48.5571 290.313 49.0424 290.429 49.5069L289.254 50.462L290.707 52.9671L292.128 52.4347C292.83 53.1028 293.69 53.609 294.645 53.8856L294.891 55.373H297.801L298.048 53.8856C299.007 53.609 299.867 53.108 300.565 52.4347L301.986 52.9671L303.439 50.462L302.264 49.5069C302.379 49.0424 302.447 48.5571 302.447 48.0613ZM296.349 51.9128C294.215 51.9128 292.479 50.1906 292.479 48.0613C292.479 45.9319 294.209 44.2097 296.349 44.2097C298.488 44.2097 300.219 45.9319 300.219 48.0613C300.219 50.1906 298.488 51.9128 296.349 51.9128Z" fill="#CFE2C4"/>
</g>
<g style="mix-blend-mode:screen" opacity="0.3">
<path d="M13.2096 35.4784C13.2096 36.7622 12.1661 37.8008 10.8761 37.8008C9.58611 37.8008 8.54259 36.7622 8.54259 35.4784C8.54259 34.1945 9.58611 33.1559 10.8761 33.1559C12.1661 33.1559 13.2096 34.1945 13.2096 35.4784ZM19.9636 30.536C20.5194 30.0768 20.5981 29.2522 20.1366 28.699C17.8399 25.9434 14.4628 24.3672 10.8813 24.3672C7.2998 24.3672 3.92804 25.9486 1.62601 28.699C1.16455 29.2522 1.23796 30.0768 1.79905 30.536C2.3549 30.9953 3.18342 30.9222 3.64487 30.3638C5.4435 28.2084 8.08113 26.9715 10.8813 26.9715C13.6815 26.9715 16.3192 28.2084 18.1178 30.3638C18.3747 30.6717 18.7523 30.8335 19.1246 30.8335C19.4182 30.8335 19.7171 30.7344 19.9636 30.5308V30.536ZM0.414688 27.7022C3.01562 24.5864 6.82786 22.8016 10.8813 22.8016C14.9348 22.8016 18.747 24.5864 21.348 27.7022C21.8094 28.2554 22.6379 28.3284 23.1938 27.8744C23.7496 27.4151 23.8283 26.5905 23.3668 26.0373C20.2677 22.3266 15.7161 20.1973 10.8866 20.1973C6.05702 20.1973 1.5054 22.3266 -1.59369 26.0373C-2.05514 26.5905 -1.98173 27.4151 -1.42064 27.8744C-1.17419 28.0779 -0.880532 28.1771 -0.581635 28.1771C-0.204081 28.1771 0.168229 28.0153 0.425176 27.7074L0.414688 27.7022ZM16.7387 33.2029C17.2945 32.7437 17.3732 31.9191 16.9117 31.3659C15.412 29.5705 13.2148 28.5424 10.8813 28.5424C8.54783 28.5424 6.35068 29.5705 4.85095 31.3659C4.38949 31.9191 4.46291 32.7437 5.02399 33.2029C5.57984 33.6622 6.40836 33.5891 6.86981 33.0307C7.86614 31.8356 9.32916 31.1519 10.8813 31.1519C12.4335 31.1519 13.8965 31.8356 14.8928 33.0307C15.155 33.3438 15.5273 33.5004 15.8996 33.5004C16.1933 33.5004 16.4922 33.4012 16.7387 33.1977V33.2029Z" fill="#CFE2C4"/>
</g>
<path d="M60.8758 135.536L54.0378 141.115L58.2172 148.876L49.7484 151.412L50.6241 160.169L41.8198 159.303L39.2713 167.732L31.479 163.567L25.8681 170.378L20.2625 163.567L12.4702 167.732L9.92171 159.303L1.11736 160.169L1.99308 151.412L-6.47567 148.87L-2.29635 141.115L-9.13428 135.536L-2.29635 129.957L-6.47567 122.202L1.99308 119.66L1.11736 110.903L9.92171 111.774L12.4702 103.346L20.2625 107.505L25.8681 100.7L31.479 107.505L39.2713 103.346L41.8198 111.774L50.6241 110.903L49.7484 119.66L58.2172 122.202L54.0378 129.957L60.8758 135.536Z" fill="#4FF4FF"/>
<path d="M36.6337 141.444C36.6337 132.702 24.1796 132.509 24.1796 128.861C24.1796 126.935 25.1917 126.361 27.2682 126.361C29.0564 126.361 30.5561 127.133 32.2918 128.668L36.3925 123.96C34.4837 121.946 32.1555 120.448 29.1036 119.937V115.026H23.6972V120.083C19.0459 121.085 16.2615 124.388 16.2615 129.242C16.2615 137.65 28.7155 138.177 28.7155 142.023C28.7155 143.897 27.7507 144.716 25.3385 144.716C23.3092 144.716 21.2851 143.944 18.6789 142.023L15.1078 147.592C17.499 149.737 20.939 150.885 23.6972 151.219V156.046H29.1036V150.932C34.1743 149.752 36.6337 146.083 36.6337 141.444Z" fill="white"/>
<path d="M103.802 16.2674H36.728C35.28 16.2674 34.1061 17.4357 34.1061 18.8769V67.9089C34.1061 69.3501 35.28 70.5184 36.728 70.5184H103.802C105.25 70.5184 106.423 69.3501 106.423 67.9089V18.8769C106.423 17.4357 105.25 16.2674 103.802 16.2674Z" fill="#5302D6"/>
<path d="M101.851 21.7734C102.381 21.7734 102.81 21.3458 102.81 20.8184C102.81 20.2909 102.381 19.8633 101.851 19.8633C101.321 19.8633 100.891 20.2909 100.891 20.8184C100.891 21.3458 101.321 21.7734 101.851 21.7734Z" fill="#4794F2"/>
<path d="M97.6768 21.7734C98.2068 21.7734 98.6364 21.3458 98.6364 20.8184C98.6364 20.2909 98.2068 19.8633 97.6768 19.8633C97.1468 19.8633 96.7172 20.2909 96.7172 20.8184C96.7172 21.3458 97.1468 21.7734 97.6768 21.7734Z" fill="#4FF4FF"/>
<path d="M93.5027 21.7734C94.0327 21.7734 94.4623 21.3458 94.4623 20.8184C94.4623 20.2909 94.0327 19.8633 93.5027 19.8633C92.9727 19.8633 92.5431 20.2909 92.5431 20.8184C92.5431 21.3458 92.9727 21.7734 93.5027 21.7734Z" fill="#FEFFFF"/>
<path d="M66.3975 27.1229H42.0558C41.5733 27.1229 41.1801 26.7314 41.1801 26.2513C41.1801 25.7712 41.5733 25.3797 42.0558 25.3797H66.3975C66.8799 25.3797 67.2732 25.7712 67.2732 26.2513C67.2732 26.7314 66.8799 27.1229 66.3975 27.1229Z" fill="#4FF4FF"/>
<path d="M46.0778 32.1226H42.0558C41.5733 32.1226 41.1801 31.7312 41.1801 31.251C41.1801 30.7709 41.5733 30.3795 42.0558 30.3795H46.0778C46.5602 30.3795 46.9535 30.7709 46.9535 31.251C46.9535 31.7312 46.5602 32.1226 46.0778 32.1226Z" fill="#4FF4FF"/>
<path d="M86.5128 32.1226H82.4908C82.0083 32.1226 81.6151 31.7312 81.6151 31.251C81.6151 30.7709 82.0083 30.3795 82.4908 30.3795H86.5128C86.9952 30.3795 87.3885 30.7709 87.3885 31.251C87.3885 31.7312 86.9952 32.1226 86.5128 32.1226Z" fill="#4794F2"/>
<path d="M75.5951 32.1226H65.7892C65.3068 32.1226 64.9135 31.7312 64.9135 31.251C64.9135 30.7709 65.3068 30.3795 65.7892 30.3795H75.5951C76.0776 30.3795 76.4709 30.7709 76.4709 31.251C76.4709 31.7312 76.0776 32.1226 75.5951 32.1226Z" fill="#FEFFFF"/>
<path d="M62.0609 32.1226H53.8281C53.3457 32.1226 52.9524 31.7312 52.9524 31.251C52.9524 30.7709 53.3457 30.3795 53.8281 30.3795H62.0609C62.5433 30.3795 62.9366 30.7709 62.9366 31.251C62.9366 31.7312 62.5433 32.1226 62.0609 32.1226Z" fill="#FEFFFF"/>
<path d="M50.0263 32.1174C49.7851 32.1174 49.5701 32.0287 49.4023 31.8617C49.2398 31.6999 49.1506 31.4807 49.1506 31.2458C49.1506 31.1936 49.1559 31.1362 49.1664 31.0788C49.1716 31.0266 49.1873 30.9692 49.2136 30.917C49.2345 30.8648 49.2608 30.8127 49.2975 30.7657C49.3289 30.7187 49.3656 30.6717 49.4023 30.63C49.4443 30.5882 49.4915 30.5569 49.5387 30.5256C49.5859 30.4891 49.6383 30.4682 49.6907 30.4421C49.7432 30.4212 49.8009 30.4004 49.8533 30.3899C50.1417 30.3377 50.4459 30.4265 50.6399 30.63C50.8077 30.7918 50.9021 31.0214 50.9021 31.2458C50.9021 31.4859 50.8077 31.6999 50.6399 31.8617C50.4773 32.0287 50.2623 32.1174 50.0263 32.1174Z" fill="#4FF4FF"/>
<path d="M72.8369 52.1216H64.6041C64.1217 52.1216 63.7284 51.7302 63.7284 51.25C63.7284 50.7699 64.1217 50.3785 64.6041 50.3785H72.8369C73.3193 50.3785 73.7126 50.7699 73.7126 51.25C73.7126 51.7302 73.3193 52.1216 72.8369 52.1216Z" fill="#FEFFFF"/>
<path d="M60.7972 52.1216C60.5612 52.1216 60.3409 52.0277 60.1784 51.8659C60.0945 51.7824 60.0316 51.6832 59.9844 51.5788C59.9424 51.4745 59.9214 51.3649 59.9214 51.2448C59.9214 51.01 60.0158 50.7908 60.1784 50.629C60.2203 50.5872 60.2623 50.5455 60.3042 50.5194C60.3567 50.4881 60.4039 50.462 60.4563 50.4359C60.5088 50.415 60.5664 50.3994 60.6189 50.3889C60.7342 50.368 60.8548 50.368 60.965 50.3889C61.0226 50.3994 61.0751 50.4098 61.1275 50.4359C61.18 50.4568 61.2324 50.4881 61.2796 50.5194C61.3268 50.5507 61.374 50.5872 61.4159 50.629C61.5785 50.7908 61.6729 51.0152 61.6729 51.2448C61.6729 51.4745 61.5785 51.6989 61.4159 51.8607C61.332 51.9442 61.2324 52.0068 61.1275 52.0485C61.0226 52.0955 60.9125 52.1164 60.7919 52.1164L60.7972 52.1216Z" fill="#4FF4FF"/>
<path d="M53.0416 42.1221H49.0196C48.5371 42.1221 48.1439 41.7307 48.1439 41.2505C48.1439 40.7704 48.5371 40.379 49.0196 40.379H53.0416C53.524 40.379 53.9173 40.7704 53.9173 41.2505C53.9173 41.7307 53.524 42.1221 53.0416 42.1221Z" fill="#4794F2"/>
<path d="M74.0325 42.1221H72.7583C72.2759 42.1221 71.8826 41.7307 71.8826 41.2505C71.8826 40.7704 72.2759 40.379 72.7583 40.379H74.0325C74.515 40.379 74.9082 40.7704 74.9082 41.2505C74.9082 41.7307 74.515 42.1221 74.0325 42.1221Z" fill="#4FF4FF"/>
<path d="M69.0299 42.1221H60.7972C60.3147 42.1221 59.9214 41.7307 59.9214 41.2505C59.9214 40.7704 60.3147 40.379 60.7972 40.379H69.0299C69.5124 40.379 69.9057 40.7704 69.9057 41.2505C69.9057 41.7307 69.5124 42.1221 69.0299 42.1221Z" fill="#FEFFFF"/>
<path d="M56.9902 42.1169C56.7542 42.1169 56.5339 42.0282 56.3714 41.8664C56.2875 41.7829 56.2246 41.6837 56.1774 41.5793C56.1354 41.475 56.1144 41.3654 56.1144 41.2505C56.1144 41.1931 56.1197 41.1357 56.1302 41.0783C56.1407 41.0261 56.1616 40.9687 56.1774 40.9165C56.1983 40.8643 56.2298 40.8174 56.2613 40.7652C56.2927 40.7182 56.3294 40.6765 56.3714 40.6347C56.6913 40.3111 57.2838 40.3111 57.6089 40.6347C57.6509 40.6765 57.6823 40.7182 57.7191 40.7652C57.7505 40.8174 57.7715 40.8643 57.7925 40.9165C57.8134 40.9687 57.8344 41.0261 57.8449 41.0783C57.8554 41.1357 57.8606 41.1931 57.8606 41.2505C57.8606 41.3654 57.8397 41.475 57.7925 41.5793C57.7505 41.6837 57.6876 41.7829 57.6037 41.8664C57.4359 42.0282 57.2156 42.1169 56.9849 42.1169H56.9902Z" fill="#4794F2"/>
<path d="M74.0325 47.1219H70.0105C69.5281 47.1219 69.1348 46.7304 69.1348 46.2503C69.1348 45.7701 69.5281 45.3787 70.0105 45.3787H74.0325C74.5149 45.3787 74.9082 45.7701 74.9082 46.2503C74.9082 46.7304 74.5149 47.1219 74.0325 47.1219Z" fill="#4794F2"/>
<path d="M50.2938 47.1219H49.0196C48.5371 47.1219 48.1439 46.7304 48.1439 46.2503C48.1439 45.7701 48.5371 45.3787 49.0196 45.3787H50.2938C50.7762 45.3787 51.1695 45.7701 51.1695 46.2503C51.1695 46.7304 50.7762 47.1219 50.2938 47.1219Z" fill="#4FF4FF"/>
<path d="M62.2602 47.1219H54.0274C53.545 47.1219 53.1517 46.7304 53.1517 46.2503C53.1517 45.7701 53.545 45.3787 54.0274 45.3787H62.2602C62.7426 45.3787 63.1359 45.7701 63.1359 46.2503C63.1359 46.7304 62.7426 47.1219 62.2602 47.1219Z" fill="#4FF4FF"/>
<path d="M66.0619 47.1218C65.9466 47.1218 65.8312 47.101 65.7263 47.054C65.6214 47.0123 65.5218 46.9496 65.4379 46.8661C65.354 46.7826 65.2911 46.6835 65.2439 46.5791C65.2019 46.4747 65.181 46.3651 65.181 46.2451C65.181 46.1877 65.1862 46.1302 65.1967 46.0728C65.2072 46.0207 65.2282 45.9632 65.2491 45.9111C65.2649 45.8589 65.2963 45.8119 65.3278 45.7597C65.3645 45.7127 65.396 45.671 65.4379 45.6345C65.4799 45.5927 65.5271 45.5509 65.5743 45.5249C65.6214 45.4935 65.6739 45.4674 65.7263 45.4413C65.7788 45.4205 65.8312 45.4048 65.8889 45.3944C65.999 45.3735 66.1144 45.3735 66.2297 45.3944C66.2874 45.4048 66.3451 45.4153 66.3975 45.4413C66.45 45.4622 66.4972 45.4935 66.5444 45.5249C66.5968 45.5562 66.6387 45.5927 66.6807 45.6345C66.7226 45.6762 66.7541 45.718 66.7908 45.7597C66.8223 45.8119 66.8485 45.8589 66.8747 45.9111C66.8904 45.9632 66.9114 46.0207 66.9219 46.0728C66.9324 46.1302 66.9376 46.1877 66.9376 46.2451C66.9376 46.3599 66.9167 46.4695 66.8747 46.5791C66.8275 46.6835 66.7646 46.7826 66.6807 46.8661C66.5968 46.9496 66.5076 47.0123 66.3975 47.054C66.2874 47.101 66.1773 47.1218 66.0567 47.1218H66.0619Z" fill="#4FF4FF"/>
<path d="M78.9826 32.1174C78.7467 32.1174 78.5264 32.0287 78.3639 31.8617C78.2747 31.7782 78.2171 31.6842 78.1699 31.5798C78.1279 31.4755 78.1069 31.3606 78.1069 31.2406C78.1069 31.0162 78.2013 30.7866 78.3639 30.6248C78.4006 30.583 78.4478 30.5517 78.495 30.5204C78.5422 30.4839 78.5946 30.463 78.647 30.4369C78.6995 30.416 78.7572 30.3951 78.8096 30.3847C78.925 30.369 79.0456 30.369 79.1557 30.3847C79.2134 30.3951 79.2658 30.416 79.3183 30.4369C79.3707 30.4578 79.4231 30.4839 79.4703 30.5204C79.5175 30.5517 79.5647 30.583 79.6067 30.6248C79.7692 30.7918 79.8636 31.0162 79.8636 31.2406C79.8636 31.3554 79.8426 31.4755 79.7954 31.5798C79.7535 31.6842 79.6906 31.7782 79.6067 31.8617C79.4389 32.0287 79.2186 32.1174 78.9879 32.1174H78.9826Z" fill="#4FF4FF"/>
<path d="M79.3917 57.1214H66.0619C65.5795 57.1214 65.1862 56.7299 65.1862 56.2498C65.1862 55.7696 65.5795 55.3782 66.0619 55.3782H79.3917C79.8741 55.3782 80.2674 55.7696 80.2674 56.2498C80.2674 56.7299 79.8741 57.1214 79.3917 57.1214Z" fill="#FEFFFF"/>
<path d="M67.6823 62.1211H66.0672C65.5848 62.1211 65.1915 61.7297 65.1915 61.2495C65.1915 60.7694 65.5848 60.378 66.0672 60.378H67.6823C68.1647 60.378 68.558 60.7694 68.558 61.2495C68.558 61.7297 68.1647 62.1211 67.6823 62.1211Z" fill="#4FF4FF"/>
<path d="M91.5783 62.1211H89.9632C89.4807 62.1211 89.0875 61.7297 89.0875 61.2495C89.0875 60.7694 89.4807 60.378 89.9632 60.378H91.5783C92.0607 60.378 92.454 60.7694 92.454 61.2495C92.454 61.7297 92.0607 62.1211 91.5783 62.1211Z" fill="#4794F2"/>
<path d="M83.8437 62.1211H80.2307C79.7483 62.1211 79.355 61.7297 79.355 61.2495C79.355 60.7694 79.7483 60.378 80.2307 60.378H83.8437C84.3261 60.378 84.7194 60.7694 84.7194 61.2495C84.7194 61.7297 84.3261 62.1211 83.8437 62.1211Z" fill="#FEFFFF"/>
<path d="M77.0215 62.1211H75.4378C74.9554 62.1211 74.5621 61.7297 74.5621 61.2495C74.5621 60.7694 74.9554 60.378 75.4378 60.378H77.0215C77.5039 60.378 77.8972 60.7694 77.8972 61.2495C77.8972 61.7297 77.5039 62.1211 77.0215 62.1211Z" fill="#FEFFFF"/>
<path d="M71.5942 62.1211C71.4788 62.1211 71.3634 62.1002 71.2585 62.0585C71.1484 62.0115 71.054 61.9489 70.9701 61.8654C70.8076 61.6984 70.7132 61.4792 70.7132 61.2495C70.7132 61.1921 70.7184 61.1347 70.7289 61.0825C70.7394 61.0251 70.7604 60.9729 70.7761 60.9155C70.7971 60.8633 70.8286 60.8164 70.86 60.7694C70.8967 60.7172 70.9282 60.6755 70.9701 60.6337C71.0121 60.592 71.0593 60.5606 71.1065 60.5241C71.1537 60.4928 71.2061 60.4667 71.2585 60.4406C71.311 60.4249 71.3634 60.4041 71.4211 60.3936C71.5312 60.3728 71.6466 60.3728 71.762 60.3936C71.8196 60.4041 71.8721 60.4249 71.9245 60.4406C71.977 60.4615 72.0294 60.4928 72.0766 60.5241C72.1238 60.5606 72.171 60.592 72.2129 60.6337C72.2549 60.6755 72.2863 60.7172 72.323 60.7694C72.3545 60.8164 72.3807 60.8633 72.3965 60.9155C72.4174 60.9729 72.4384 61.0251 72.4489 61.0825C72.4594 61.1347 72.4646 61.1921 72.4646 61.2495C72.4646 61.3644 72.4437 61.4792 72.4017 61.5836C72.3545 61.6879 72.2916 61.7871 72.2077 61.8706C72.0451 62.0324 71.8196 62.1263 71.5889 62.1263L71.5942 62.1211Z" fill="#4FF4FF"/>
<path d="M86.8694 62.1211C86.6282 62.1211 86.4132 62.0272 86.2454 61.8654C86.1615 61.7819 86.0985 61.6931 86.0566 61.5783C86.0094 61.474 85.9884 61.3644 85.9884 61.2443C85.9884 61.1869 85.9936 61.1295 86.0041 61.0773C86.0146 61.0199 86.0356 60.9677 86.0566 60.9155C86.0776 60.8581 86.1038 60.8111 86.1405 60.7642C86.1719 60.712 86.2086 60.6702 86.2454 60.6285C86.5705 60.3049 87.1578 60.3049 87.4829 60.6285C87.5248 60.6702 87.5668 60.712 87.593 60.7642C87.6297 60.8111 87.6507 60.8581 87.6769 60.9155C87.6979 60.9677 87.7189 61.0199 87.7241 61.0773C87.7346 61.1295 87.7398 61.1869 87.7398 61.2443C87.7398 61.4792 87.6507 61.6984 87.4829 61.8602C87.399 61.9437 87.3046 62.0063 87.1997 62.0533C87.0949 62.095 86.9847 62.1159 86.8641 62.1159L86.8694 62.1211Z" fill="#4FF4FF"/>
<path d="M98.4791 37.1224H42.0558C41.5733 37.1224 41.1801 36.7309 41.1801 36.2508C41.1801 35.7706 41.5733 35.3792 42.0558 35.3792H98.4791C98.9616 35.3792 99.3548 35.7706 99.3548 36.2508C99.3548 36.7309 98.9616 37.1224 98.4791 37.1224Z" fill="#FEFFFF"/>
<path d="M244.047 36.1882C224.603 36.1882 208.84 51.8763 208.84 71.2281C208.84 75.9252 209.779 80.4083 211.462 84.4999L202.097 96.3L216.816 93.44C223.271 101.274 233.072 106.268 244.047 106.268C263.491 106.268 279.254 90.58 279.254 71.2281C279.254 51.8763 263.491 36.1882 244.047 36.1882Z" fill="#5302D6"/>
<path d="M244.047 56.0671H260.523L259.307 72.0684C258.614 81.1702 252.773 89.1448 244.204 92.4118C244.152 92.4327 244.1 92.4536 244.047 92.4692C243.995 92.4484 243.942 92.4275 243.89 92.4118C235.321 89.1448 229.48 81.1755 228.788 72.0684L227.571 56.0671H244.047Z" fill="#4FF4FF"/>
<path d="M252.285 67.3713L249.202 64.3078L244.613 68.8796L240.025 64.3078L236.942 67.3713L241.535 71.9431L236.942 76.5097L240.025 79.5732L244.613 75.0067L249.202 79.5732L252.285 76.5097L247.692 71.9431L252.285 67.3713Z" fill="#FEFFFF"/>
<path d="M207.938 43.6617C208.672 42.3935 210.513 42.3935 211.247 43.6617L216.685 53.0401L222.123 62.4186C222.857 63.6868 221.939 65.2733 220.466 65.2733H198.709C197.236 65.2733 196.318 63.6868 197.052 62.4186L202.49 53.0401L207.928 43.6617H207.938Z" fill="#4FF4FF"/>
<path d="M208.127 59.663C208.127 58.8175 208.741 58.1443 209.595 58.1443C210.45 58.1443 211.064 58.8175 211.064 59.663C211.064 60.5084 210.445 61.1817 209.595 61.1817C208.746 61.1817 208.127 60.5084 208.127 59.663ZM208.421 53.3846L208.332 51.2239H210.854L210.765 53.3846L210.413 57.4449H208.772L208.421 53.3846Z" fill="#5302D6"/>
<path d="M105.013 110.803H198.987C201.882 110.803 204.231 113.141 204.231 116.022V181.912H99.769V116.022C99.769 113.141 102.118 110.803 105.013 110.803Z" fill="#FEFFFF"/>
<path d="M149.737 145.269H154.268C156.078 145.269 157.545 143.809 157.545 142.007V142.002C157.545 140.201 156.078 138.74 154.268 138.74H149.737C147.927 138.74 146.46 140.201 146.46 142.002V142.007C146.46 143.809 147.927 145.269 149.737 145.269Z" fill="#ACCEDC"/>
<path d="M149.354 139.142C149.354 138.219 149.743 137.316 150.461 136.564L150.77 136.241V139.784L149.354 139.142Z" fill="#ACCEDC"/>
<path d="M154.64 139.142C154.64 138.219 154.252 137.316 153.534 136.564L153.224 136.241V139.784L154.64 139.142Z" fill="#ACCEDC"/>
<path d="M146.386 147.404L140.964 140.964V134.811H144.415V139.711L149.029 145.201L146.386 147.404Z" fill="#ACCEDC"/>
<path d="M150.991 149.048H139.559L135.589 145.097L138.028 142.665L140.991 145.614H150.991V149.048Z" fill="#ACCEDC"/>
<path d="M143.654 158.4H140.204V152.811L146.79 148.181L148.778 150.989L143.654 154.59V158.4Z" fill="#ACCEDC"/>
<path d="M157.613 147.404L154.971 145.201L159.585 139.711V134.811H163.036V140.964L157.613 147.404Z" fill="#ACCEDC"/>
<path d="M164.436 149.048H153.009V145.614H163.004L165.967 142.665L168.405 145.097L164.436 149.048Z" fill="#ACCEDC"/>
<path d="M163.796 158.4H160.345V154.59L155.217 150.989L157.21 148.181L163.796 152.811V158.4Z" fill="#ACCEDC"/>
<path d="M151.997 160.743C155.696 160.743 158.694 157.76 158.694 154.079C158.694 150.398 155.696 147.414 151.997 147.414C148.299 147.414 145.301 150.398 145.301 154.079C145.301 157.76 148.299 160.743 151.997 160.743Z" fill="#ACCEDC"/>
<path d="M151.997 154.95C155.696 154.95 158.694 151.967 158.694 148.286C158.694 144.605 155.696 141.621 151.997 141.621C148.299 141.621 145.301 144.605 145.301 148.286C145.301 151.967 148.299 154.95 151.997 154.95Z" fill="#ACCEDC"/>
<path d="M270.161 121.08C270.161 122.75 268.798 124.107 267.12 124.107C265.442 124.107 264.078 122.75 264.078 121.08C264.078 119.409 265.442 118.053 267.12 118.053C268.798 118.053 270.161 119.409 270.161 121.08Z" fill="#4FF4FF"/>
<path d="M300.701 150.807C298.887 152.722 295.987 153.307 293.376 152.92C290.759 152.534 288.352 151.318 286.024 150.071C283.696 148.823 281.352 147.513 278.777 146.919C275.033 146.057 270.932 146.84 267.775 149.027V124.206C270.932 122.024 275.028 121.236 278.777 122.097C281.352 122.692 283.696 124.002 286.024 125.249C288.352 126.497 290.759 127.718 293.376 128.099C295.992 128.485 298.892 127.901 300.701 125.985V150.807Z" fill="#5302D6"/>
<path d="M268.373 121.894H265.867V172.627H268.373V121.894Z" fill="#4FF4FF"/>
<path d="M265.867 168.708V172.627H268.373V170.706C267.539 170.038 266.711 169.365 265.867 168.708Z" fill="#7300FF"/>
<path d="M279.091 176.458H255.148L256.601 171.776H277.639L279.091 176.458Z" fill="#4FF4FF"/>
<path d="M256.365 172.538L255.148 176.458H277.219C270.256 175.487 263.108 174.61 256.365 172.538Z" fill="#7300FF"/>
<path d="M283.706 176.458H250.534L248.106 181.828H286.129L283.706 176.458Z" fill="#4FF4FF"/>
<path d="M250.282 177.006L248.106 181.828H274.645C266.386 180.951 258.2 179.641 250.282 177.006Z" fill="#7300FF"/>
<path d="M282.51 136.016C282.642 136.053 282.767 136.079 282.888 136.094V136.804C282.888 137.217 283.25 137.697 283.701 137.916C284.713 138.401 285.72 139.017 286.732 139.508C287.177 139.727 287.544 139.482 287.544 139.007V138.198C287.665 138.271 287.791 138.328 287.922 138.37C288.813 138.657 289.537 137.822 289.537 136.815C289.537 136.334 289.369 135.917 289.097 135.593C289.375 134.967 289.532 134.221 289.532 133.464C289.532 130.829 287.602 129.023 285.221 128.308C282.841 127.598 280.911 129.628 280.911 131.737C280.911 132.326 281.068 132.859 281.346 133.365C281.074 133.621 280.906 133.976 280.906 134.346C280.906 135.113 281.629 135.719 282.521 136.006L282.51 136.016ZM286.753 133.788C287.356 133.986 287.854 134.602 287.854 135.254C287.854 135.907 287.361 136.308 286.753 136.068C286.144 135.828 285.651 135.103 285.651 134.497C285.651 133.887 286.144 133.589 286.753 133.782V133.788ZM285.363 135.849C285.494 136.121 285.62 136.392 285.751 136.663C285.824 136.82 285.741 136.935 285.599 136.867C285.342 136.742 285.08 136.616 284.823 136.491C284.681 136.423 284.597 136.235 284.671 136.152C284.802 136.006 284.928 135.86 285.059 135.713C285.127 135.635 285.295 135.713 285.363 135.854V135.849ZM283.669 132.655C284.272 132.848 284.77 133.532 284.77 134.127C284.77 134.727 284.278 134.983 283.669 134.743C283.061 134.503 282.568 133.923 282.568 133.37C282.568 132.817 283.061 132.457 283.669 132.65V132.655ZM292.495 145.04C292.395 145.442 292.201 145.833 291.965 146.115C292.07 146.35 292.086 146.678 291.986 147.054C291.776 147.863 291.147 148.458 290.57 148.228C290.03 148.02 289.736 147.294 289.883 146.705C288.326 145.906 286.768 144.241 285.211 142.649C283.654 142.19 282.096 141.653 280.539 141.981C280.686 142.482 280.392 142.905 279.852 143.088C279.28 143.27 278.646 143.281 278.436 142.952C278.336 142.79 278.352 142.555 278.457 142.3C278.221 142.331 278.027 142.31 277.927 142.175C277.718 141.908 278.016 141.11 278.588 140.604C279.128 140.123 279.726 140.207 279.962 140.63C280.89 140.254 281.818 140.223 282.746 140.343C281.818 139.596 280.89 139.054 279.962 138.913C279.726 139.382 279.128 139.716 278.588 139.889C278.016 140.066 277.723 139.899 277.927 139.247C278.027 138.944 278.221 138.615 278.457 138.349C278.352 138.224 278.336 138.01 278.436 137.718C278.646 137.096 279.275 136.449 279.852 136.481C280.392 136.507 280.686 137.034 280.539 137.504C282.096 137.926 283.654 139.356 285.211 140.87C286.768 141.251 288.326 141.559 289.883 140.849C289.736 140.228 290.03 139.607 290.57 139.236C291.142 138.855 291.776 138.793 291.986 139.315C292.086 139.565 292.07 139.915 291.965 140.28C292.201 140.259 292.395 140.343 292.495 140.577C292.704 141.063 292.405 142.154 291.834 142.749C291.289 143.312 290.696 143.14 290.46 142.587C289.532 143.119 288.604 143.25 287.676 143.177C288.604 143.97 289.532 144.612 290.46 144.909C290.696 144.309 291.294 143.886 291.834 143.798C292.405 143.704 292.704 144.168 292.495 145.04Z" fill="#FEFFFF"/>
<path d="M59.9686 126.575C72.3204 126.575 82.3334 116.609 82.3334 104.316C82.3334 92.0231 72.3204 82.0575 59.9686 82.0575C47.6168 82.0575 37.6038 92.0231 37.6038 104.316C37.6038 116.609 47.6168 126.575 59.9686 126.575Z" fill="#5302D6"/>
<path d="M55.7526 94.8961V100.647L59.439 104.316L55.7526 107.985V113.736L65.2176 104.316L55.7526 94.8961Z" fill="#4FF4FF"/>
<path d="M297.418 114.195C309.594 109.333 315.505 95.5682 310.62 83.45C305.735 71.3318 291.904 65.4493 279.729 70.3109C267.553 75.1726 261.642 88.9374 266.527 101.056C271.412 113.174 285.242 119.056 297.418 114.195Z" fill="#4FF4FF"/>
<path d="M297.98 97.4272C297.98 89.7815 287.088 89.6145 287.088 86.4257C287.088 84.7452 287.974 84.239 289.789 84.239C291.351 84.239 292.662 84.9122 294.183 86.2587L297.77 82.141C296.102 80.377 294.063 79.067 291.393 78.6234V74.3282H286.669V78.7487C282.6 79.6254 280.166 82.5115 280.166 86.7597C280.166 94.108 291.058 94.5725 291.058 97.9335C291.058 99.5722 290.214 100.287 288.1 100.287C286.328 100.287 284.556 99.614 282.274 97.9335L279.154 102.803C281.247 104.682 284.251 105.684 286.669 105.976V110.198H291.393V105.725C295.83 104.692 297.98 101.482 297.98 97.4272Z" fill="#5302D6"/>
<g style="mix-blend-mode:screen" opacity="0.3">
<path d="M27.0532 78.3729C26.6809 77.9345 26.2719 77.5274 25.8314 77.1621C24.059 75.6851 21.7779 74.7927 19.2924 74.7927C16.8068 74.7927 14.5257 75.6851 12.7533 77.1621C12.3129 77.5274 11.9038 77.9345 11.5315 78.3729C10.0213 80.1369 9.10889 82.4228 9.10889 84.9175C9.10889 87.4121 10.0213 89.698 11.5263 91.4724C11.9038 91.9108 12.3129 92.3127 12.7533 92.6832C14.5257 94.1654 16.8068 95.0526 19.2924 95.0526C21.7779 95.0526 24.059 94.1602 25.8314 92.6832C26.2719 92.3127 26.6809 91.9108 27.0584 91.4724C28.5634 89.7032 29.4758 87.4173 29.4758 84.9175C29.4758 82.4176 28.5634 80.1369 27.0532 78.3729ZM27.7087 84.0615H23.2147C23.1885 83.1117 23.1098 82.1671 22.984 81.259C24.0275 80.8571 24.9871 80.2882 25.8314 79.5837C26.8592 80.831 27.5356 82.3706 27.7087 84.0615ZM19.2924 93.3408C18.8624 93.3408 18.0653 92.1353 17.5514 89.7763C18.1125 89.6615 18.6946 89.5988 19.2924 89.5988C19.8902 89.5988 20.467 89.6615 21.0333 89.7763C20.5247 92.1353 19.7223 93.3408 19.2924 93.3408ZM19.2924 87.887C18.6002 87.887 17.9185 87.9549 17.2682 88.0853C17.1843 87.3808 17.1214 86.6188 17.0952 85.7786H21.4895C21.4685 86.6188 21.4056 87.3808 21.3165 88.0853C20.661 87.9549 19.9845 87.887 19.2924 87.887ZM17.0952 84.0668C17.1162 83.2265 17.1791 82.4593 17.2682 81.76C17.9237 81.8905 18.6002 81.9583 19.2924 81.9583C19.9845 81.9583 20.6662 81.8905 21.3165 81.76C21.4004 82.4645 21.4633 83.2265 21.4895 84.0668H17.09H17.0952ZM19.2924 76.5097C19.7171 76.5097 20.5194 77.7101 21.0333 80.069C20.4722 80.1839 19.8902 80.2465 19.2924 80.2465C18.6946 80.2465 18.1177 80.1839 17.5514 80.069C18.0601 77.7101 18.8676 76.5097 19.2924 76.5097ZM24.5938 78.3781C24.0223 78.8478 23.3773 79.234 22.6851 79.5367C22.4596 78.5347 22.1764 77.6266 21.8146 76.8855C22.8424 77.2039 23.7811 77.7153 24.5991 78.3781H24.5938ZM16.7753 76.8855C16.4135 77.6266 16.1199 78.5347 15.9049 79.5367C15.2127 79.2392 14.5677 78.8478 13.9856 78.3781C14.7984 77.7153 15.7475 77.2091 16.7753 76.8855ZM12.7533 79.5889C13.5976 80.2935 14.5572 80.8623 15.6007 81.2642C15.4749 82.1723 15.4015 83.1221 15.3752 84.0668H10.876C11.0491 82.3758 11.7255 80.831 12.7533 79.5889ZM10.876 85.7838H15.3752C15.3962 86.7336 15.4749 87.6783 15.6007 88.5864C14.5572 88.9882 13.5976 89.5571 12.7533 90.2616C11.7203 89.0143 11.0491 87.4747 10.876 85.7838ZM13.9804 91.4777C14.5624 91.0027 15.2074 90.6113 15.9049 90.3138C16.1251 91.3211 16.4135 92.224 16.7753 92.9703C15.7475 92.6519 14.7984 92.1352 13.9804 91.4777ZM21.8094 92.9703C22.1712 92.224 22.4596 91.3211 22.6799 90.3138C23.372 90.6165 24.017 91.0027 24.5991 91.4777C23.7863 92.1352 22.8372 92.6415 21.8094 92.9703ZM25.8261 90.2616C24.9819 89.5571 24.0223 88.9882 22.9788 88.5864C23.1046 87.6783 23.178 86.7284 23.2095 85.7838H27.7034C27.5304 87.4747 26.8592 89.0143 25.8261 90.2616Z" fill="#CFE2C4"/>
</g>
<path d="M318.399 187H-14.4043C-15.8411 187 -17 185.841 -17 184.417C-17 182.987 -15.8359 181.833 -14.4043 181.833H318.399C319.836 181.833 320.995 182.992 320.995 184.417C320.995 185.847 319.831 187 318.399 187Z" fill="#270088"/>
<path d="M35.8418 45.0969H10.2311C8.78306 45.0969 7.60919 46.2652 7.60919 47.7064V61.9958C7.60919 63.437 8.78306 64.6053 10.2311 64.6053H35.8418C37.2899 64.6053 38.4637 63.437 38.4637 61.9958V47.7064C38.4637 46.2652 37.2899 45.0969 35.8418 45.0969Z" fill="#4FF4FF"/>
<path d="M7.67211 53.9065L38.4637 53.9065V49.413H7.67211V53.9065Z" fill="#7300FF"/>
<path d="M35.2912 57.1892H27.7349C27.3836 57.1892 27.1004 56.9074 27.1004 56.5577C27.1004 56.208 27.3836 55.9262 27.7349 55.9262H35.2912C35.6426 55.9262 35.9257 56.208 35.9257 56.5577C35.9257 56.9074 35.6426 57.1892 35.2912 57.1892Z" fill="#FEFFFF"/>
<path d="M35.2912 60.284H31.2483C30.8969 60.284 30.6138 60.0022 30.6138 59.6525C30.6138 59.3029 30.8969 59.021 31.2483 59.021H35.2912C35.6426 59.021 35.9257 59.3029 35.9257 59.6525C35.9257 60.0022 35.6426 60.284 35.2912 60.284Z" fill="#FEFFFF"/>
<path d="M10.8341 57.1892H12.5384C12.8897 57.1892 13.1729 56.9074 13.1729 56.5577C13.1729 56.208 12.8897 55.9262 12.5384 55.9262H10.8341C10.4828 55.9262 10.1996 56.208 10.1996 56.5577C10.1996 56.9074 10.4828 57.1892 10.8341 57.1892Z" fill="#FEFFFF"/>
<path d="M251.441 31.5963C252.233 26.7134 248.898 22.1161 243.992 21.3279C239.086 20.5396 234.467 23.859 233.675 28.7419C232.883 33.6248 236.218 38.2221 241.124 39.0104C246.03 39.7986 250.649 36.4792 251.441 31.5963Z" fill="#4FF4FF"/>
<path d="M245.83 31.966C245.83 29.3044 242.034 29.2417 242.034 28.1301C242.034 27.5456 242.343 27.3681 242.977 27.3681C243.523 27.3681 243.979 27.603 244.509 28.0727L245.757 26.6375C245.175 26.0217 244.467 25.5676 243.533 25.411V23.9132H241.887V25.4528C240.471 25.7555 239.621 26.7627 239.621 28.2449C239.621 30.8074 243.418 30.9692 243.418 32.1383C243.418 32.7071 243.124 32.9576 242.39 32.9576C241.771 32.9576 241.158 32.7228 240.361 32.1383L239.275 33.8344C240.004 34.4868 241.053 34.8364 241.892 34.9408V36.4126H243.538V34.8521C245.085 34.492 245.835 33.3751 245.835 31.9608L245.83 31.966Z" fill="#FEFFFF"/>
</svg>
