<svg width="20" height="19" viewBox="0 0 20 19" fill="none" xmlns="http://www.w3.org/2000/svg">
<path d="M8.44416 10.5787C7.29381 11.4924 7.10234 13.1658 8.01585 14.3158C8.92935 15.4658 10.6026 15.6579 11.753 14.7441C12.9033 13.8303 13.0948 12.157 12.1813 11.007C11.2678 9.85697 9.59416 9.66516 8.44416 10.5787ZM11.2015 14.0498C10.4347 14.6589 9.31918 14.5311 8.71008 13.7643C8.10099 12.9975 8.22884 11.882 8.99563 11.2729C9.76241 10.6638 10.8779 10.7917 11.487 11.5584C12.0961 12.3252 11.9683 13.4408 11.2015 14.0498Z" fill="#3B88C3"/>
<path d="M2.83117 12.2197L2.83669 12.2266C2.54988 12.579 2.74056 13.3764 3.30885 14.0918C3.87713 14.8072 4.61071 15.1734 5.01856 14.9734L5.02435 14.9807L17.1851 9.83409L10.5993 1.54317L2.83117 12.2197Z" fill="#55ACEE"/>
<path d="M17.3783 9.7095C18.3369 8.94809 17.6325 6.46592 15.8051 4.16542C13.9777 1.86492 11.7193 0.617244 10.7607 1.37866C9.8022 2.14008 10.5065 4.62225 12.3339 6.92275C14.1613 9.22324 16.4198 10.4709 17.3783 9.7095Z" fill="#226699"/>
</svg>
