<svg width="46" height="55" viewBox="0 0 46 55" fill="none" xmlns="http://www.w3.org/2000/svg">
<path d="M44.5 23.5C44.5 35.6808 34.8439 45.5 23 45.5C11.1561 45.5 1.5 35.6808 1.5 23.5C1.5 11.3192 11.1561 1.5 23 1.5C34.8439 1.5 44.5 11.3192 44.5 23.5Z" fill="#1E2237" stroke="#009BD6" stroke-width="3"/>
<rect x="22" y="38.1247" width="11.5661" height="11.5661" rx="5.78306" transform="rotate(45 22 38.1247)" fill="#009BD6"/>
<path d="M20.517 49V48.2386L22.5369 46.2585C22.7301 46.0634 22.8911 45.8902 23.0199 45.7386C23.1487 45.5871 23.2453 45.4403 23.3097 45.2983C23.3741 45.1562 23.4062 45.0047 23.4062 44.8438C23.4062 44.66 23.3646 44.5028 23.2812 44.3722C23.1979 44.2396 23.0833 44.1373 22.9375 44.0653C22.7917 43.9934 22.6259 43.9574 22.4403 43.9574C22.2491 43.9574 22.0814 43.9972 21.9375 44.0767C21.7936 44.1544 21.6818 44.2652 21.6023 44.4091C21.5246 44.553 21.4858 44.7244 21.4858 44.9233H20.483C20.483 44.554 20.5672 44.233 20.7358 43.9602C20.9044 43.6875 21.1364 43.4763 21.4318 43.3267C21.7292 43.1771 22.0701 43.1023 22.4545 43.1023C22.8447 43.1023 23.1875 43.1752 23.483 43.321C23.7784 43.4669 24.0076 43.6667 24.1705 43.9205C24.3352 44.1742 24.4176 44.464 24.4176 44.7898C24.4176 45.0076 24.3759 45.2216 24.2926 45.4318C24.2093 45.642 24.0625 45.875 23.8523 46.1307C23.6439 46.3864 23.3513 46.696 22.9744 47.0597L21.9716 48.0795V48.1193H24.5057V49H20.517Z" fill="white"/>
</svg>
