<svg width="24" height="24" viewBox="0 0 24 24" fill="none" xmlns="http://www.w3.org/2000/svg">
<g id="eye">
<g id="vuesax/bold/eye">
<path id="Vector" d="M15.0832 11.05C14.3132 9.83998 13.1865 9.14331 11.9998 9.14331C11.4065 9.14331 10.8298 9.31664 10.3032 9.63998C9.7765 9.96664 9.30317 10.4433 8.9165 11.05C8.58317 11.5733 8.58317 12.4233 8.9165 12.9466C9.6865 14.16 10.8132 14.8533 11.9998 14.8533C12.5932 14.8533 13.1698 14.68 13.6965 14.3566C14.2232 14.03 14.6965 13.5533 15.0832 12.9466C15.4165 12.4266 15.4165 11.5733 15.0832 11.05ZM11.9998 13.3466C11.2532 13.3466 10.6532 12.7433 10.6532 12C10.6532 11.2566 11.2532 10.6533 11.9998 10.6533C12.7465 10.6533 13.3465 11.2566 13.3465 12C13.3465 12.7433 12.7465 13.3466 11.9998 13.3466Z" fill="white"/>
<path id="Vector_2" d="M12 11.0467C11.4767 11.0467 11.05 11.4734 11.05 12C11.05 12.5234 11.4767 12.95 12 12.95C12.5234 12.95 12.9534 12.5234 12.9534 12C12.9534 11.4767 12.5234 11.0467 12 11.0467Z" fill="white"/>
</g>
</g>
</svg>
