<svg width="48" height="48" viewBox="0 0 48 48" fill="none" xmlns="http://www.w3.org/2000/svg">
<rect width="48" height="48" rx="24" fill="#1B217F"/>
<path d="M26.7051 17.7227L19.4641 19.4524C14.5977 20.6113 14.3714 23.1977 18.9627 25.184L20.3512 25.7859C20.7551 25.9648 21.0502 26.3164 21.1562 26.7453L21.5028 28.2112C22.6617 33.0777 25.2421 33.309 27.2345 28.7127L30.1953 21.882C31.5235 18.8178 29.9534 16.9467 26.7051 17.7227ZM26.9005 21.8643L23.6826 24.5644C23.4383 24.7695 23.0657 24.7369 22.8607 24.4925C22.6557 24.2482 22.6883 23.8756 22.9326 23.6706L26.1504 20.9705C26.3948 20.7655 26.7674 20.7981 26.9724 21.0424C27.1774 21.2867 27.1448 21.6593 26.9005 21.8643Z" fill="white"/>
</svg>
