<svg width="18" height="23" viewBox="0 0 18 23" fill="none" xmlns="http://www.w3.org/2000/svg">
<path fill-rule="evenodd" clip-rule="evenodd" d="M12.982 5.20135C12.982 7.20651 11.1243 8.83201 8.83268 8.83201C6.54107 8.83201 4.68335 7.20651 4.68335 5.20135C4.68335 3.19618 6.54107 1.57068 8.83268 1.57068C11.1243 1.57068 12.982 3.19618 12.982 5.20135Z" stroke="black" stroke-width="2" stroke-linecap="round" stroke-linejoin="round"/>
<path d="M2.17023 16.7361C2.15385 16.1841 1.69305 15.7498 1.14101 15.7662C0.588964 15.7826 0.154725 16.2434 0.171107 16.7955L2.17023 16.7361ZM5.95275 21.278V20.278C5.94329 20.278 5.93383 20.2782 5.92437 20.2784L5.95275 21.278ZM11.9286 21.278L11.957 20.2784C11.9475 20.2782 11.938 20.278 11.9286 20.278V21.278ZM17.7102 16.7954C17.7266 16.2434 17.2924 15.7826 16.7403 15.7662C16.1883 15.7498 15.7275 16.1841 15.7111 16.7361L17.7102 16.7954ZM15.7111 16.5906C15.7275 17.1427 16.1883 17.5769 16.7403 17.5605C17.2924 17.5442 17.7266 17.0834 17.7102 16.5313L15.7111 16.5906ZM11.9286 12.0487V13.0487C11.938 13.0487 11.9475 13.0486 11.957 13.0483L11.9286 12.0487ZM5.95274 12.0487L5.92436 13.0483C5.93382 13.0486 5.94327 13.0487 5.95274 13.0487V12.0487ZM0.171094 16.5313C0.154713 17.0834 0.588952 17.5442 1.14099 17.5605C1.69304 17.5769 2.15383 17.1427 2.17021 16.5906L0.171094 16.5313ZM0.171107 16.7955C0.263612 19.9128 2.86364 22.3661 5.98113 22.2776L5.92437 20.2784C3.91001 20.3356 2.23 18.7504 2.17023 16.7361L0.171107 16.7955ZM5.95275 22.278H11.9286V20.278H5.95275V22.278ZM11.9002 22.2776C15.0177 22.3661 17.6177 19.9128 17.7102 16.7954L15.7111 16.7361C15.6513 18.7504 13.9713 20.3356 11.957 20.2784L11.9002 22.2776ZM17.7102 16.5313C17.6177 13.4139 15.0177 10.9606 11.9002 11.0491L11.957 13.0483C13.9713 12.9911 15.6513 14.5763 15.7111 16.5906L17.7102 16.5313ZM11.9286 11.0487H5.95274V13.0487H11.9286V11.0487ZM5.98111 11.0491C2.86363 10.9606 0.263599 13.4139 0.171094 16.5313L2.17021 16.5906C2.22999 14.5763 3.90999 12.9911 5.92436 13.0483L5.98111 11.0491Z" fill="black"/>
</svg>
