<svg width="19" height="19" viewBox="0 0 19 19" fill="none" xmlns="http://www.w3.org/2000/svg">
<path d="M2.69919 2.51352H5.86085C6.44259 2.51352 6.84992 2.45872 6.84992 3.04047V1.98658C6.84992 1.40483 6.44259 0.932693 5.86085 0.932693H1.6453C0.591412 0.932693 -0.24274 2.05245 0.0644684 3.56741C0.0644684 3.56741 1.00822 8.5075 1.07462 8.81471C1.25009 9.62726 2.19385 10.4177 3.204 10.4177H6.87047C7.45274 10.4177 6.84992 9.41859 6.84992 8.83684V7.78296C6.84992 8.3647 6.44259 8.83684 5.86085 8.83684H3.75307C3.17133 8.83684 2.78718 8.28777 2.69919 7.78296C2.61119 7.27815 1.86451 3.91888 1.86451 3.91888C1.68903 2.90873 2.11691 2.51352 2.69919 2.51352ZM16.3006 2.51352H13.139C12.5572 2.51352 11.5924 2.45872 11.5924 3.04047V1.98658C11.5924 1.40483 12.5572 0.932693 13.139 0.932693H17.3545C18.4084 0.932693 19.2431 2.05245 18.9354 3.56741C18.9354 3.56741 18.0749 8.53069 18.0021 8.83684C17.8156 9.62726 16.9261 10.4177 15.8944 10.4177H12.1288C11.5471 10.4177 11.5924 9.41859 11.5924 8.83684V7.78296C11.5924 8.3647 12.5572 8.83684 13.139 8.83684H15.2468C15.8285 8.83684 16.2132 8.28777 16.3006 7.78296C16.3881 7.27815 17.1353 3.91888 17.1353 3.91888C17.3103 2.90873 16.8829 2.51352 16.3006 2.51352ZM10.9769 11.4716C10.9769 7.80509 9.54945 11.4716 9.54945 11.4716C9.54945 11.4716 7.96862 7.80509 7.96862 11.4716C7.96862 15.138 6.23445 16.741 6.23445 16.741H12.7116C12.7111 16.741 10.9769 15.138 10.9769 11.4716Z" fill="#FFAC33"/>
<path d="M15.3458 3.34451C15.3458 6.91455 11.7784 12.9307 9.54943 12.9307C7.31993 12.9307 3.75305 6.91455 3.75305 3.34451C3.75305 0.607039 4.28 0.014755 5.33388 0.014755C6.0579 0.014755 8.50872 0.00052752 9.54943 0.00052752L13.238 5.75232e-07C14.7751 -0.000526368 15.3458 0.36043 15.3458 3.34451Z" fill="#FFCC4D"/>
<path d="M14.2272 17.2679C14.2272 17.8497 14.3468 18.3218 13.765 18.3218H5.33394C4.75167 18.3218 4.74219 17.8497 4.74219 17.2679V16.741C4.74219 16.1592 5.35555 15.6871 5.90462 15.6871H13.2381C13.7872 15.6871 14.2272 16.1592 14.2272 16.741V17.2679Z" fill="#C1694F"/>
<path d="M15.2811 18.1242C15.2811 18.5247 15.3681 18.8488 14.6214 18.8488H4.47772C3.7969 18.8488 3.68835 18.5247 3.68835 18.1242V17.9925C3.68835 17.592 4.07724 17.2679 4.47772 17.2679H14.6214C15.0213 17.2679 15.2811 17.592 15.2811 17.9925V18.1242Z" fill="#C1694F"/>
</svg>
