<svg width="46" height="55" viewBox="0 0 46 55" fill="none" xmlns="http://www.w3.org/2000/svg">
<path d="M44.5 23.5C44.5 35.6808 34.8439 45.5 23 45.5C11.1561 45.5 1.5 35.6808 1.5 23.5C1.5 11.3192 11.1561 1.5 23 1.5C34.8439 1.5 44.5 11.3192 44.5 23.5Z" fill="#1E2237" stroke="#00D95F" stroke-width="3"/>
<rect x="25" y="38" width="11.5661" height="11.5661" rx="5.78306" transform="rotate(45 25 38)" fill="#00D95F"/>
<path d="M24.6051 49.0795C24.196 49.0795 23.8324 49.0095 23.5142 48.8693C23.1979 48.7292 22.9479 48.5341 22.7642 48.2841C22.5805 48.0341 22.483 47.7453 22.4716 47.4176H23.5398C23.5492 47.5748 23.6013 47.7121 23.696 47.8295C23.7907 47.9451 23.9167 48.035 24.0739 48.0994C24.2311 48.1638 24.4072 48.196 24.6023 48.196C24.8106 48.196 24.9953 48.16 25.1562 48.0881C25.3172 48.0142 25.4432 47.9119 25.5341 47.7812C25.625 47.6506 25.6695 47.5 25.6676 47.3295C25.6695 47.1534 25.6241 46.9981 25.5312 46.8636C25.4384 46.7292 25.304 46.6241 25.1278 46.5483C24.9536 46.4725 24.7434 46.4347 24.4972 46.4347H23.983V45.6222H24.4972C24.6998 45.6222 24.8769 45.5871 25.0284 45.517C25.1818 45.447 25.3021 45.3485 25.3892 45.2216C25.4763 45.0928 25.5189 44.9441 25.517 44.7756C25.5189 44.6108 25.482 44.4678 25.4062 44.3466C25.3324 44.2235 25.2273 44.1278 25.0909 44.0597C24.9564 43.9915 24.7983 43.9574 24.6165 43.9574C24.4384 43.9574 24.2737 43.9896 24.1222 44.054C23.9706 44.1184 23.8485 44.2102 23.7557 44.3295C23.6629 44.447 23.6136 44.5871 23.608 44.75H22.5938C22.6013 44.4242 22.6951 44.1383 22.875 43.892C23.0568 43.6439 23.2992 43.4508 23.6023 43.3125C23.9053 43.1723 24.2453 43.1023 24.6222 43.1023C25.0104 43.1023 25.3475 43.1752 25.6335 43.321C25.9214 43.465 26.1439 43.6591 26.3011 43.9034C26.4583 44.1477 26.5369 44.4176 26.5369 44.7131C26.5388 45.0407 26.4422 45.3153 26.2472 45.5369C26.054 45.7585 25.8002 45.9034 25.4858 45.9716V46.017C25.8949 46.0739 26.2083 46.2254 26.4261 46.4716C26.6458 46.7159 26.7547 47.0199 26.7528 47.3835C26.7528 47.7093 26.66 48.0009 26.4744 48.2585C26.2907 48.5142 26.0369 48.715 25.7131 48.8608C25.3911 49.0066 25.0218 49.0795 24.6051 49.0795Z" fill="white"/>
</svg>
