<svg width="313" height="218" viewBox="0 0 313 218" fill="none" xmlns="http://www.w3.org/2000/svg">
<g clip-path="url(#clip0_4_2621)">
<path opacity="0.2" d="M90.1732 28.7834C90.1732 28.7834 135.822 -8.77115 172.058 16.248C208.288 41.2672 194.214 66.2709 241.515 64.3579C288.816 62.4448 303.339 77.8678 312.097 118.671C320.855 159.474 265.106 204.995 187.845 203.593C110.585 202.19 45.1176 213.488 17.1088 187.077C-10.9001 160.665 -3.26177 116.247 30.8835 105.718C65.0288 95.1884 56.1776 51.8277 90.1732 28.7886V28.7834Z" fill="#5F45A3"/>
<path opacity="0.2" d="M154.562 64.1001C152.131 63.1306 148.039 62.3726 144.209 62.2592C143.543 60.2688 142.681 58.3815 141.644 56.6026C145.566 52.5032 149.809 46.7949 149.086 44.2631C147.837 39.8904 143.456 34.8887 137.985 37.2349C135.234 38.4105 131.147 41.3239 128.215 44.3869C126.734 43.7114 125.186 43.1596 123.591 42.7368C123.405 37.1833 122.357 30.5779 120.133 29.3455C116.154 27.1385 109.517 26.695 107.308 32.2176C106.234 34.8938 105.434 39.5914 105.46 43.7217C104.686 44.0208 103.927 44.3508 103.184 44.7169C99.0657 40.5814 92.6196 35.5848 89.8894 36.3634C85.5128 37.6113 80.5067 41.9891 82.8549 47.455C84.0368 50.2137 86.9734 54.3234 90.0545 57.2574C89.1823 58.8405 88.4598 60.5163 87.8766 62.2592C82.1272 62.3365 74.716 63.3678 73.3999 65.7347C71.191 69.7103 70.7472 76.3415 76.2746 78.5485C78.8861 79.5901 83.4123 80.379 87.4689 80.3945C87.8147 81.6011 88.2069 82.7871 88.6869 83.9267C84.9193 87.9745 81.0589 93.3114 81.7505 95.7298C82.9994 100.103 87.3811 105.104 92.8518 102.758C94.9575 101.856 97.8528 99.9324 100.413 97.7048C102.013 98.7154 103.716 99.5714 105.501 100.257C105.718 105.739 106.766 112.096 108.944 113.303C112.923 115.51 119.56 115.953 121.769 110.431C122.646 108.245 123.338 104.712 123.55 101.242C126.233 100.53 128.767 99.4631 131.1 98.0657C134.883 101.335 139.27 104.248 141.396 103.64C145.773 102.392 150.779 98.0141 148.431 92.5483C147.486 90.3413 145.417 87.2835 143.053 84.6383C143.683 83.2563 144.214 81.828 144.637 80.3429C150.067 80.1057 156.25 79.059 157.442 76.919C159.651 72.9434 160.095 66.3122 154.567 64.1052L154.562 64.1001ZM116.102 87.4434C107.483 87.4795 100.464 80.5853 100.428 72.041C100.392 63.5019 107.354 56.551 115.973 56.5149C124.592 56.4788 131.611 63.373 131.647 71.9173C131.683 80.4564 124.721 87.4073 116.102 87.4434Z" fill="#5F45A3"/>
<path opacity="0.2" d="M69.4105 158.891C67.7435 158.226 64.9256 157.705 62.2986 157.628C61.8444 156.262 61.2458 154.962 60.5387 153.74C63.2328 150.925 66.1487 147.001 65.6533 145.263C64.7914 142.257 61.7877 138.822 58.0253 140.431C56.1364 141.241 53.3288 143.242 51.3108 145.345C50.2941 144.881 49.2309 144.505 48.1316 144.211C48.0026 140.395 47.2852 135.857 45.7576 135.012C43.0222 133.496 38.465 133.192 36.9477 136.987C36.2097 138.828 35.6575 142.05 35.6781 144.892C35.1465 145.098 34.6253 145.325 34.1143 145.572C31.2861 142.731 26.8579 139.297 24.9793 139.833C21.9705 140.694 18.5332 143.695 20.1435 147.454C20.9589 149.352 22.9717 152.173 25.0929 154.189C24.4942 155.277 23.9987 156.427 23.5962 157.628C19.648 157.685 14.5541 158.391 13.6509 160.016C12.1336 162.748 11.8291 167.302 15.6276 168.818C17.4184 169.534 20.5305 170.076 23.3175 170.086C23.5549 170.916 23.8233 171.731 24.1536 172.515C21.5627 175.294 18.9151 178.96 19.3899 180.626C20.2518 183.632 23.2555 187.066 27.0179 185.458C28.4682 184.839 30.4552 183.514 32.2099 181.987C33.3092 182.678 34.4807 183.271 35.7039 183.74C35.8536 187.505 36.571 191.872 38.0677 192.702C40.803 194.218 45.3602 194.523 46.8775 190.727C47.4762 189.227 47.9562 186.798 48.1007 184.411C49.9431 183.921 51.6876 183.189 53.2875 182.23C55.8886 184.478 58.8975 186.473 60.3632 186.056C63.3721 185.195 66.8093 182.193 65.1991 178.434C64.5488 176.918 63.1295 174.815 61.5038 173C61.9373 172.051 62.3038 171.066 62.5928 170.045C66.319 169.88 70.5717 169.163 71.3872 167.693C72.9045 164.961 73.209 160.407 69.4105 158.891ZM42.9861 174.928C37.0613 174.954 32.2409 170.215 32.2202 164.347C32.1944 158.479 36.9787 153.704 42.9035 153.678C48.8284 153.652 53.6488 158.391 53.6694 164.259C53.6952 170.127 48.9109 174.902 42.9861 174.928Z" fill="#5F45A3"/>
<g opacity="0.2">
<path d="M267.565 74.9883L212.662 102.015L218.452 113.755L273.354 86.7278L267.565 74.9883Z" fill="#5F45A3"/>
<path d="M205.393 96.3125C210.647 93.724 216.69 94.5284 221.036 97.8698C222.78 99.2105 224.251 100.964 225.294 103.067C226.331 105.176 226.827 107.409 226.827 109.606C226.832 115.087 223.787 120.362 218.533 122.951C213.279 125.539 207.235 124.735 202.89 121.394L218.45 113.731L212.66 101.995L197.099 109.657C197.094 104.176 200.139 98.9011 205.393 96.3125Z" fill="#5F45A3"/>
<path d="M280.434 92.4761C275.18 95.0646 269.137 94.2602 264.791 90.9189C263.047 89.5782 261.576 87.825 260.533 85.7211C259.496 83.6121 259 81.3794 259 79.1827C258.995 73.7014 262.04 68.4263 267.294 65.8378C272.548 63.2492 278.592 64.0536 282.937 67.395L267.377 75.0576L273.167 86.7937L288.728 79.1312C288.733 84.6125 285.688 89.8876 280.434 92.4761Z" fill="#5F45A3"/>
</g>
<g opacity="0.2">
<path d="M53.4571 80.8385L43.3893 89.2104L82.5422 136.212L92.6101 127.84L53.4571 80.8385Z" fill="#5F45A3"/>
<path d="M57.2821 72.4432C61.029 76.9448 61.6638 82.9985 59.4291 88.0054C58.5311 90.0165 57.1737 91.8522 55.3674 93.3579C53.561 94.8636 51.5018 95.8639 49.3599 96.3796C44.0286 97.6687 38.1812 95.9464 34.4343 91.45C30.6874 86.9535 30.0526 80.8947 32.2873 75.8877L43.3887 89.2069L53.4526 80.8328L42.3513 67.5136C47.6826 66.2245 53.53 67.9468 57.2769 72.4432H57.2821Z" fill="#5F45A3"/>
<path d="M78.5868 144.433C74.8399 139.931 74.2051 133.877 76.4398 128.87C77.3378 126.859 78.6951 125.024 80.5015 123.518C82.3079 122.012 84.3671 121.012 86.5089 120.496C91.8402 119.207 97.6877 120.929 101.435 125.426C105.181 129.922 105.816 135.981 103.582 140.988L92.4854 127.669L82.4214 136.043L93.5176 149.362C88.1862 150.651 82.3388 148.929 78.5919 144.433H78.5868Z" fill="#5F45A3"/>
</g>
<path d="M243.93 184.174C243.93 184.174 265.106 167.374 279.433 163.176C293.76 158.979 308.608 148.285 299.845 142.963C291.081 137.642 274.261 140.251 257.715 148.486C241.169 156.721 227.916 171.262 227.916 171.262L243.935 184.168L243.93 184.174Z" fill="#5302D6"/>
<path d="M232.261 177.48C232.261 177.48 252.915 145.299 267.562 133.264C282.204 121.229 296.794 100.133 287.102 96.7869C277.41 93.4352 260.002 104.413 243.409 122.915C226.811 141.416 214.259 167.028 214.259 167.028L232.266 177.48H232.261Z" fill="#3DBCC4"/>
<path d="M233.071 157.179C233.025 157.179 232.978 157.169 232.937 157.138C232.818 157.061 232.777 156.906 232.855 156.782C246.867 134.367 259.387 121.11 267.418 113.937C276.135 106.151 281.621 103.635 281.678 103.614C281.807 103.557 281.962 103.614 282.018 103.743C282.075 103.872 282.018 104.027 281.889 104.083C281.673 104.181 260.022 114.298 233.293 157.056C233.247 157.133 233.159 157.179 233.077 157.179H233.071Z" fill="#F8F4E2"/>
<path d="M246.686 163.548C246.609 163.548 246.531 163.512 246.48 163.445C246.397 163.331 246.418 163.166 246.536 163.084C266.148 148.692 293.228 145.448 293.502 145.418C293.631 145.402 293.77 145.505 293.786 145.644C293.801 145.784 293.698 145.913 293.558 145.928C293.29 145.959 266.339 149.192 246.841 163.496C246.795 163.532 246.743 163.548 246.686 163.548Z" fill="#F8F4E2"/>
<path d="M161.354 93.0433C161.354 93.0433 171.284 67.9158 181.595 57.1285C191.902 46.3412 199.411 29.66 189.161 29.428C178.907 29.2011 165.648 39.8543 155.439 55.2516C145.231 70.6488 141.03 89.8618 141.03 89.8618L161.359 93.0382L161.354 93.0433Z" fill="#5302D6"/>
<path d="M152.663 105.568C152.663 105.568 146.996 67.7612 150.087 49.069C153.179 30.3768 150.253 4.9038 140.751 8.76084C131.25 12.6179 125.382 32.3259 125.087 57.1698C124.793 82.0136 132.225 109.549 132.225 109.549L152.668 105.568H152.663Z" fill="#3DBCC4"/>
<path d="M139.719 89.8257C139.595 89.8257 139.487 89.738 139.466 89.6091C135.239 63.5174 135.926 45.3099 137.242 34.6257C138.671 23.0288 141.143 17.5268 141.169 17.4753C141.226 17.3464 141.381 17.2896 141.51 17.3464C141.639 17.4031 141.696 17.5578 141.639 17.6867C141.541 17.9033 131.915 39.7564 139.977 89.5266C139.998 89.6658 139.905 89.7999 139.765 89.8205C139.75 89.8205 139.74 89.8205 139.724 89.8205L139.719 89.8257Z" fill="#F8F4E2"/>
<path d="M153.298 73.8458C153.261 73.8458 153.225 73.8406 153.194 73.8252C153.065 73.7684 153.003 73.6137 153.06 73.4848C162.845 51.2244 184.677 34.8887 184.898 34.7288C185.012 34.6463 185.177 34.6669 185.26 34.7804C185.347 34.8938 185.322 35.0588 185.208 35.1413C184.991 35.3012 163.269 51.5647 153.535 73.6911C153.494 73.7891 153.396 73.8458 153.298 73.8458Z" fill="#F8F4E2"/>
<path d="M118.538 107.528C118.538 107.528 108.608 82.4004 98.2967 71.613C87.9901 60.8205 80.4808 44.1445 90.7306 43.9125C100.986 43.6856 114.244 54.3389 124.453 69.7361C134.661 85.1333 138.862 104.346 138.862 104.346L118.533 107.523L118.538 107.528Z" fill="#00DB96"/>
<path d="M126.6 88.3251C126.502 88.3251 126.404 88.2684 126.362 88.1705C116.634 66.0389 94.911 49.7805 94.6891 49.6207C94.5756 49.5382 94.5498 49.3732 94.6375 49.2597C94.7201 49.1463 94.8852 49.1205 94.9988 49.2082C95.2155 49.368 117.047 65.7089 126.837 87.9642C126.894 88.0931 126.837 88.2478 126.703 88.3045C126.667 88.32 126.636 88.3251 126.6 88.3251Z" fill="#F8F4E2"/>
<path d="M74.2618 199.782C74.2618 199.782 49.7625 188.355 34.8523 187.597C19.9422 186.839 3.01404 179.883 10.3014 172.675C17.5887 165.466 34.553 164.099 52.5598 168.266C70.5666 172.437 86.8392 183.503 86.8392 183.503L74.2618 199.777V199.782Z" fill="#5302D6"/>
<path d="M84.0523 190.568C84.0523 190.568 56.477 164.058 39.4405 155.756C22.3988 147.449 3.30821 130.319 11.9581 124.812C20.6079 119.305 40.0856 125.936 60.5335 140.081C80.9763 154.225 99.1431 176.222 99.1431 176.222L84.0574 190.568H84.0523Z" fill="#3DBCC4"/>
<path d="M78.4887 171.014C78.4216 171.014 78.3597 170.988 78.3081 170.942C42.3461 135.538 18.9564 130.742 18.7242 130.696C18.5848 130.67 18.4919 130.536 18.5177 130.397C18.5435 130.258 18.6777 130.165 18.8222 130.191C19.0545 130.237 42.599 135.063 78.6745 170.576C78.7777 170.674 78.7777 170.839 78.6745 170.942C78.6229 170.994 78.5558 171.019 78.4887 171.019V171.014Z" fill="#F8F4E2"/>
<path d="M66.7268 180.373C66.6906 180.373 66.6597 180.368 66.6287 180.353C44.3331 170.963 17.372 174.072 17.1036 174.108C16.9643 174.129 16.8352 174.026 16.8146 173.881C16.7991 173.742 16.8972 173.613 17.0417 173.593C17.3152 173.562 44.4105 170.432 66.83 179.873C66.959 179.93 67.0209 180.079 66.9693 180.213C66.928 180.311 66.83 180.373 66.7319 180.373H66.7268Z" fill="#F8F4E2"/>
<path d="M71.2839 72.8557H241.061C245.401 72.8557 248.926 76.3776 248.926 80.7142V198.72C248.926 203.057 245.401 206.578 241.061 206.578H71.2839C66.9435 206.578 63.4185 203.057 63.4185 198.72V80.7142C63.4185 76.3776 66.9435 72.8557 71.2839 72.8557Z" fill="white"/>
<path d="M240.622 83.9731H71.7226V183.173H240.622V83.9731Z" fill="#3DBCC4"/>
<path d="M240.622 83.8493H71.7226V98.4318H240.622V83.8493Z" fill="#3DBCC4"/>
<path d="M43.8841 194.28H268.466V203.387C268.466 208.651 264.187 212.926 258.918 212.926H53.432C48.1626 212.926 43.8841 208.651 43.8841 203.387V194.28Z" fill="white"/>
<path d="M126.135 189.021C126.135 197.008 132.617 203.485 140.612 203.485H171.743C179.737 203.485 186.22 197.008 186.22 189.021H126.14H126.135Z" fill="#F8F4E2"/>
<path d="M269.193 188.948H43.8067V194.28H269.193V188.948Z" fill="#E3E0D0"/>
<path d="M168.094 105.269C164.956 102.16 160.993 100.752 156.312 101.062C150.882 101.433 146.464 103.593 143.182 107.492C139.703 111.617 138.114 117.047 137.417 121.816H143.053C143.677 118.073 144.947 114.04 147.455 111.07C149.757 108.343 152.776 106.888 156.688 106.62C159.739 106.414 162.185 107.26 164.162 109.219C169.72 114.721 170.246 127.762 169.978 132.32L175.542 132.655C175.588 131.887 176.579 113.685 168.094 105.274V105.269Z" fill="#00DB96"/>
<path d="M128.076 127.824H184.924V175.712H128.076V127.824Z" fill="white"/>
<path d="M153.53 149.713L150.48 162.088H162.107C162.107 162.088 159.367 149.904 158.448 149.713C157.535 149.522 153.53 149.713 153.53 149.713Z" fill="#251D35"/>
<path d="M162.892 146.661C163.637 143.183 161.419 139.76 157.937 139.015C154.456 138.271 151.03 140.487 150.285 143.965C149.54 147.443 151.758 150.866 155.239 151.611C158.721 152.355 162.147 150.139 162.892 146.661Z" fill="#251D35"/>
<path d="M30.9971 114.252C30.9971 114.252 27.9727 116.412 27.436 115.83C26.8992 115.247 26.4399 114.7 25.2064 114.597C23.9729 114.494 20.2725 116.83 21.2479 114.721C22.2285 112.607 27.663 110.503 28.3185 110.142C28.9739 109.776 30.8267 113.958 30.9919 114.257L30.9971 114.252Z" fill="#251D35"/>
<path d="M27.436 115.835C27.436 115.835 30.3365 113.319 30.6203 113.468C30.8422 113.587 33.9698 116.541 33.4382 117.016C32.9066 117.49 30.7648 119.63 29.6707 119.316C28.5766 119.001 27.436 115.835 27.436 115.835Z" fill="#CF677D"/>
<path d="M78.2307 133.568C78.2307 133.568 59.522 143.133 49.4838 142.2C39.4456 141.272 24.9071 121.058 26.4554 118.893C28.0037 116.727 32.3079 113.458 33.2679 113.458C35.8587 113.458 48.2864 127.473 51.0579 127.318C53.8294 127.164 73.0387 119.656 72.76 120.553C72.4761 121.45 78.2255 133.563 78.2255 133.563L78.2307 133.568Z" fill="#251D35"/>
<path d="M105.713 116.856C105.713 116.856 107.272 125.06 111.989 128.051C116.711 131.041 124.716 138.565 122.192 145.17C119.674 151.775 120.886 142.447 120.886 142.447C120.886 142.447 119.88 145.985 119.235 145.681C118.59 145.376 118.972 142.092 118.972 142.092C118.972 142.092 118.781 145.557 117.697 144.67C116.613 143.788 119.178 140.668 117.465 138.91C115.746 137.157 107.019 135.899 101.171 129.824C95.324 123.75 104.309 113.726 105.713 116.856Z" fill="#CF677D"/>
<path d="M102.807 109.709C102.807 109.709 111.039 121.285 101.775 127.004C90.7255 133.826 82.4266 131.562 76.3727 135.909C70.6904 139.993 71.382 111.204 72.5845 111.029C73.787 110.854 82.8807 110.431 85.4819 108.941C98.3793 101.536 102.807 109.709 102.807 109.709Z" fill="#251D35"/>
<path d="M109.362 100.804C109.362 100.804 118.172 99.8447 116.051 105.099C115.194 107.218 109.352 114.334 107.349 111.875C102.792 106.27 109.362 100.804 109.362 100.804Z" fill="#CF677D"/>
<path d="M110.121 100.907C110.121 100.907 112.262 98.6639 114.75 100.304C117.238 101.943 118.435 102.196 119.348 102.784C120.262 103.372 119.08 106.806 115.839 105.548C112.598 104.29 111.452 101.521 110.647 102.279C109.842 103.037 109.248 105.151 107.607 105.604C105.966 106.058 106.018 108.642 105.522 107.719C105.027 106.796 103.716 98.9681 110.121 100.907Z" fill="#43384A"/>
<path d="M107.643 105.692C107.643 105.692 108.356 104.073 107.313 104.114C106.27 104.155 106.203 105.146 106.353 106.032C106.503 106.919 107.488 106.136 107.643 105.692Z" fill="#CF677D"/>
<path d="M106.27 101.49C106.27 101.49 115.452 106.543 115.416 107.636C115.38 108.729 113.104 109.946 112.35 109.425C111.597 108.905 111.984 108.049 111.354 107.641C110.724 107.234 110.017 108.719 108.639 106.78C107.267 104.841 105.481 103.341 105.347 102.81C105.212 102.279 105.708 101.087 106.27 101.495V101.49Z" fill="#251D35"/>
<path d="M106.978 106.955C106.978 106.955 104.65 108.925 103.205 109.42C101.76 109.915 99.7779 113.607 101.976 115.912C104.175 118.217 105.295 113.721 105.584 113.086C105.868 112.447 109.383 109.946 109.383 109.946L106.978 106.955Z" fill="#CF677D"/>
<path d="M102.075 131.902C102.075 131.902 106.043 129.453 107.086 128.329C108.268 127.061 109.981 124.049 109.981 124.049C107.747 121.177 106.209 116.046 105.687 115.917C105.171 115.788 94.653 114.84 94.6943 116.557C94.7356 118.274 94.5911 127.236 102.075 131.897V131.902Z" fill="#251D35"/>
<path d="M124.829 151.1C128.138 143.86 124.943 135.311 117.697 132.006C110.451 128.7 101.894 131.887 98.5857 139.132C95.2775 146.372 98.4722 154.921 105.718 158.226C112.964 161.532 121.521 158.345 124.829 151.1ZM104.722 146.954C102.426 145.907 101.414 143.195 102.462 140.9C103.509 138.606 106.224 137.595 108.521 138.642C110.817 139.689 111.829 142.401 110.781 144.696C109.733 146.99 107.019 148.001 104.722 146.954Z" fill="#5302D6"/>
<path d="M122.202 142.783C122.202 142.783 148.818 154.921 150.129 155.519C151.44 156.117 155.377 160.469 156.358 161.588C156.823 162.119 152.353 164.579 148.069 164.496C146.676 164.471 145.344 162.032 144.782 161.774C144.219 161.516 140.932 163.47 139.92 163.259C139.079 163.084 138.031 159.139 137.123 159.139C136.215 159.139 133.19 160.531 132.571 159.907C131.952 159.278 129.944 156.834 129.046 155.823C128.153 154.813 118.45 150.992 118.45 150.992L122.202 142.783Z" fill="#5302D6"/>
<path d="M118.827 142.69C118.827 142.69 144.405 154.065 145.179 154.71C145.953 155.354 146.805 158.185 143.017 156.458C139.229 154.73 120.128 146.016 120.128 146.016C120.128 146.016 118.001 145.345 116.825 144.51C115.648 143.675 115.983 141.426 118.827 142.69Z" fill="#DFDAED"/>
<path d="M97.7548 113.958C97.7548 113.958 89.5643 129.206 93.0944 135.909C96.4181 142.215 99.5663 146.366 102.317 149.208C103.236 150.156 103.024 150.332 104.087 150.956C106.709 152.503 103.447 151.512 103.447 151.512C103.447 151.512 102.911 151.017 103.643 152.296C104.376 153.575 102.627 152.668 102.627 152.668C102.627 152.668 102.931 153.219 102.188 153.348C101.93 153.395 102.002 153.451 99.8553 152.265C95.8555 150.064 90.101 147.073 86.0909 141.994C80.5738 135.012 84.9297 118.96 86.7567 113.128C88.5785 107.296 97.7599 113.958 97.7599 113.958H97.7548Z" fill="#CF677D"/>
<path d="M98.7457 114.267C98.7457 114.267 94.9162 125.952 94.2505 132.949C94.2505 132.949 83.4691 135.404 82.4524 134.904C81.4357 134.403 81.3015 126.607 83.9904 118.171C86.6792 109.74 88.6611 107.332 92.5267 107.378C96.3923 107.425 101.259 107.414 98.7457 114.267Z" fill="#251D35"/>
<path d="M103.571 108.332C103.571 108.332 106.446 110.457 107.07 112.947C107.695 115.438 103.891 118.609 101.631 118.062C99.3702 117.511 95.6852 114.01 97.5019 112.029C99.3186 110.049 102.869 107.301 103.571 108.337V108.332Z" fill="#251D35"/>
<path d="M94.2401 130.314C94.2401 130.314 94.2143 130.314 94.204 130.314C94.0646 130.294 93.9666 130.165 93.9821 130.025C93.9924 129.958 94.942 123.193 96.7639 116.18C98.6425 108.946 96.4439 106.77 96.4232 106.749C96.32 106.651 96.3149 106.491 96.4129 106.383C96.511 106.28 96.671 106.275 96.7742 106.368C96.8774 106.46 99.236 108.724 97.2645 116.304C95.453 123.291 94.5033 130.025 94.493 130.093C94.4775 130.221 94.364 130.314 94.2401 130.314Z" fill="#433552"/>
<path d="M40.803 91.5943C40.803 91.5943 37.3503 92.9763 36.9683 92.2802C36.5864 91.584 36.2716 90.9446 35.0949 90.5527C33.9182 90.1608 29.7687 91.5531 31.2241 89.7329C32.6795 87.9126 38.4599 87.1598 39.1824 86.9638C39.9101 86.7679 40.7101 91.2643 40.803 91.5943Z" fill="#251D35"/>
<path d="M36.9632 92.2802C36.9632 92.2802 40.5449 90.8209 40.6894 91.0787C41.6391 92.8061 42.2842 94.0952 42.0158 94.9718C41.8094 95.6525 39.3631 97.3335 38.3722 96.7714C37.3812 96.2042 36.958 92.2802 36.958 92.2802H36.9632Z" fill="#CF677D"/>
<path d="M72.7342 111.405C72.7342 111.405 58.5362 109.91 54.9338 108.1C51.3314 106.29 45.9588 91.5273 44.8905 91.8264C43.8222 92.1255 35.5233 94.1365 34.8317 96.4517C34.1401 98.767 39.3579 109.023 42.9448 116.247C46.5317 123.477 67.2377 126.725 70.5511 126.158C73.8644 125.586 72.7342 111.405 72.7342 111.405Z" fill="#251D35"/>
<path d="M81.7814 131.593C81.6473 131.593 81.5389 131.49 81.5234 131.361C81.5131 131.248 80.5273 119.697 86.0754 111.369C86.1528 111.251 86.3128 111.22 86.4315 111.297C86.5502 111.375 86.5812 111.534 86.5038 111.653C81.0589 119.826 82.024 131.196 82.0343 131.309C82.0447 131.454 81.9414 131.578 81.8021 131.588C81.7918 131.588 81.7866 131.588 81.7763 131.588L81.7814 131.593Z" fill="#433552"/>
<path d="M73.7251 135.228C73.6374 135.228 73.5548 135.182 73.5032 135.105C73.4464 135.012 67.7796 125.57 71.511 112.437C71.5523 112.298 71.6917 112.22 71.831 112.261C71.9704 112.303 72.0478 112.442 72.0065 112.581C68.337 125.493 73.8851 134.744 73.9419 134.836C74.0141 134.96 73.978 135.115 73.8593 135.192C73.818 135.218 73.7716 135.228 73.7251 135.228Z" fill="#433552"/>
<path d="M100.996 107.636C100.949 107.636 100.898 107.621 100.857 107.595L84.2329 96.9107C84.1142 96.8333 84.0781 96.6735 84.1555 96.5549C84.2329 96.4363 84.3929 96.4002 84.5116 96.4775L101.135 107.162C101.254 107.239 101.29 107.399 101.213 107.518C101.161 107.595 101.078 107.636 100.996 107.636Z" fill="#F8F4E2"/>
<path d="M77.3223 110.864C77.281 110.864 77.2449 110.854 77.2036 110.838C77.0746 110.776 77.023 110.617 77.0901 110.493L84.109 96.6425V61.2949C85.8638 37.0853 67.8725 34.9918 51.9972 33.1458C47.9768 32.6765 44.1783 32.2382 40.741 31.4751C23.3226 27.5923 27.1418 0.495019 27.1831 0.221726C27.2037 0.0825014 27.3379 -0.0154715 27.4772 0.00515437C27.6166 0.0257802 27.7146 0.154692 27.694 0.299073C27.6527 0.567209 23.9007 27.1952 40.8597 30.9646C44.2712 31.7226 48.0542 32.1609 52.0643 32.6301C68.1667 34.5019 86.4212 36.6264 84.6303 61.3104V96.6993C84.6303 96.7405 84.62 96.7818 84.6045 96.8178L77.5597 110.725C77.5133 110.813 77.4255 110.864 77.3275 110.864H77.3223Z" fill="#F8F4E2"/>
<path d="M97.7548 114.216C97.667 114.216 97.5793 114.169 97.5277 114.087C97.4554 113.963 97.5019 113.803 97.6258 113.736C100.098 112.339 101.822 108.657 101.837 108.621C101.899 108.492 102.049 108.435 102.178 108.492C102.307 108.554 102.364 108.704 102.307 108.832C102.235 108.992 100.5 112.705 97.8786 114.185C97.8373 114.205 97.7961 114.216 97.7496 114.216H97.7548Z" fill="#F8F4E2"/>
<path d="M84.0936 116.175C84.0936 116.175 84.0678 116.175 84.0575 116.175C79.9338 115.582 77.2139 110.931 77.1004 110.735C77.0282 110.611 77.0746 110.457 77.1933 110.385C77.3172 110.312 77.472 110.354 77.5443 110.477C77.5701 110.524 80.2486 115.108 84.1245 115.665C84.2639 115.685 84.362 115.814 84.3413 115.959C84.3207 116.088 84.2123 116.18 84.0884 116.18L84.0936 116.175Z" fill="#F8F4E2"/>
<path d="M97.8735 129.371C97.7754 129.371 97.6825 129.314 97.6361 129.216C97.5793 129.087 97.6361 128.932 97.7651 128.876C106.714 124.895 105.512 117.227 105.455 116.902C105.429 116.763 105.527 116.629 105.667 116.603C105.806 116.583 105.94 116.675 105.966 116.815C105.981 116.897 107.303 125.204 97.9767 129.35C97.9406 129.365 97.9096 129.371 97.8735 129.371Z" fill="#F8F4E2"/>
<path d="M87.407 108.178C87.2934 108.178 87.1902 108.1 87.1592 107.987L84.1194 96.7663C84.0833 96.6271 84.1658 96.4878 84.3 96.4517C84.4342 96.4156 84.5787 96.4981 84.6149 96.6322L87.6547 107.853C87.6908 107.992 87.6082 108.131 87.4741 108.167C87.4534 108.172 87.4276 108.178 87.407 108.178Z" fill="#F8F4E2"/>
<path d="M98.1728 151.538C98.1728 151.538 101.068 147.511 101.362 147.846C101.657 148.181 102.983 149.739 103.829 150.419C104.676 151.105 105.925 151.672 106.178 152.002C106.43 152.327 103.783 151.621 103.783 151.621C103.783 151.621 105.651 155.184 105.202 155.143C104.753 155.101 103.308 153.096 103.308 153.096C103.308 153.096 104.505 154.591 104.232 155.617C104.154 155.911 102.684 153.642 102.684 153.642C102.684 153.642 103.427 155.272 103.169 155.653C102.911 156.035 102.018 153.952 100.924 153.369C99.8295 152.786 98.1677 151.538 98.1677 151.538H98.1728Z" fill="#251D35"/>
<path d="M214.383 23.6166C214.383 23.6166 227.735 20.9765 228.999 20.9714C230.264 20.961 232.442 27.9171 231.951 29.7477C231.461 31.5782 224.68 34.9093 221.862 34.9299C219.044 34.9505 213.527 26.0659 214.378 23.6218L214.383 23.6166Z" fill="#251D35"/>
<path d="M172.651 85.6489C172.651 85.6489 169.116 84.5042 168.781 85.2261C168.445 85.9428 168.177 86.6029 167.031 87.0773C165.885 87.5517 161.648 86.443 163.222 88.1601C164.796 89.8772 170.618 90.233 171.351 90.3826C172.089 90.5321 172.584 85.9893 172.651 85.6489Z" fill="#251D35"/>
<path d="M168.775 85.2261C168.775 85.2261 170.897 86.3966 172.486 86.639L174.019 83.1944C173.369 82.9057 170.246 81.0442 169.405 81.8125C169.224 81.9724 168.781 85.2209 168.781 85.2209L168.775 85.2261Z" fill="#CF677D"/>
<path d="M206.466 54.6122C206.466 54.6122 183.097 46.4701 175.949 53.091C170.453 58.1804 167.119 78.8115 166.67 82.4622C166.561 83.3543 179.185 85.5716 179.185 85.5716C179.185 85.5716 185.317 68.2098 186.602 66.3483C186.602 66.3483 190.927 66.4411 206.931 70.6797C210.822 71.711 213.145 58.2784 206.472 54.6122H206.466Z" fill="#251D35"/>
<path d="M190.658 95.7762C190.658 95.7762 187.03 94.977 186.762 95.7247C186.498 96.4724 186.292 97.153 185.198 97.7357C184.104 98.3132 179.779 97.6222 181.513 99.1795C183.247 100.737 189.074 100.536 189.822 100.613C190.57 100.69 190.627 96.1217 190.663 95.7814L190.658 95.7762Z" fill="#251D35"/>
<path d="M186.762 95.7247C186.762 95.7247 188.042 96.4517 190.591 96.7766L191.783 93.2032C191.107 92.9763 187.82 91.4293 187.056 92.2698C186.896 92.4503 186.762 95.7247 186.762 95.7247Z" fill="#CF677D"/>
<path d="M191.783 59.3406C186.973 69.535 183.619 93.5435 183.619 93.5435L196.918 95.539C197.868 91.7233 200.748 76.1662 202.58 74.8152C204.417 73.4642 216.675 74.3975 221.944 72.8506C227.239 71.2985 226.661 61.4599 226.661 61.4599L225.092 59.2891C225.092 59.2891 194.426 53.7355 191.783 59.3355V59.3406Z" fill="#251D35"/>
<path d="M208.773 11.272C208.773 11.272 201.44 6.38371 201.295 12.0507C201.238 14.335 203.772 23.1835 206.585 21.7242C212.995 18.3931 208.773 11.2772 208.773 11.2772V11.272Z" fill="#CF677D"/>
<path d="M208.402 10.5553C208.402 10.5553 207.328 7.64704 204.397 8.16269C201.46 8.68349 202.534 8.50301 201.46 8.68349C200.387 8.86397 198.745 13.1696 202.219 13.3037C205.692 13.4429 206.936 10.5914 207.375 11.6072C207.813 12.623 207.514 14.7991 208.84 15.8665C210.167 16.9338 209.088 19.2852 209.909 18.6355C210.729 17.9858 215.044 11.3236 208.397 10.5553H208.402Z" fill="#43384A"/>
<path d="M208.773 15.9335C208.773 15.9335 208.763 14.1648 209.702 14.6186C210.647 15.0724 210.311 16.0057 209.821 16.7585C209.331 17.5114 208.737 16.4027 208.773 15.9335Z" fill="#CF677D"/>
<path d="M208.882 17.3515C208.882 17.3515 210.874 23.5496 212.004 24.5757C213.134 25.6019 214.647 25.3801 215.968 25.7256C217.289 26.0711 214.378 31.5885 211.442 32.8261C208.505 34.0636 205.083 30.3561 204.423 30.1241C203.762 29.892 208.206 25.803 208.195 25.1068C208.185 24.4107 205.486 19.1357 205.486 19.1357L208.882 17.3515Z" fill="#CF677D"/>
<path d="M205.486 22.8328C205.486 22.8328 211.71 19.5533 212.154 20.136C212.598 20.7135 213.996 23.5393 213.996 23.5393C213.996 23.5393 218.12 24.3488 220.577 24.7098C223.255 25.1068 225.449 34.0585 225.603 56.0405C225.619 58.1598 209.434 60.6143 198.885 55.3186C198.885 55.3186 198.565 45.8823 199.726 30.3922C199.922 27.7985 205.79 24.8593 205.79 24.8593C205.79 24.8593 205.207 23.3382 205.486 22.8328Z" fill="#251D35"/>
<path d="M211.259 58.2537L232.478 11.6679C233.353 9.74836 235.622 8.8993 237.543 9.77288L264.088 21.8428C266.01 22.7164 266.859 24.9837 265.985 26.9033L244.766 73.489C243.891 75.4086 241.622 76.2576 239.701 75.3841L213.155 63.3141C211.234 62.4405 210.384 60.1732 211.259 58.2537Z" fill="#3DBCC4"/>
<path d="M246.165 13.6853L221.857 67.3125L216.546 64.8993L240.988 11.3339L246.165 13.6853Z" fill="#1D1528"/>
<path opacity="0.15" d="M230.309 56.9826L226.416 65.5291L231.193 67.7013L235.086 59.1548L230.309 56.9826Z" fill="#F8F4E2"/>
<path opacity="0.15" d="M235.862 44.7898L231.969 53.3363L236.747 55.5085L240.639 46.962L235.862 44.7898Z" fill="#F8F4E2"/>
<path opacity="0.15" d="M241.48 32.4573L237.587 41.0038L242.364 43.176L246.257 34.6295L241.48 32.4573Z" fill="#F8F4E2"/>
<path opacity="0.15" d="M247.028 20.2624L243.135 28.8089L247.913 30.9811L251.806 22.4346L247.028 20.2624Z" fill="#F8F4E2"/>
<path opacity="0.15" d="M246.805 68.9729L221.237 36.3067L227.157 23.3124L252.27 56.9687L246.805 68.9729Z" fill="#F8F4E2"/>
<path opacity="0.15" d="M254.092 52.9724L228.999 19.2594L231.714 13.3037L256.828 46.9651L254.092 52.9724Z" fill="#F8F4E2"/>
<path d="M259.976 23.5651C261.937 24.4571 262.804 26.7672 261.911 28.7267C261.018 30.6861 258.706 31.5524 256.745 30.6604C254.784 29.7683 253.917 27.4582 254.81 25.4987C255.702 23.5393 258.015 22.673 259.976 23.5651Z" fill="#75E6D5"/>
<path d="M233.505 10.2768C233.505 10.2768 234.63 8.54942 237.278 8.85366C238.258 8.9671 239.729 10.4986 239.605 11.4216C239.559 11.7671 237.211 9.75604 237.211 9.75604C237.211 9.75604 238.635 11.4061 238.527 12.3601C238.485 12.7055 236.065 10.1634 236.065 10.1634C236.065 10.1634 237.84 12.4426 237.531 12.5715C236.901 12.8293 235.445 11.04 233.5 10.2768H233.505Z" fill="#251D35"/>
<path d="M207.189 31.7226C207.189 31.7226 210.131 43.3865 212.272 46.0524C214.414 48.7183 227.048 49.1257 230.057 50.7654C233.066 52.4052 229.149 54.4471 227.838 54.5348C226.527 54.6225 213.847 55.1278 207.906 51.9153C201.966 48.7028 199.963 37.2091 200.201 36.0128C200.438 34.8165 207.194 31.7174 207.194 31.7174L207.189 31.7226Z" fill="#CF677D"/>
<path d="M206.492 24.6995C206.492 24.6995 209.042 35.7601 211.132 41.2621C212.35 44.4642 202.42 47.6819 200.794 46.7485C199.169 45.8152 196.676 38.2919 196.459 34.4452C196.263 30.9801 195.747 27.9532 206.492 24.7046V24.6995Z" fill="#251D35"/>
<path d="M228.127 49.894C228.127 49.894 227.276 54.411 227.399 54.6689C227.518 54.9267 230.506 53.9263 232.194 54.4781C233.882 55.0298 234.919 55.3805 234.935 55.1845C235.012 54.2924 232.602 53.3385 232.602 53.3385C232.602 53.3385 235.662 54.3182 235.796 54.0243C236.029 53.5293 232.813 52.2763 232.705 52.2556C232.597 52.235 235.461 52.6166 235.6 52.3846C235.74 52.1525 233.278 50.9717 232.055 50.6159C230.832 50.2549 228.38 49.9352 228.132 49.8991L228.127 49.894Z" fill="#251D35"/>
<path d="M231.719 50.8634C231.719 50.8634 233.123 50.3735 233.474 50.0332C233.825 49.6877 230.961 50.2343 230.388 50.2652C229.815 50.2962 231.239 51.049 231.719 50.8634Z" fill="#251D35"/>
<path d="M211.885 41.7622C211.793 41.7622 211.7 41.7107 211.653 41.6179C210.673 39.6326 206.838 31.5524 206.802 31.4699C206.74 31.341 206.797 31.1863 206.926 31.1244C207.055 31.0626 207.21 31.1193 207.271 31.2482C207.308 31.3307 211.142 39.4109 212.118 41.391C212.18 41.5199 212.128 41.6746 211.999 41.7365C211.963 41.7571 211.922 41.7622 211.885 41.7622Z" fill="#433552"/>
<path d="M207.793 25.9113C207.333 25.9113 207.044 25.8803 207.003 25.8752C206.864 25.8597 206.761 25.7308 206.781 25.5864C206.797 25.4472 206.931 25.3492 207.07 25.3647C207.101 25.3647 210.095 25.7101 212.856 23.9827C212.974 23.9054 213.134 23.9415 213.212 24.0652C213.289 24.1838 213.253 24.3437 213.129 24.421C211.06 25.7153 208.913 25.9113 207.793 25.9113Z" fill="#433552"/>
<path d="M189.275 65.5748C189.275 65.5748 189.223 65.5748 189.198 65.5645C189.063 65.5232 188.986 65.3789 189.027 65.2396C189.105 64.9973 190.942 59.2427 192.836 56.7005C194.792 54.0759 202.389 54.7514 202.709 54.7823C202.854 54.7978 202.957 54.9215 202.941 55.0608C202.926 55.2 202.802 55.3083 202.663 55.2928C202.585 55.2877 195.035 54.6173 193.249 57.0099C191.401 59.485 189.533 65.3376 189.518 65.3995C189.481 65.5078 189.383 65.58 189.27 65.58L189.275 65.5748Z" fill="#433552"/>
<path d="M223.1 31.2327C222.987 31.2327 222.878 31.1554 222.853 31.0368C222.027 27.8088 219.74 25.8287 219.715 25.8081C219.606 25.7153 219.591 25.5503 219.684 25.442C219.777 25.3337 219.942 25.3234 220.045 25.4111C220.143 25.4936 222.481 27.5149 223.348 30.9027C223.384 31.0419 223.302 31.1812 223.162 31.2173C223.142 31.2224 223.121 31.2276 223.1 31.2276V31.2327Z" fill="#433552"/>
<path d="M208.536 15.2374C208.536 15.2374 208.536 15.3611 208.526 15.5519C208.51 16.1913 208.5 17.5681 208.686 17.5371C208.928 17.4959 208.99 17.4598 209.109 17.3154C209.228 17.171 209.181 14.6186 209.181 14.6186C209.181 14.6186 208.541 14.9228 208.531 15.2374H208.536Z" fill="#43384A"/>
<path d="M211.7 12.6179C211.7 12.6179 201.264 13.6079 200.862 14.6289C200.459 15.6499 202.064 17.6661 202.962 17.4856C203.86 17.3051 203.845 16.3666 204.588 16.2429C205.331 16.1191 205.388 17.764 207.421 16.5265C209.455 15.2941 211.689 14.6237 212.025 14.1906C212.36 13.7575 212.381 12.4683 211.705 12.6179H211.7Z" fill="#251D35"/>
<path d="M189.151 105.671C188.645 105.671 188.15 105.666 187.66 105.651C187.515 105.651 187.407 105.527 187.407 105.388C187.407 105.249 187.525 105.135 187.665 105.135H187.67C188.165 105.151 188.671 105.156 189.177 105.156C189.528 105.156 189.884 105.156 190.24 105.146C190.385 105.156 190.498 105.259 190.503 105.398C190.508 105.537 190.395 105.656 190.25 105.661C189.879 105.666 189.518 105.661 189.151 105.671ZM192.826 105.563C192.692 105.563 192.578 105.455 192.568 105.321C192.557 105.176 192.666 105.058 192.81 105.048C193.646 105.001 194.508 104.934 195.375 104.857C195.515 104.841 195.644 104.95 195.654 105.089C195.67 105.228 195.561 105.357 195.422 105.367C194.55 105.45 193.683 105.512 192.841 105.563C192.841 105.563 192.831 105.563 192.826 105.563ZM185.095 105.517C185.095 105.517 185.079 105.517 185.074 105.517C184.202 105.45 183.335 105.352 182.499 105.238C182.359 105.218 182.261 105.089 182.277 104.95C182.297 104.81 182.432 104.712 182.566 104.728C183.391 104.841 184.243 104.934 185.11 105.001C185.255 105.011 185.358 105.135 185.347 105.28C185.337 105.414 185.224 105.517 185.089 105.517H185.095ZM197.946 105.017C197.827 105.017 197.718 104.934 197.693 104.81C197.667 104.671 197.755 104.532 197.894 104.506C198.72 104.336 199.54 104.109 200.33 103.831C200.464 103.784 200.609 103.851 200.66 103.985C200.707 104.119 200.64 104.269 200.505 104.315C199.69 104.604 198.849 104.836 197.997 105.011C197.982 105.011 197.961 105.017 197.946 105.017ZM180.006 104.8C180.006 104.8 179.97 104.8 179.954 104.795C179.098 104.614 178.251 104.403 177.441 104.166C177.307 104.125 177.224 103.98 177.265 103.846C177.307 103.712 177.446 103.63 177.585 103.671C178.38 103.903 179.211 104.109 180.057 104.29C180.197 104.321 180.285 104.455 180.259 104.594C180.233 104.718 180.125 104.8 180.006 104.8ZM175.082 103.351C175.051 103.351 175.02 103.346 174.989 103.336C174.174 103.016 173.379 102.66 172.626 102.279C172.497 102.217 172.445 102.057 172.512 101.933C172.579 101.804 172.734 101.753 172.858 101.82C173.601 102.196 174.38 102.542 175.18 102.856C175.314 102.908 175.376 103.057 175.325 103.191C175.284 103.294 175.185 103.356 175.082 103.356V103.351ZM202.771 103.31C202.678 103.31 202.585 103.258 202.544 103.171C202.477 103.042 202.529 102.887 202.652 102.825C203.385 102.449 204.118 102.01 204.83 101.526C204.949 101.448 205.109 101.474 205.192 101.593C205.274 101.711 205.243 101.871 205.124 101.949C204.397 102.444 203.643 102.892 202.895 103.279C202.859 103.3 202.818 103.31 202.776 103.31H202.771ZM170.515 101.031C170.468 101.031 170.417 101.015 170.375 100.989C169.653 100.525 168.946 100.015 168.27 99.4734C168.161 99.3858 168.141 99.2208 168.228 99.1125C168.316 98.999 168.481 98.9836 168.59 99.0712C169.245 99.5972 169.942 100.097 170.649 100.551C170.768 100.628 170.804 100.788 170.726 100.907C170.675 100.984 170.592 101.026 170.51 101.026L170.515 101.031ZM207.019 100.427C206.946 100.427 206.874 100.396 206.822 100.335C206.73 100.226 206.745 100.061 206.853 99.9684C207.478 99.4373 208.102 98.8495 208.722 98.2256C208.82 98.1224 208.985 98.1224 209.088 98.2256C209.191 98.3235 209.191 98.4885 209.088 98.5917C208.464 99.2311 207.824 99.8241 207.189 100.365C207.142 100.407 207.081 100.427 207.024 100.427H207.019ZM166.52 97.8234C166.453 97.8234 166.391 97.7976 166.339 97.7512C165.736 97.1582 165.147 96.5136 164.585 95.8433C164.492 95.735 164.507 95.57 164.616 95.4823C164.724 95.3895 164.889 95.405 164.977 95.5133C165.529 96.1733 166.107 96.8024 166.696 97.3851C166.799 97.483 166.799 97.648 166.696 97.7512C166.644 97.8027 166.577 97.8285 166.51 97.8285L166.52 97.8234ZM210.642 96.7611C210.58 96.7611 210.523 96.7405 210.476 96.6992C210.368 96.6064 210.353 96.4466 210.446 96.3331C210.972 95.7144 211.514 95.044 212.056 94.3324C212.143 94.219 212.303 94.1984 212.417 94.2809C212.531 94.3685 212.551 94.5284 212.463 94.6418C211.916 95.3586 211.369 96.0392 210.838 96.6632C210.786 96.725 210.714 96.756 210.642 96.756V96.7611ZM163.227 93.889C163.145 93.889 163.067 93.8529 163.016 93.7807C162.536 93.0949 162.066 92.3627 161.612 91.5995C161.54 91.4757 161.581 91.321 161.7 91.2437C161.824 91.1715 161.978 91.2128 162.051 91.3365C162.495 92.0894 162.959 92.8113 163.434 93.4816C163.516 93.6002 163.485 93.7601 163.372 93.8426C163.325 93.8735 163.274 93.889 163.222 93.889H163.227ZM213.78 92.6669C213.728 92.6669 213.676 92.6514 213.63 92.6205C213.511 92.538 213.485 92.3781 213.568 92.2595C214.038 91.5892 214.518 90.8724 215.008 90.1247C215.085 90.0061 215.245 89.9701 215.364 90.0474C215.483 90.1247 215.519 90.2846 215.441 90.4032C214.951 91.1509 214.466 91.8779 213.996 92.5483C213.945 92.6205 213.867 92.6566 213.785 92.6566L213.78 92.6669ZM160.595 89.4699C160.502 89.4699 160.409 89.4183 160.363 89.3307C159.986 88.5984 159.61 87.8095 159.243 86.9948C159.186 86.8659 159.243 86.7112 159.372 86.6544C159.501 86.5977 159.656 86.6544 159.713 86.7834C160.074 87.5929 160.451 88.3664 160.822 89.0935C160.889 89.2224 160.838 89.3771 160.709 89.4389C160.673 89.4596 160.631 89.4699 160.59 89.4699H160.595ZM216.613 88.3458C216.566 88.3458 216.52 88.3355 216.479 88.3045C216.36 88.2272 216.319 88.0725 216.396 87.9487C216.85 87.2217 217.299 86.4894 217.748 85.7572C217.821 85.6335 217.981 85.5974 218.104 85.6696C218.228 85.7417 218.264 85.9016 218.192 86.0254C217.743 86.7627 217.294 87.4949 216.84 88.222C216.794 88.2994 216.706 88.3458 216.623 88.3458H216.613ZM158.469 84.7723C158.366 84.7723 158.273 84.7105 158.232 84.6125C157.922 83.8493 157.617 83.0604 157.303 82.1993C157.251 82.0652 157.323 81.9157 157.457 81.8692C157.592 81.8177 157.741 81.8899 157.788 82.0239C158.103 82.8799 158.407 83.6637 158.711 84.4217C158.763 84.5558 158.701 84.7053 158.567 84.7569C158.536 84.7672 158.505 84.7775 158.469 84.7775V84.7723ZM219.302 83.9421C219.255 83.9421 219.209 83.9318 219.168 83.906C219.044 83.8339 219.008 83.674 219.08 83.5503C219.529 82.8129 219.973 82.0755 220.427 81.3381C220.499 81.2195 220.659 81.1783 220.783 81.2505C220.907 81.3227 220.943 81.4825 220.866 81.6063C220.417 82.3385 219.968 83.0759 219.524 83.8132C219.477 83.8957 219.39 83.937 219.302 83.937V83.9421ZM156.678 79.9356C156.57 79.9356 156.472 79.8685 156.435 79.7602C156.157 78.9507 155.883 78.136 155.61 77.3109C155.563 77.1769 155.641 77.0325 155.775 76.9861C155.909 76.9397 156.054 77.017 156.1 77.1511C156.368 77.971 156.642 78.7857 156.921 79.5952C156.967 79.7293 156.895 79.8788 156.761 79.9253C156.735 79.9356 156.704 79.9407 156.678 79.9407V79.9356ZM222.011 79.5437C221.965 79.5437 221.918 79.5334 221.872 79.5024C221.753 79.4251 221.717 79.2652 221.789 79.1466C222.254 78.4144 222.724 77.6873 223.198 76.9758C223.276 76.8572 223.441 76.8262 223.554 76.9036C223.673 76.9809 223.704 77.1408 223.627 77.2594C223.152 77.971 222.687 78.6877 222.223 79.4199C222.171 79.4973 222.089 79.5385 222.006 79.5385L222.011 79.5437ZM224.886 75.2586C224.834 75.2586 224.783 75.2432 224.736 75.2122C224.623 75.1297 224.592 74.9699 224.68 74.8513C225.206 74.1191 225.727 73.4229 226.238 72.7784C226.326 72.6649 226.491 72.6495 226.599 72.7371C226.713 72.8248 226.729 72.9898 226.641 73.0981C226.135 73.7375 225.619 74.4233 225.098 75.1504C225.046 75.2226 224.969 75.2586 224.886 75.2586ZM155.058 75.0369C154.949 75.0369 154.846 74.9699 154.81 74.8564L154.02 72.402C153.979 72.2679 154.051 72.1235 154.185 72.0771C154.319 72.0359 154.464 72.1081 154.51 72.2421L155.3 74.7017C155.341 74.8358 155.269 74.9802 155.135 75.0266C155.109 75.0369 155.083 75.0369 155.058 75.0369ZM267.604 71.3552C267.557 71.3552 267.511 71.3449 267.47 71.314C266.726 70.8499 265.988 70.4013 265.271 69.9784C265.147 69.9062 265.106 69.7464 265.178 69.6278C265.25 69.504 265.41 69.4628 265.529 69.535C266.252 69.9578 266.995 70.4116 267.743 70.8756C267.862 70.953 267.903 71.1077 267.826 71.2314C267.779 71.3088 267.691 71.35 267.609 71.35L267.604 71.3552ZM228.091 71.2211C228.029 71.2211 227.967 71.2005 227.921 71.1541C227.812 71.0613 227.807 70.8963 227.9 70.788C228.494 70.1228 229.097 69.4937 229.696 68.9162C229.799 68.8182 229.964 68.8182 230.062 68.9214C230.161 69.0245 230.161 69.1895 230.057 69.2875C229.469 69.8547 228.87 70.4786 228.287 71.1335C228.236 71.1902 228.163 71.2211 228.096 71.2211H228.091ZM153.468 70.128C153.36 70.128 153.256 70.0609 153.225 69.9526C152.957 69.1379 152.683 68.3232 152.405 67.5085C152.358 67.3744 152.431 67.2249 152.565 67.1785C152.699 67.1321 152.849 67.2042 152.895 67.3383C153.174 68.153 153.447 68.9729 153.721 69.7876C153.767 69.9217 153.69 70.0661 153.556 70.1125C153.53 70.1228 153.504 70.128 153.473 70.128H153.468ZM263.15 68.7512C263.108 68.7512 263.067 68.7409 263.026 68.7202C262.257 68.3026 261.488 67.9004 260.75 67.5291C260.621 67.4672 260.569 67.3125 260.636 67.1836C260.698 67.0547 260.853 67.0031 260.982 67.0702C261.73 67.4414 262.505 67.8436 263.279 68.2665C263.403 68.3335 263.449 68.4934 263.382 68.6171C263.336 68.7048 263.248 68.7512 263.155 68.7512H263.15ZM231.802 67.658C231.724 67.658 231.652 67.6271 231.6 67.56C231.513 67.4466 231.528 67.2868 231.642 67.1991C232.333 66.6474 233.046 66.1369 233.753 65.6831C233.871 65.6057 234.031 65.6418 234.109 65.7604C234.186 65.879 234.15 66.0389 234.031 66.1162C233.335 66.5597 232.643 67.0547 231.967 67.6013C231.92 67.6374 231.864 67.658 231.807 67.658H231.802ZM258.531 66.4566C258.495 66.4566 258.458 66.4514 258.427 66.4359C257.627 66.0801 256.833 65.745 256.059 65.4459C255.924 65.3943 255.857 65.2448 255.909 65.1107C255.96 64.9767 256.11 64.9148 256.244 64.9612C257.024 65.2654 257.829 65.6006 258.634 65.9615C258.763 66.0183 258.825 66.173 258.763 66.3019C258.722 66.3998 258.624 66.4566 258.526 66.4566H258.531ZM151.78 65.2499C151.677 65.2499 151.574 65.1829 151.538 65.0798C151.244 64.2754 150.939 63.471 150.624 62.6717C150.573 62.5376 150.635 62.3881 150.769 62.3365C150.903 62.285 151.053 62.3469 151.104 62.4809C151.424 63.2853 151.729 64.0897 152.023 64.8993C152.069 65.0334 152.002 65.1829 151.868 65.2293C151.837 65.2396 151.811 65.2448 151.78 65.2448V65.2499ZM236.142 64.9199C236.044 64.9199 235.951 64.8632 235.91 64.7704C235.848 64.6415 235.905 64.4868 236.034 64.4249C236.818 64.0536 237.634 63.7288 238.454 63.471C238.589 63.4297 238.733 63.5019 238.779 63.636C238.821 63.77 238.749 63.9144 238.614 63.9608C237.82 64.2135 237.025 64.528 236.261 64.889C236.225 64.9045 236.189 64.9148 236.153 64.9148L236.142 64.9199ZM253.721 64.6054C253.695 64.6054 253.669 64.6054 253.643 64.5951C252.807 64.3269 251.981 64.0897 251.181 63.8938C251.042 63.8577 250.959 63.7185 250.99 63.5844C251.027 63.4452 251.161 63.3627 251.305 63.3936C252.116 63.5947 252.957 63.8319 253.803 64.1052C253.937 64.1516 254.015 64.296 253.968 64.4301C253.932 64.5384 253.834 64.6105 253.721 64.6105V64.6054ZM248.714 63.3833C248.714 63.3833 248.689 63.3833 248.673 63.3833C247.811 63.2441 246.96 63.1513 246.134 63.0997C245.989 63.0894 245.881 62.9708 245.891 62.8264C245.902 62.6872 246.01 62.5789 246.165 62.5841C247.006 62.6356 247.873 62.7336 248.751 62.8728C248.89 62.8934 248.988 63.0275 248.967 63.1667C248.947 63.2956 248.838 63.3833 248.714 63.3833ZM241.019 63.3678C240.895 63.3678 240.787 63.2802 240.766 63.1564C240.741 63.0172 240.834 62.8831 240.973 62.8573C241.809 62.7078 242.681 62.6098 243.559 62.5634C243.713 62.5583 243.822 62.6666 243.827 62.8058C243.832 62.9502 243.724 63.0688 243.584 63.0739C242.728 63.1152 241.881 63.2131 241.066 63.3575C241.05 63.3575 241.035 63.3575 241.019 63.3575V63.3678ZM60.4045 62.5944C60.3581 62.5944 60.3168 62.5841 60.2755 62.5583C60.1516 62.4861 60.1103 62.3262 60.1826 62.2076C60.2032 62.1767 60.6729 61.3671 61.607 60.0161C61.6896 59.8975 61.8496 59.8717 61.9683 59.9491C62.087 60.0316 62.1128 60.1914 62.0354 60.31C61.1167 61.6404 60.6368 62.4603 60.6316 62.4706C60.5851 62.5531 60.4974 62.5995 60.4097 62.5995L60.4045 62.5944ZM149.881 60.4596C149.783 60.4596 149.685 60.4029 149.644 60.3049C149.298 59.5005 148.937 58.7167 148.58 57.969C148.519 57.8401 148.575 57.6854 148.699 57.6235C148.828 57.5617 148.983 57.6184 149.045 57.7421C149.406 58.495 149.767 59.2891 150.118 60.0986C150.175 60.2275 150.118 60.3822 149.984 60.439C149.953 60.4544 149.917 60.4596 149.881 60.4596ZM63.336 58.3248C63.2844 58.3248 63.2276 58.3093 63.1811 58.2732C63.0676 58.1856 63.0469 58.0257 63.1295 57.9123C63.6405 57.2368 64.1772 56.5458 64.7294 55.8703C64.8172 55.762 64.9823 55.7414 65.0907 55.8342C65.1991 55.9219 65.2197 56.0869 65.1268 56.1952C64.5798 56.8655 64.0482 57.5513 63.5372 58.2217C63.4856 58.2887 63.4082 58.3248 63.3308 58.3248H63.336ZM147.646 55.8188C147.553 55.8188 147.466 55.7672 147.419 55.6847C147.006 54.9164 146.578 54.1687 146.15 53.4571C146.077 53.3333 146.113 53.1787 146.237 53.1013C146.361 53.0291 146.516 53.0652 146.593 53.189C147.027 53.9057 147.46 54.6637 147.879 55.4372C147.946 55.5609 147.899 55.7208 147.775 55.7878C147.734 55.8085 147.693 55.8188 147.651 55.8188H147.646ZM66.5977 54.3182C66.5358 54.3182 66.479 54.2976 66.4274 54.2564C66.319 54.1635 66.3087 53.9985 66.4016 53.8902C66.9693 53.2405 67.5577 52.596 68.1409 51.972C68.2389 51.8689 68.3989 51.8638 68.5073 51.9617C68.6105 52.0597 68.6157 52.2247 68.5176 52.3278C67.9344 52.9466 67.3512 53.5912 66.7887 54.2357C66.7371 54.2924 66.6648 54.3234 66.5926 54.3234L66.5977 54.3182ZM144.968 51.4151C144.885 51.4151 144.803 51.3739 144.756 51.3017C144.266 50.5953 143.76 49.8991 143.239 49.2391C143.151 49.1257 143.172 48.9658 143.28 48.8782C143.394 48.7905 143.554 48.8111 143.641 48.9194C144.168 49.5846 144.684 50.291 145.179 51.0078C145.262 51.1264 145.231 51.2862 145.112 51.3687C145.066 51.3997 145.014 51.4151 144.968 51.4151ZM70.133 50.554C70.0659 50.554 69.9988 50.5282 69.9524 50.4767C69.8543 50.3735 69.8543 50.2137 69.9524 50.1106C70.5665 49.5021 71.1962 48.8988 71.8258 48.3213C71.9291 48.2233 72.0942 48.2336 72.1923 48.3367C72.2903 48.4399 72.28 48.6049 72.1768 48.7028C71.5523 49.2752 70.9278 49.8734 70.3137 50.4767C70.262 50.5282 70.2001 50.5489 70.133 50.5489V50.554ZM141.783 47.3725C141.711 47.3725 141.644 47.3415 141.592 47.2848C141.02 46.6506 140.421 46.0369 139.812 45.4491C139.709 45.3511 139.703 45.1861 139.807 45.083C139.905 44.9799 140.07 44.9799 140.173 45.0778C140.792 45.6708 141.396 46.2948 141.974 46.9393C142.067 47.0476 142.062 47.2075 141.954 47.3054C141.902 47.3518 141.84 47.3725 141.783 47.3725ZM73.9367 47.0579C73.8644 47.0579 73.7922 47.027 73.7406 46.9651C73.6477 46.8568 73.6632 46.6918 73.7715 46.6042C74.4321 46.0421 75.1031 45.4904 75.7792 44.9644C75.8927 44.8767 76.0527 44.8974 76.1404 45.0057C76.2282 45.1191 76.2075 45.2789 76.0992 45.3666C75.4334 45.8926 74.7624 46.4391 74.107 46.996C74.0606 47.0373 73.9986 47.0579 73.9419 47.0579H73.9367ZM77.9984 43.8712C77.9158 43.8712 77.8384 43.8351 77.7868 43.7629C77.7042 43.6495 77.73 43.4845 77.8436 43.402C78.5455 42.8967 79.2629 42.4016 79.9751 41.9324C80.0938 41.855 80.2538 41.886 80.3312 42.0046C80.4086 42.1232 80.3776 42.283 80.2589 42.3604C79.5519 42.8245 78.8397 43.3195 78.1429 43.8197C78.0965 43.8506 78.0449 43.8661 77.9932 43.8661L77.9984 43.8712ZM138.078 43.8145C138.021 43.8145 137.959 43.7939 137.913 43.7526C137.262 43.2112 136.581 42.6904 135.889 42.1954C135.776 42.1129 135.745 41.953 135.828 41.8344C135.91 41.721 136.07 41.69 136.189 41.7725C136.891 42.2727 137.582 42.8038 138.238 43.3556C138.346 43.4484 138.362 43.6082 138.269 43.7165C138.217 43.7784 138.145 43.8094 138.073 43.8094L138.078 43.8145ZM82.313 41.0352C82.2253 41.0352 82.1375 40.9888 82.0911 40.9114C82.0188 40.7877 82.0601 40.633 82.1788 40.5556C82.922 40.1122 83.6807 39.6842 84.4342 39.2768C84.5581 39.2098 84.718 39.2562 84.7851 39.3851C84.8522 39.5089 84.8058 39.6687 84.6768 39.7357C83.9284 40.1328 83.1801 40.5608 82.442 40.9991C82.4008 41.0249 82.3543 41.0352 82.3078 41.0352H82.313ZM133.903 40.8238C133.856 40.8238 133.81 40.8134 133.768 40.7877C133.051 40.3494 132.308 39.9265 131.549 39.5243C131.425 39.4573 131.374 39.3026 131.441 39.1737C131.508 39.0499 131.663 38.9984 131.792 39.0654C132.561 39.4676 133.319 39.9007 134.042 40.3442C134.166 40.4164 134.202 40.5762 134.124 40.7C134.078 40.7773 133.99 40.8238 133.903 40.8238ZM86.865 38.6013C86.767 38.6013 86.6741 38.5498 86.6328 38.4518C86.5709 38.3229 86.6276 38.1682 86.7566 38.1063C87.536 37.735 88.3359 37.3792 89.1256 37.0544C89.2597 37.0028 89.4094 37.0595 89.461 37.1936C89.5178 37.3225 89.4507 37.4772 89.3217 37.5288C88.5372 37.8536 87.7527 38.2043 86.9786 38.5704C86.9424 38.5858 86.9063 38.5962 86.8702 38.5962L86.865 38.6013ZM129.356 38.4312C129.32 38.4312 129.283 38.426 129.252 38.4105C128.489 38.0702 127.694 37.7453 126.889 37.4411C126.755 37.3895 126.687 37.24 126.739 37.1111C126.791 36.977 126.935 36.91 127.069 36.9616C127.885 37.2709 128.69 37.601 129.464 37.9464C129.593 38.0032 129.655 38.1579 129.593 38.2868C129.552 38.3847 129.454 38.4415 129.356 38.4415V38.4312ZM91.6286 36.6212C91.5203 36.6212 91.4222 36.5542 91.3861 36.4511C91.3396 36.317 91.4067 36.1675 91.5409 36.1211C92.3563 35.8323 93.1821 35.559 94.0027 35.3166C94.1369 35.2754 94.2814 35.3527 94.3227 35.492C94.364 35.626 94.2866 35.7704 94.1472 35.8117C93.3369 36.054 92.5163 36.3222 91.7112 36.6109C91.6803 36.6212 91.6544 36.6264 91.6235 36.6264L91.6286 36.6212ZM124.54 36.6006C124.515 36.6006 124.489 36.6006 124.463 36.5903C123.642 36.3222 122.817 36.0746 122.006 35.8478C121.867 35.8117 121.79 35.6673 121.826 35.5281C121.867 35.3888 122.006 35.3115 122.146 35.3476C122.966 35.5796 123.802 35.8323 124.623 36.1004C124.757 36.1468 124.835 36.2912 124.788 36.4253C124.752 36.5336 124.654 36.6058 124.54 36.6058V36.6006ZM119.57 35.2135C119.57 35.2135 119.529 35.2135 119.514 35.2084C118.678 35.0124 117.831 34.8371 117 34.6824C116.861 34.6566 116.768 34.5226 116.794 34.3833C116.82 34.2441 116.954 34.1513 117.093 34.1771C117.934 34.3318 118.786 34.5122 119.632 34.7082C119.772 34.7391 119.859 34.8783 119.823 35.0176C119.797 35.1362 119.689 35.2187 119.57 35.2187V35.2135ZM96.5677 35.1465C96.449 35.1465 96.3458 35.0691 96.3148 34.9505C96.2839 34.8113 96.3665 34.6721 96.5058 34.6411C97.3419 34.44 98.1986 34.2596 99.0399 34.0997C99.1792 34.0739 99.3134 34.1668 99.3392 34.306C99.365 34.4452 99.2721 34.5793 99.1328 34.6051C98.2967 34.7597 97.4554 34.9402 96.6245 35.1413C96.6039 35.1413 96.5832 35.1465 96.5626 35.1465H96.5677ZM114.497 34.2802C114.497 34.2802 114.476 34.2802 114.461 34.2802C113.615 34.1668 112.753 34.0688 111.911 34.0017C111.767 33.9914 111.664 33.8625 111.674 33.7233C111.684 33.5841 111.813 33.4758 111.953 33.4861C112.804 33.5583 113.671 33.6511 114.528 33.7697C114.667 33.7903 114.771 33.9192 114.75 34.0585C114.734 34.1874 114.621 34.2802 114.492 34.2802H114.497ZM101.636 34.2132C101.507 34.2132 101.398 34.1203 101.378 33.9863C101.357 33.8471 101.46 33.7181 101.6 33.6975C102.451 33.5892 103.318 33.5016 104.18 33.4345C104.325 33.4242 104.443 33.5325 104.459 33.6717C104.469 33.8161 104.361 33.9399 104.222 33.9502C103.37 34.0121 102.513 34.0997 101.672 34.208C101.662 34.208 101.651 34.208 101.641 34.208L101.636 34.2132ZM109.357 33.8471C109.357 33.8471 109.352 33.8471 109.346 33.8471C108.479 33.8213 107.623 33.8161 106.781 33.8316C106.637 33.8419 106.523 33.7233 106.518 33.5789C106.518 33.4345 106.627 33.3211 106.771 33.3159C107.623 33.3005 108.49 33.3056 109.367 33.3314C109.512 33.3314 109.62 33.4552 109.615 33.5995C109.615 33.7388 109.496 33.8471 109.357 33.8471Z" fill="white"/>
<path d="M34.4756 206.14C34.0369 206.14 33.593 206.125 33.1492 206.094C33.0047 206.083 32.9015 205.96 32.9118 205.82C32.9221 205.676 33.046 205.568 33.1853 205.583C34.0317 205.64 34.8884 205.645 35.7297 205.583C35.8742 205.573 35.9929 205.681 36.0032 205.82C36.0135 205.965 35.9052 206.083 35.7607 206.094C35.3323 206.125 34.8988 206.135 34.4704 206.135L34.4756 206.14ZM38.2999 205.753C38.1812 205.753 38.0728 205.671 38.047 205.547C38.016 205.408 38.1089 205.269 38.2483 205.243C39.074 205.073 39.8946 204.846 40.6997 204.567C40.8339 204.521 40.9836 204.593 41.0301 204.727C41.0765 204.861 41.0042 205.006 40.8701 205.057C40.0443 205.341 39.1979 205.573 38.3515 205.748C38.336 205.748 38.3154 205.748 38.2999 205.748V205.753ZM30.6151 205.753C30.6151 205.753 30.579 205.753 30.5635 205.753C29.7223 205.583 28.8707 205.356 28.0449 205.078C27.9108 205.031 27.8385 204.887 27.8798 204.753C27.9262 204.619 28.0707 204.547 28.2049 204.593C29.0152 204.866 29.841 205.088 30.6667 205.253C30.8061 205.279 30.899 205.418 30.868 205.557C30.8422 205.681 30.7338 205.764 30.6151 205.764V205.753ZM25.7328 204.129C25.6967 204.129 25.6606 204.124 25.6244 204.103C24.8503 203.742 24.0761 203.325 23.3278 202.871C23.2039 202.799 23.1678 202.639 23.24 202.515C23.3123 202.391 23.4723 202.355 23.5961 202.427C24.329 202.871 25.0877 203.278 25.8412 203.634C25.9702 203.696 26.027 203.851 25.9651 203.98C25.9186 204.072 25.8257 204.129 25.7328 204.129ZM43.1667 204.083C43.0738 204.083 42.9809 204.031 42.9345 203.938C42.8725 203.809 42.9241 203.655 43.0532 203.593C43.8015 203.227 44.5499 202.809 45.2776 202.345C45.3963 202.268 45.5563 202.304 45.6337 202.422C45.7111 202.541 45.675 202.701 45.5563 202.778C44.8131 203.253 44.0492 203.68 43.2854 204.052C43.2493 204.067 43.208 204.078 43.1719 204.078L43.1667 204.083ZM21.3253 201.458C21.2737 201.458 21.2169 201.443 21.1705 201.406C20.4841 200.886 19.8131 200.324 19.1732 199.736C19.0699 199.638 19.0596 199.478 19.1577 199.37C19.2557 199.267 19.4157 199.256 19.5241 199.354C20.1538 199.932 20.8092 200.483 21.4853 200.994C21.5988 201.082 21.6195 201.241 21.5369 201.355C21.4853 201.422 21.4079 201.458 21.3305 201.458H21.3253ZM47.5174 201.329C47.44 201.329 47.3626 201.293 47.3162 201.231C47.2284 201.118 47.2491 200.958 47.3626 200.87C48.0129 200.36 48.6684 199.798 49.3032 199.205C49.4064 199.107 49.5715 199.112 49.6696 199.215C49.7676 199.318 49.7625 199.483 49.6593 199.581C49.0141 200.184 48.3484 200.757 47.6878 201.278C47.6413 201.314 47.5845 201.334 47.5278 201.334L47.5174 201.329ZM17.532 197.967C17.4597 197.967 17.3926 197.936 17.341 197.879C16.7578 197.235 16.2056 196.554 15.6895 195.863C15.6069 195.75 15.6275 195.585 15.7411 195.502C15.8546 195.415 16.0146 195.44 16.1024 195.554C16.6081 196.229 17.15 196.9 17.7229 197.534C17.821 197.642 17.8106 197.802 17.7023 197.9C17.6507 197.947 17.5887 197.967 17.532 197.967ZM51.285 197.812C51.2231 197.812 51.1611 197.792 51.1095 197.745C51.0063 197.647 50.996 197.488 51.094 197.379C51.2901 197.168 51.4811 196.951 51.6772 196.73C52.054 196.296 52.4307 195.874 52.8075 195.456C52.9004 195.348 53.0655 195.342 53.1739 195.435C53.2823 195.528 53.2875 195.693 53.1946 195.801C52.823 196.219 52.4462 196.642 52.0695 197.075C51.8733 197.302 51.6772 197.519 51.4811 197.735C51.4295 197.792 51.3624 197.818 51.2901 197.818L51.285 197.812ZM162.082 196.668C161.942 196.668 161.824 196.554 161.824 196.415C161.824 196.271 161.937 196.157 162.076 196.152C162.938 196.137 163.805 196.106 164.642 196.059C164.765 196.049 164.905 196.157 164.915 196.302C164.925 196.446 164.817 196.565 164.672 196.575C163.826 196.626 162.954 196.657 162.082 196.668ZM159.501 196.657H159.496C158.655 196.637 157.788 196.606 156.91 196.554C156.766 196.544 156.657 196.425 156.668 196.281C156.678 196.137 156.802 196.023 156.941 196.039C157.813 196.09 158.675 196.121 159.511 196.142C159.656 196.142 159.77 196.266 159.764 196.405C159.764 196.544 159.646 196.657 159.506 196.657H159.501ZM167.227 196.363C167.098 196.363 166.985 196.265 166.969 196.131C166.954 195.992 167.057 195.863 167.201 195.848C168.058 195.76 168.915 195.647 169.741 195.518C169.875 195.497 170.014 195.59 170.035 195.734C170.055 195.874 169.963 196.008 169.818 196.028C168.977 196.162 168.115 196.271 167.248 196.363C167.238 196.363 167.227 196.363 167.222 196.363H167.227ZM154.356 196.358C154.356 196.358 154.34 196.358 154.33 196.358C153.468 196.271 152.601 196.168 151.76 196.039C151.62 196.018 151.522 195.889 151.543 195.745C151.564 195.605 151.693 195.507 151.837 195.528C152.668 195.652 153.525 195.76 154.381 195.843C154.521 195.858 154.629 195.982 154.614 196.126C154.598 196.26 154.49 196.358 154.356 196.358ZM149.262 195.595C149.262 195.595 149.226 195.595 149.21 195.595C148.364 195.425 147.512 195.229 146.686 195.012C146.547 194.976 146.464 194.837 146.501 194.698C146.537 194.559 146.676 194.476 146.815 194.512C147.636 194.724 148.472 194.92 149.313 195.09C149.453 195.116 149.546 195.255 149.515 195.394C149.489 195.518 149.38 195.6 149.262 195.6V195.595ZM172.316 195.559C172.197 195.559 172.089 195.477 172.063 195.358C172.032 195.219 172.12 195.08 172.259 195.054C173.106 194.868 173.942 194.662 174.742 194.435C174.881 194.394 175.02 194.476 175.062 194.61C175.103 194.749 175.02 194.889 174.886 194.93C174.071 195.162 173.224 195.373 172.373 195.559C172.352 195.559 172.337 195.564 172.316 195.564V195.559ZM144.276 194.301C144.25 194.301 144.225 194.301 144.199 194.291C143.378 194.028 142.558 193.739 141.752 193.429C141.618 193.378 141.551 193.228 141.603 193.094C141.654 192.96 141.804 192.898 141.938 192.945C142.728 193.249 143.543 193.533 144.354 193.796C144.488 193.837 144.565 193.986 144.519 194.12C144.483 194.229 144.385 194.301 144.271 194.301H144.276ZM177.271 194.146C177.167 194.146 177.064 194.079 177.028 193.976C176.981 193.842 177.049 193.692 177.183 193.646C177.993 193.352 178.793 193.027 179.552 192.687C179.681 192.63 179.836 192.687 179.892 192.816C179.949 192.945 179.892 193.099 179.763 193.156C178.989 193.502 178.184 193.832 177.358 194.131C177.327 194.141 177.301 194.146 177.271 194.146ZM54.7377 193.976C54.6758 193.976 54.6138 193.955 54.5622 193.909C54.459 193.811 54.4538 193.651 54.5467 193.543C55.1454 192.898 55.7389 192.274 56.3221 191.666C56.4202 191.563 56.5853 191.563 56.6886 191.661C56.7918 191.759 56.7918 191.924 56.6937 192.027C56.1105 192.63 55.5222 193.254 54.9235 193.894C54.8719 193.95 54.8048 193.976 54.7325 193.976H54.7377ZM14.4612 193.826C14.3734 193.826 14.2908 193.78 14.2392 193.703C13.7851 192.955 13.3722 192.187 13.0006 191.413C12.9387 191.284 12.9954 191.13 13.1244 191.068C13.2535 191.006 13.4083 191.063 13.4702 191.192C13.8315 191.95 14.2392 192.702 14.6831 193.435C14.7553 193.558 14.7192 193.713 14.5953 193.79C14.554 193.816 14.5076 193.826 14.4612 193.826ZM139.466 192.45C139.43 192.45 139.394 192.445 139.358 192.429C138.578 192.078 137.794 191.697 137.025 191.3C136.896 191.233 136.849 191.078 136.917 190.954C136.984 190.825 137.138 190.779 137.262 190.846C138.021 191.238 138.8 191.614 139.569 191.965C139.698 192.022 139.755 192.176 139.698 192.305C139.657 192.403 139.559 192.455 139.461 192.455L139.466 192.45ZM181.957 192.022C181.864 192.022 181.776 191.975 181.73 191.888C181.663 191.764 181.704 191.604 181.833 191.537C182.581 191.125 183.314 190.676 184.011 190.207C184.13 190.129 184.289 190.16 184.367 190.279C184.444 190.397 184.413 190.557 184.295 190.635C183.582 191.114 182.839 191.568 182.081 191.986C182.039 192.006 181.998 192.017 181.957 192.017V192.022ZM58.3195 190.263C58.2524 190.263 58.1853 190.238 58.1388 190.186C58.0408 190.083 58.0408 189.923 58.1388 189.82C58.7685 189.196 59.3878 188.598 59.9968 188.025C60.1 187.927 60.2652 187.933 60.3632 188.036C60.4613 188.139 60.4561 188.304 60.3529 188.402C59.7439 188.974 59.1297 189.572 58.5052 190.191C58.4536 190.243 58.3917 190.263 58.3246 190.263H58.3195ZM134.893 190.078C134.847 190.078 134.806 190.067 134.764 190.042C134.032 189.608 133.294 189.15 132.566 188.665C132.447 188.588 132.416 188.428 132.494 188.309C132.571 188.19 132.731 188.16 132.85 188.237C133.567 188.711 134.3 189.17 135.022 189.598C135.146 189.67 135.188 189.83 135.115 189.949C135.069 190.031 134.981 190.078 134.893 190.078ZM12.2522 189.175C12.1439 189.175 12.0458 189.108 12.0097 189.005C11.7155 188.17 11.4729 187.329 11.2871 186.499C11.2562 186.36 11.3439 186.221 11.4832 186.19C11.6226 186.159 11.7619 186.246 11.7929 186.386C11.9735 187.195 12.2109 188.02 12.4948 188.835C12.5413 188.969 12.469 189.119 12.3348 189.165C12.309 189.175 12.278 189.181 12.2471 189.181L12.2522 189.175ZM186.225 189.15C186.153 189.15 186.075 189.119 186.024 189.057C185.936 188.948 185.951 188.783 186.06 188.696C186.715 188.165 187.355 187.592 187.959 186.994C188.062 186.896 188.227 186.896 188.325 186.994C188.423 187.097 188.423 187.257 188.325 187.36C187.706 187.969 187.056 188.551 186.39 189.093C186.344 189.134 186.287 189.15 186.225 189.15ZM130.594 187.237C130.543 187.237 130.486 187.221 130.439 187.185C129.763 186.69 129.072 186.159 128.385 185.607C128.272 185.519 128.256 185.354 128.344 185.246C128.432 185.138 128.597 185.117 128.705 185.205C129.387 185.751 130.073 186.277 130.744 186.767C130.857 186.85 130.883 187.015 130.801 187.128C130.749 187.195 130.672 187.231 130.594 187.231V187.237ZM62.0767 186.726C62.0044 186.726 61.9373 186.695 61.8857 186.638C61.7928 186.53 61.798 186.37 61.9064 186.272C62.5618 185.69 63.2173 185.117 63.8624 184.581C63.9708 184.488 64.1359 184.504 64.2237 184.612C64.3165 184.72 64.3011 184.885 64.1927 184.973C63.5527 185.509 62.9024 186.076 62.247 186.654C62.1954 186.695 62.1386 186.721 62.0767 186.721V186.726ZM82.9323 186.04C82.4317 186.04 81.9001 185.942 81.3479 185.757C81.2137 185.71 81.1415 185.566 81.1879 185.427C81.2344 185.293 81.384 185.22 81.5182 185.267C82.3904 185.566 83.211 185.607 83.882 185.37C84.0161 185.323 84.1658 185.396 84.2122 185.53C84.2587 185.664 84.1864 185.813 84.0523 185.86C83.7065 185.978 83.3297 186.04 82.9375 186.04H82.9323ZM189.9 185.55C189.843 185.55 189.781 185.53 189.734 185.488C189.626 185.396 189.611 185.236 189.703 185.122C190.25 184.478 190.772 183.797 191.262 183.101C191.345 182.982 191.505 182.957 191.623 183.039C191.742 183.122 191.768 183.282 191.685 183.4C191.185 184.112 190.653 184.803 190.096 185.458C190.044 185.519 189.972 185.55 189.9 185.55ZM79.1957 184.509C79.139 184.509 79.0822 184.488 79.0358 184.452C78.3597 183.921 77.7352 183.287 77.1881 182.575C77.1004 182.462 77.121 182.302 77.2346 182.214C77.3481 182.126 77.5081 182.147 77.5958 182.261C78.1223 182.941 78.7158 183.544 79.3557 184.05C79.4693 184.137 79.4848 184.302 79.397 184.411C79.3454 184.473 79.268 184.509 79.1957 184.509ZM11.1426 184.153C11.0084 184.153 10.8949 184.05 10.8846 183.916C10.8381 183.405 10.8175 182.895 10.8175 182.4C10.8175 182.034 10.8278 181.662 10.8536 181.301C10.8639 181.157 10.9878 181.049 11.1271 181.059C11.2716 181.069 11.3749 181.193 11.3697 181.332C11.3491 181.683 11.3336 182.044 11.3336 182.4C11.3336 182.879 11.3542 183.374 11.3955 183.869C11.4058 184.014 11.3026 184.137 11.1581 184.148C11.1529 184.148 11.1426 184.148 11.1375 184.148L11.1426 184.153ZM85.7451 184.117C85.7089 184.117 85.6728 184.112 85.6419 184.096C85.5128 184.04 85.4509 183.885 85.5077 183.756C85.6006 183.55 85.678 183.318 85.7451 183.075C85.9102 182.472 86.0238 181.884 86.0702 181.338C86.0857 181.193 86.2044 181.095 86.3489 181.105C86.4883 181.121 86.5966 181.245 86.5812 181.384C86.5295 181.967 86.4109 182.58 86.2354 183.214C86.1631 183.483 86.0702 183.735 85.9722 183.967C85.9309 184.065 85.8328 184.122 85.7348 184.122L85.7451 184.117ZM126.574 184.014C126.512 184.014 126.455 183.993 126.404 183.952C125.779 183.41 125.129 182.828 124.478 182.224C124.375 182.126 124.37 181.967 124.463 181.858C124.561 181.755 124.721 181.75 124.829 181.843C125.48 182.441 126.12 183.019 126.744 183.56C126.853 183.653 126.863 183.818 126.77 183.926C126.718 183.983 126.646 184.014 126.574 184.014ZM66.0352 183.416C65.9577 183.416 65.8803 183.379 65.8339 183.318C65.7461 183.204 65.7668 183.044 65.8803 182.957C66.5771 182.41 67.2738 181.889 67.9551 181.405C68.0738 181.322 68.2338 181.348 68.3163 181.466C68.3989 181.58 68.3731 181.745 68.2596 181.827C67.5886 182.307 66.8971 182.828 66.2055 183.369C66.159 183.405 66.1023 183.426 66.0455 183.426L66.0352 183.416ZM192.867 181.343C192.821 181.343 192.779 181.332 192.738 181.307C192.614 181.234 192.573 181.08 192.645 180.956C193.068 180.229 193.471 179.471 193.843 178.697C193.904 178.568 194.059 178.517 194.188 178.574C194.317 178.636 194.369 178.79 194.312 178.919C193.935 179.703 193.528 180.476 193.094 181.214C193.048 181.296 192.96 181.343 192.872 181.343H192.867ZM122.786 180.518C122.719 180.518 122.657 180.492 122.605 180.445C121.981 179.837 121.372 179.229 120.773 178.62C120.675 178.517 120.675 178.357 120.773 178.254C120.876 178.156 121.036 178.156 121.139 178.254C121.738 178.857 122.347 179.466 122.966 180.069C123.07 180.167 123.07 180.332 122.966 180.435C122.915 180.487 122.848 180.512 122.781 180.512L122.786 180.518ZM76.0733 180.466C75.9753 180.466 75.8824 180.409 75.8359 180.311C75.4695 179.486 75.2166 178.636 75.0824 177.785C75.0824 177.785 75.0824 177.78 75.0824 177.774C75.005 177.81 74.9224 177.847 74.8399 177.883C74.7108 177.945 74.556 177.883 74.4992 177.759C74.4373 177.63 74.4992 177.475 74.6231 177.419C75.454 177.032 76.2695 176.707 77.0384 176.444C77.1726 176.398 77.3223 176.47 77.3636 176.604C77.41 176.738 77.3378 176.882 77.2036 176.929C76.6617 177.109 76.1043 177.326 75.5314 177.573C75.5624 177.609 75.583 177.656 75.5934 177.702C75.7172 178.512 75.9598 179.316 76.3107 180.1C76.3675 180.229 76.3107 180.384 76.1817 180.44C76.1456 180.456 76.1095 180.461 76.0785 180.461L76.0733 180.466ZM70.2311 180.42C70.1485 180.42 70.0608 180.378 70.0143 180.301C69.9369 180.182 69.973 180.023 70.0917 179.945C70.8401 179.461 71.5884 179.012 72.311 178.605C72.4348 178.532 72.5948 178.579 72.6619 178.703C72.7342 178.826 72.6877 178.986 72.5639 179.053C71.8516 179.455 71.1136 179.899 70.3704 180.378C70.3291 180.404 70.2775 180.42 70.2311 180.42ZM86.096 179.069C85.9877 179.069 85.8896 179.002 85.8535 178.893C85.5851 178.089 85.1103 177.444 84.4497 176.985C84.331 176.903 84.3052 176.743 84.3877 176.625C84.4703 176.506 84.6303 176.48 84.749 176.563C85.5025 177.089 86.0393 177.816 86.3438 178.733C86.3902 178.868 86.3179 179.012 86.1786 179.058C86.1528 179.069 86.1218 179.074 86.096 179.074V179.069ZM11.5091 179.033C11.5091 179.033 11.4678 179.033 11.4471 179.027C11.3078 178.991 11.2252 178.852 11.2562 178.718C11.4626 177.862 11.7516 177.027 12.1077 176.238C12.1645 176.109 12.3193 176.052 12.4484 176.109C12.5774 176.166 12.6342 176.32 12.5774 176.449C12.2316 177.207 11.9581 178.012 11.7568 178.837C11.7258 178.955 11.6226 179.033 11.5039 179.033H11.5091ZM119.157 176.846C119.09 176.846 119.023 176.82 118.972 176.769L117.181 174.907C117.083 174.804 117.083 174.639 117.186 174.541C117.289 174.443 117.454 174.448 117.552 174.546L119.343 176.403C119.441 176.506 119.441 176.671 119.338 176.769C119.287 176.815 119.225 176.841 119.157 176.841V176.846ZM195.107 176.702C195.076 176.702 195.045 176.697 195.014 176.686C194.88 176.635 194.818 176.485 194.87 176.351C195.174 175.567 195.463 174.758 195.721 173.938C195.762 173.804 195.912 173.727 196.046 173.768C196.18 173.809 196.258 173.953 196.217 174.093C195.953 174.923 195.664 175.748 195.355 176.537C195.313 176.64 195.215 176.702 195.112 176.702H195.107ZM79.6241 176.3C79.5003 176.3 79.3919 176.212 79.3712 176.083C79.3454 175.944 79.4435 175.81 79.5828 175.784C80.5324 175.624 81.4305 175.588 82.2201 175.671C82.3595 175.686 82.4627 175.815 82.4472 175.954C82.4317 176.093 82.3078 176.197 82.1633 176.181C81.415 176.104 80.5686 176.135 79.6654 176.289C79.6499 176.289 79.6344 176.289 79.6241 176.289V176.3ZM75.3198 175.433C75.3198 175.433 75.294 175.433 75.2837 175.433C75.1444 175.413 75.0463 175.284 75.0618 175.145C75.1856 174.278 75.4334 173.427 75.8101 172.613C75.8669 172.484 76.0217 172.427 76.1508 172.484C76.2798 172.546 76.3366 172.695 76.2798 172.824C75.9237 173.598 75.6863 174.397 75.5727 175.212C75.5521 175.341 75.4437 175.433 75.3198 175.433ZM13.6302 174.366C13.5786 174.366 13.527 174.351 13.4806 174.32C13.3619 174.237 13.336 174.077 13.4186 173.959C13.9192 173.257 14.4921 172.587 15.1269 171.968C15.2301 171.87 15.3901 171.87 15.4934 171.968C15.5914 172.071 15.5914 172.231 15.4934 172.334C14.8792 172.927 14.327 173.577 13.847 174.253C13.7954 174.325 13.718 174.361 13.6354 174.361L13.6302 174.366ZM115.576 173.134C115.509 173.134 115.442 173.108 115.39 173.056C114.781 172.432 114.177 171.824 113.573 171.231C113.47 171.133 113.47 170.968 113.573 170.865C113.671 170.762 113.836 170.762 113.94 170.865C114.544 171.458 115.153 172.071 115.762 172.695C115.86 172.798 115.86 172.958 115.762 173.061C115.71 173.113 115.648 173.134 115.581 173.134H115.576ZM196.666 171.793C196.666 171.793 196.624 171.793 196.604 171.788C196.464 171.752 196.382 171.612 196.418 171.473C196.619 170.664 196.805 169.823 196.965 168.967C196.991 168.828 197.125 168.735 197.264 168.761C197.404 168.787 197.497 168.921 197.471 169.06C197.306 169.926 197.12 170.777 196.918 171.597C196.888 171.716 196.784 171.793 196.666 171.793ZM77.41 170.793C77.3533 170.793 77.2965 170.772 77.2501 170.736C77.1417 170.648 77.121 170.483 77.2088 170.375C77.73 169.725 78.3493 169.096 79.0461 168.503C79.1545 168.41 79.3196 168.426 79.4125 168.534C79.5054 168.642 79.4899 168.807 79.3816 168.9C78.7055 169.472 78.1119 170.081 77.6113 170.7C77.5597 170.762 77.4875 170.798 77.41 170.798V170.793ZM111.886 169.529C111.824 169.529 111.762 169.509 111.71 169.462C111.034 168.843 110.404 168.292 109.775 167.776C109.666 167.683 109.651 167.523 109.739 167.415C109.826 167.307 109.992 167.291 110.1 167.379C110.735 167.9 111.37 168.457 112.056 169.081C112.159 169.179 112.169 169.338 112.071 169.447C112.02 169.503 111.953 169.529 111.88 169.529H111.886ZM81.2911 167.441C81.2034 167.441 81.1208 167.4 81.0744 167.322C80.9969 167.204 81.0331 167.044 81.1569 166.966C81.8588 166.523 82.6227 166.095 83.433 165.698C83.562 165.636 83.7168 165.688 83.7787 165.817C83.8407 165.945 83.7891 166.1 83.66 166.162C82.8704 166.554 82.1169 166.972 81.4356 167.405C81.3943 167.431 81.3427 167.446 81.2963 167.446L81.2911 167.441ZM197.626 166.729C197.626 166.729 197.6 166.729 197.589 166.729C197.45 166.709 197.352 166.58 197.368 166.44C197.481 165.605 197.579 164.749 197.651 163.888C197.662 163.749 197.791 163.646 197.93 163.656C198.075 163.666 198.178 163.795 198.162 163.934C198.085 164.801 197.987 165.672 197.873 166.513C197.858 166.642 197.744 166.734 197.62 166.734L197.626 166.729ZM107.896 166.27C107.845 166.27 107.793 166.255 107.746 166.224C107.024 165.713 106.301 165.254 105.594 164.857C105.47 164.785 105.424 164.631 105.496 164.507C105.569 164.383 105.723 164.337 105.847 164.409C106.565 164.816 107.303 165.285 108.041 165.801C108.159 165.884 108.185 166.043 108.103 166.162C108.051 166.234 107.974 166.27 107.891 166.27H107.896ZM85.8999 165.141C85.7967 165.141 85.6986 165.079 85.6625 164.976C85.6109 164.842 85.6728 164.692 85.807 164.641C86.5812 164.331 87.4069 164.038 88.2482 163.764C88.3824 163.718 88.5269 163.795 88.5733 163.929C88.6198 164.063 88.5423 164.208 88.4082 164.254C87.5721 164.522 86.7618 164.816 85.998 165.12C85.967 165.131 85.936 165.141 85.9051 165.141H85.8999ZM103.411 163.769C103.38 163.769 103.344 163.764 103.313 163.749C102.518 163.424 101.708 163.166 100.908 162.97C100.769 162.939 100.686 162.8 100.717 162.661C100.748 162.522 100.887 162.439 101.027 162.47C101.853 162.666 102.689 162.939 103.504 163.269C103.638 163.321 103.7 163.476 103.643 163.604C103.602 163.702 103.504 163.764 103.406 163.764L103.411 163.769ZM90.7977 163.543C90.6842 163.543 90.5809 163.465 90.55 163.352C90.5138 163.213 90.5964 163.073 90.7306 163.037C91.4067 162.857 92.1086 162.681 92.8157 162.522C92.9602 162.485 93.1098 162.455 93.2544 162.429C93.3937 162.398 93.5331 162.491 93.5589 162.63C93.5898 162.769 93.4969 162.908 93.3576 162.934C93.2131 162.965 93.0737 162.996 92.9292 163.027C92.2273 163.187 91.5357 163.357 90.8648 163.537C90.8442 163.543 90.8184 163.548 90.7977 163.548V163.543ZM98.436 162.578C98.436 162.578 98.4205 162.578 98.4154 162.578C97.5948 162.516 96.7329 162.511 95.8761 162.578C95.7368 162.589 95.6129 162.48 95.6026 162.341C95.5923 162.197 95.7007 162.078 95.84 162.063C96.7225 162.001 97.6103 162.001 98.4567 162.068C98.6012 162.078 98.7044 162.202 98.6941 162.346C98.6837 162.48 98.5702 162.583 98.436 162.583V162.578ZM198.08 161.593H198.069C197.925 161.588 197.816 161.464 197.822 161.325C197.858 160.485 197.878 159.618 197.884 158.757C197.884 158.613 197.997 158.5 198.142 158.5C198.286 158.5 198.4 158.618 198.4 158.757C198.4 159.629 198.374 160.5 198.338 161.346C198.333 161.485 198.219 161.593 198.08 161.593ZM198.1 156.437C197.961 156.437 197.847 156.329 197.842 156.189C197.816 155.349 197.77 154.488 197.708 153.622C197.698 153.477 197.806 153.359 197.946 153.348C198.075 153.338 198.209 153.446 198.219 153.585C198.281 154.452 198.327 155.323 198.353 156.169C198.353 156.313 198.245 156.432 198.106 156.437H198.095H198.1ZM197.739 151.291C197.61 151.291 197.497 151.193 197.481 151.059C197.393 150.208 197.285 149.347 197.166 148.506C197.146 148.367 197.244 148.233 197.388 148.218C197.527 148.202 197.662 148.295 197.677 148.439C197.796 149.285 197.904 150.151 197.992 151.007C198.007 151.146 197.904 151.275 197.765 151.291C197.755 151.291 197.744 151.291 197.739 151.291ZM197.017 146.181C196.893 146.181 196.784 146.093 196.764 145.969C196.48 144.397 196.253 143.468 196.248 143.458C196.211 143.319 196.299 143.18 196.433 143.144C196.573 143.107 196.712 143.195 196.748 143.329C196.748 143.339 196.986 144.278 197.269 145.876C197.295 146.016 197.202 146.15 197.063 146.176C197.048 146.176 197.032 146.176 197.017 146.176V146.181Z" fill="white"/>
<path d="M20.0041 162.027C20.0041 162.027 22.7755 169.787 24.2361 170.519C25.6967 171.251 41.2365 153.642 41.2365 153.642C41.2365 153.642 17.2016 158.35 15.5553 158.587C9.40335 159.469 20.0041 162.032 20.0041 162.032V162.027Z" fill="white"/>
<path d="M17.9706 160.913C17.9706 160.913 19.6789 170.065 20.0092 170.04C20.6957 169.978 22.3317 164.677 22.8684 163.362C23.4052 162.047 17.4236 160.346 17.9655 160.913H17.9706Z" fill="white"/>
<path d="M17.9397 161.361C17.9397 161.361 38.8573 153.952 37.3761 155.55C35.8897 157.143 21.9446 162.083 21.2634 163.202C20.577 164.321 20.2467 170.463 19.9318 169.967C19.6222 169.472 17.6094 161.98 17.9397 161.367V161.361Z" fill="#3DBCC4"/>
<path d="M21.3047 163.31C21.3047 163.31 22.022 165.595 22.0014 166.327C21.9808 167.064 20.3189 170.045 20.0144 170.04C19.7099 170.035 20.3808 162.408 21.3098 163.31H21.3047Z" fill="#3DBCC4"/>
<path d="M276.543 70.1589C276.543 70.1589 272.135 77.1201 272.455 78.7238C272.775 80.3223 296.237 81.7042 296.237 81.7042C296.237 81.7042 277.719 65.6883 276.517 64.5384C272.032 60.243 276.543 70.1589 276.543 70.1589Z" fill="white"/>
<path d="M276.166 67.8694C276.166 67.8694 270.004 74.8565 270.231 75.0988C270.7 75.6041 275.892 73.6189 277.255 73.2373C278.623 72.8506 276.274 67.096 276.166 67.8694Z" fill="white"/>
<path d="M275.794 68.1221C275.794 68.1221 294.524 80.0232 292.351 79.8376C290.178 79.652 277.694 71.7162 276.393 71.8709C275.087 72.0204 270.04 75.5423 270.241 74.9905C270.442 74.4388 275.108 68.2407 275.794 68.1273V68.1221Z" fill="#5302D6"/>
<path d="M276.331 71.9688C276.331 71.9688 274.974 73.9386 274.38 74.3769C273.787 74.8152 270.411 75.3463 270.226 75.0988C270.04 74.8564 276.47 70.6849 276.331 71.9688Z" fill="#1A358F"/>
<path d="M230.326 125.06C230.326 125.06 231.755 119.96 233.438 118.454C235.12 116.944 238.656 125.204 238.619 127.256C238.578 129.309 229.226 128.241 230.331 125.065L230.326 125.06Z" fill="#251D35"/>
<path d="M276.063 208.682C276.063 208.682 273.188 211.039 273.611 211.709C274.034 212.379 274.447 212.962 274.225 214.184C274.003 215.401 270.788 218.366 273.08 217.969C275.376 217.572 278.819 212.874 279.34 212.333C279.861 211.792 276.305 208.925 276.057 208.682H276.063Z" fill="#251D35"/>
<path d="M273.611 211.709C273.611 211.709 277.152 210.528 276.806 209.353L274.736 206.207C274.143 206.599 270.891 208.218 271.082 209.342C271.124 209.579 273.616 211.709 273.616 211.709H273.611Z" fill="#CF677D"/>
<path d="M243.306 100.381C243.306 100.381 235.998 95.3792 235.378 101.015C235.131 103.289 236.922 112.318 239.848 111.091C246.511 108.301 243.306 100.381 243.306 100.381Z" fill="#CF677D"/>
<path d="M242.588 100.113C242.588 100.113 242.63 96.89 239.739 97.6068C238.103 98.0141 237.407 95.4565 236.323 95.5442C235.239 95.6319 231.91 101.082 235.358 101.505C238.81 101.928 241.128 100.025 241.484 101.072C241.835 102.119 241.355 104.264 242.593 105.439C243.827 106.615 242.557 108.869 243.43 108.286C244.302 107.703 249.158 101.423 242.593 100.108L242.588 100.113Z" fill="#43384A"/>
<path d="M242.511 105.501C242.511 105.501 242.645 103.738 243.548 104.269C244.451 104.8 244.039 105.702 243.486 106.414C242.934 107.126 242.433 105.971 242.511 105.506V105.501Z" fill="#CF677D"/>
<path d="M242.501 106.93C242.501 106.93 243.971 113.272 245.009 114.391C246.051 115.51 254.345 112.844 255.63 113.298C256.915 113.752 246.789 121.574 243.76 122.564C240.73 123.554 233.257 122.193 232.617 121.909C231.977 121.62 241.117 115.299 241.164 114.603C241.21 113.906 238.96 108.425 238.96 108.425L242.495 106.925L242.501 106.93Z" fill="#CF677D"/>
<path d="M241.169 114.603C241.169 114.603 248.978 107.811 255.635 113.298C262.293 118.784 264.92 154.024 262.035 152.724C259.15 151.43 239.28 159.025 235.353 156.586C231.425 154.142 233.815 127.452 232.617 121.909C231.425 116.366 241.164 114.603 241.164 114.603H241.169Z" fill="#251D35"/>
<path d="M245.504 150.162C245.504 150.162 245.484 175.33 247.858 185.102C250.232 194.873 267.562 210.348 268.848 212.013C269.699 213.112 278.189 204.825 278.189 204.825C278.189 204.825 263.712 185.416 264.275 181.111C264.837 176.805 264.616 155.21 262.567 152.209C260.518 149.208 245.504 150.167 245.504 150.167V150.162Z" fill="#251D35"/>
<path d="M245.969 114.659C245.969 114.659 244.725 111.349 244.168 111.204C243.61 111.06 239.265 112.246 239.146 112.932C239.027 113.618 239.714 117.227 239.714 117.227C239.714 117.227 245.685 116.567 245.969 114.659Z" fill="#251D35"/>
<path d="M236.792 108.384C236.792 108.384 237.479 106.77 238.599 106.93C239.719 107.084 240.214 108.497 241.525 108.384C242.836 108.27 241.768 104.903 242.098 104.769C242.428 104.635 242.779 104.506 242.779 104.506C242.779 104.506 243.75 107.848 243.022 108.987C242.583 109.673 239.76 111.766 238.857 111.937C237.954 112.107 236.318 109.157 236.792 108.379V108.384Z" fill="#43384A"/>
<path d="M228.674 212.379C228.674 212.379 225.046 211.58 224.778 212.328C224.514 213.076 224.308 213.756 223.214 214.339C222.12 214.922 217.795 214.225 219.529 215.783C221.263 217.34 227.09 217.139 227.838 217.216C228.586 217.294 228.643 212.725 228.679 212.385L228.674 212.379Z" fill="#251D35"/>
<path d="M224.778 212.328C224.778 212.328 226.341 213.189 228.607 213.38L229.799 209.806C229.123 209.58 225.836 208.033 225.072 208.873C224.912 209.054 224.778 212.328 224.778 212.328Z" fill="#CF677D"/>
<path d="M247.708 147.243C247.708 147.243 230.955 165.26 225.794 173.892C220.633 182.524 220.84 206.671 220.509 208.626C220.277 209.997 235.353 211.142 235.353 211.142C235.353 211.142 241.67 182.75 244.168 179.192C247.094 175.016 257.803 164.223 258.443 160.65C259.088 157.071 247.708 147.243 247.708 147.243Z" fill="#251D35"/>
<path d="M300.547 130.902H210.946V140.179H300.547V130.902Z" fill="#28D89A"/>
<path d="M234.346 124.859H212.453C210.972 124.859 209.775 126.06 209.775 127.535V134.269C209.775 135.749 210.977 136.945 212.453 136.945H236.462C238.274 136.945 239.564 135.192 239.017 133.465L236.901 126.731C236.55 125.617 235.513 124.854 234.346 124.854V124.859Z" fill="#279C82"/>
<path d="M298.725 129.304H212.768V182.482H298.725V129.304Z" fill="#F8F4E2"/>
<path d="M255.749 133.099H208.046C206.704 133.099 205.666 134.274 205.832 135.605L212.025 184.906C212.164 186.02 213.114 186.855 214.239 186.855H297.259C298.384 186.855 299.334 186.02 299.473 184.906L305.666 135.605C305.831 134.274 304.794 133.099 303.452 133.099H255.749Z" fill="#5302D6"/>
<path d="M252.797 113.298C252.797 113.298 272.796 119.996 275.129 127.334C277.466 134.671 264.249 153.817 263.191 155.576C262.272 157.097 263.666 151.982 263.666 151.982C263.666 151.982 263.108 152.987 262.438 153.431C261.772 153.874 262.278 151.466 262.278 151.466C262.278 151.466 261.983 152.564 261.018 153.044C260.543 153.281 261.261 150.868 261.261 150.868C261.261 150.868 258.608 150.863 259.191 150.435C259.774 150.007 261.106 149.842 262.443 148.006C263.779 146.17 267.562 132.341 265.895 130.902C264.228 129.469 255.45 123.941 254.273 123.384C253.101 122.827 252.792 113.298 252.792 113.298H252.797Z" fill="#CF677D"/>
<path d="M220.05 124.859C220.05 124.859 222.822 122.492 224.896 122.925C226.966 123.358 229.361 125.921 228.783 125.998C228.308 126.065 226.15 124.735 226.15 124.735C226.15 124.735 227.89 126.828 227.389 126.828C226.888 126.828 224.452 124.854 224.452 124.854C224.452 124.854 226.187 126.524 226.006 127.189C225.898 127.581 224.535 125.993 223.152 125.307C222.192 124.833 220.871 124.854 220.05 124.854V124.859Z" fill="#251D35"/>
<path d="M252.797 111.663C252.797 111.663 266.768 119.29 268.93 120.837C271.093 122.384 265.596 131.32 264.094 131.835C262.592 132.351 250.898 125.648 249.349 125.477C247.801 125.307 249.736 112.06 252.797 111.663Z" fill="#251D35"/>
<path d="M245.706 102.444C245.706 102.444 235.224 102.562 234.738 103.547C234.253 104.532 235.683 106.672 236.591 106.569C237.5 106.466 237.567 105.527 238.315 105.465C239.063 105.403 238.986 107.048 241.112 105.986C243.239 104.924 245.525 104.444 245.891 104.042C246.263 103.64 246.387 102.356 245.7 102.449L245.706 102.444Z" fill="#251D35"/>
<path d="M253.638 128.154C253.576 128.154 253.514 128.133 253.463 128.087C250.428 125.266 250.392 113.54 250.392 113.045C250.392 112.901 250.505 112.787 250.65 112.787C250.794 112.787 250.908 112.901 250.908 113.045C250.908 113.164 250.944 125.039 253.814 127.71C253.917 127.808 253.922 127.968 253.829 128.076C253.777 128.133 253.71 128.159 253.638 128.159V128.154Z" fill="#433552"/>
<path d="M263.191 146.439C263.191 146.439 267.877 148.022 267.64 148.496C266.541 150.667 262.799 156.648 262.577 156.586C262.066 156.447 262.809 154.307 263.196 153.214C263.196 153.214 261.854 156.117 261.441 156.293C260.74 156.586 262.035 152.394 262.035 152.394C262.035 152.394 260.476 155.849 260.027 155.746C259.418 155.602 261.003 150.858 260.776 150.852C260.549 150.842 259.171 151.152 258.474 150.76C257.777 150.368 260.915 149.734 261.617 148.955C262.319 148.176 263.036 146.366 263.196 146.439H263.191Z" fill="#251D35"/>
<path d="M235.353 123.544C235.218 123.544 235.11 123.441 235.095 123.307C234.795 119.872 236.416 117.196 236.483 117.088C236.56 116.964 236.72 116.933 236.839 117.005C236.963 117.078 236.999 117.237 236.922 117.361C236.906 117.387 235.322 120.006 235.605 123.265C235.616 123.405 235.513 123.534 235.368 123.544C235.363 123.544 235.353 123.544 235.347 123.544H235.353Z" fill="#433552"/>
<path d="M42.5164 79.028C54.7444 79.028 64.6572 69.124 64.6572 56.9068C64.6572 44.6896 54.7444 34.7855 42.5164 34.7855C30.2884 34.7855 20.3757 44.6896 20.3757 56.9068C20.3757 69.124 30.2884 79.028 42.5164 79.028Z" fill="#5302D6"/>
<path d="M37.3657 40.8599H47.6619L46.9136 62.2283C46.9136 62.2283 40.354 62.548 39.0843 62.1973L37.3657 40.8599Z" fill="#F8F4E2"/>
<path d="M44.0017 73.3519C45.9846 72.5313 46.9263 70.26 46.1049 68.2788C45.2835 66.2976 43.0102 65.3568 41.0273 66.1774C39.0443 66.998 38.1027 69.2694 38.9241 71.2506C39.7454 73.2317 42.0187 74.1726 44.0017 73.3519Z" fill="#F8F4E2"/>
</g>
<defs>
<clipPath id="clip0_4_2621">
<rect width="313" height="218" fill="white"/>
</clipPath>
</defs>
</svg>
