<svg width="19" height="19" viewBox="0 0 19 19" fill="none" xmlns="http://www.w3.org/2000/svg">
<g clip-path="url(#clip0_616_2067)">
<path d="M18.1436 15.2942C18.1436 16.3229 15.5717 16.2658 15.5717 16.2658L8.39906 14.4655C7.88469 14.3511 7.48462 13.8082 7.48462 13.2367V7.12134L18.1436 7.72144V15.2942Z" fill="#5F6262"/>
<path d="M17.6293 3.23496L17.2292 3.17781L15.2289 4.14941L14.9431 16.7516C16.6005 15.3513 18.1437 15.3227 18.1437 15.3227V4.34944C18.1437 3.89222 17.9436 3.49215 17.6293 3.23496Z" fill="#343434"/>
<path d="M15.3432 15.6085C15.3432 16.6373 14.6002 17.2945 13.7144 17.0945L2.51246 14.3512C1.85521 14.1797 1.31226 13.351 1.31226 12.4937V3.26355L15.3432 4.17799V15.6085Z" fill="#5F6262"/>
<path d="M15.5432 8.72162C15.5432 9.75037 14.686 10.5219 13.8001 10.3505L2.56959 8.49301C1.91233 8.37871 1.36938 7.57857 1.36938 6.72128L1.74088 2.9492L15.6004 4.06368L15.5432 8.72162Z" fill="#343434"/>
<path d="M1.74083 2.69202C0.683503 3.40642 0.683503 7.80718 2.22662 7.80718L13.4571 9.55033C14.343 9.69322 15.086 8.95023 15.086 7.92148C15.086 7.92148 14.7431 4.57805 15.3717 4.14941L15.8861 3.9208L1.74083 2.69202Z" fill="#5F6262"/>
<path d="M9.28493 7.00705L6.25584 6.60698L5.71289 8.72163L6.25584 10.2933L9.28493 10.8363V7.00705Z" fill="#65562D"/>
<path d="M6.25584 6.60698L5.71289 8.72163L8.74198 9.17885L9.28493 7.00705L6.25584 6.60698Z" fill="#F8ECC5"/>
<path d="M6.25584 10.2933L9.28493 10.8363L8.74198 9.17884L5.71289 8.72162L6.25584 10.2933Z" fill="#BFAE6E"/>
<path d="M16.6292 2.89206L6.37032 1.97762L2.48394 2.43484L2.31248 2.46341C2.11245 2.49199 1.91241 2.57772 1.76953 2.69202L15.4004 4.17799L16.8293 3.54931C18.0009 2.97779 18.1438 4.00653 18.1438 4.00653C17.9723 3.09209 17.1436 2.94921 16.6292 2.89206Z" fill="#919193"/>
<path d="M5.7701 2.32052C5.7701 1.09174 6.74169 1.03458 6.9703 0.948854C7.17034 0.891702 7.31322 0.691667 7.25606 0.520209C7.19891 0.348752 6.99888 0.320175 6.79884 0.320175C6.14159 0.320175 4.99854 0.605938 4.99854 2.32052C5.02711 2.52055 5.7701 2.52055 5.7701 2.32052Z" fill="#BFAE6E"/>
<path d="M5.62717 2.2348C5.59859 2.06334 5.59859 1.89188 5.65574 1.72042C5.68432 1.54896 5.77005 1.37751 5.88436 1.2632C5.99866 1.12032 6.17012 1.03459 6.313 0.977437C6.48446 0.920285 6.65592 0.891708 6.82737 0.891708C6.65592 0.948861 6.51303 1.00601 6.37015 1.06317C6.22727 1.1489 6.08439 1.23462 5.99866 1.34893C5.77005 1.57754 5.68432 1.89188 5.62717 2.2348Z" fill="#65562D"/>
<path d="M12.9142 1.37751C12.8857 1.8633 12.457 2.2348 11.9712 2.17764L6.68461 1.749C6.19881 1.72042 5.82732 1.29178 5.88447 0.80598C5.91305 0.320182 6.3417 -0.0513101 6.82749 0.00584251L12.0855 0.434487C12.5999 0.463064 12.9714 0.891709 12.9142 1.37751Z" fill="#5F6262"/>
<path d="M12.9141 1.3775C12.8856 1.69184 12.4855 1.89188 11.9997 1.83472L6.71307 1.40608C6.22727 1.3775 5.85578 1.09174 5.88436 0.7774C5.91293 0.46306 6.313 0.263026 6.7988 0.291602L12.0568 0.720247C12.5712 0.805976 12.9427 1.06316 12.9141 1.3775Z" fill="#343434"/>
<path d="M12.9998 3.14924C12.9998 2.40625 12.4569 1.94903 12.1425 1.80615C11.6567 1.60612 12.0568 0.748827 12.514 0.977437C13.0856 1.23462 13.8571 2.03476 13.8571 3.14924C13.8857 3.40642 12.9998 3.40642 12.9998 3.14924Z" fill="#BFAE6E"/>
<path d="M13.1142 3.14924C13.057 2.80632 12.9713 2.49198 12.7713 2.2348C12.5998 1.97761 12.3712 1.72042 12.0854 1.54897C12.2569 1.57754 12.3998 1.66327 12.5427 1.77758C12.6856 1.89188 12.7999 2.00619 12.8856 2.14907C13.0856 2.46341 13.1714 2.80632 13.1142 3.14924Z" fill="#65562D"/>
</g>
<defs>
<clipPath id="clip0_616_2067">
<rect width="17.6789" height="17.6789" fill="white" transform="translate(0.442139 0.38266)"/>
</clipPath>
</defs>
</svg>
